G75*
%MOIN*%
%OFA0B0*%
%FSLAX25Y25*%
%IPPOS*%
%LPD*%
%AMOC8*
5,1,8,0,0,1.08239X$1,22.5*
%
%ADD10C,0.01000*%
%ADD11C,0.00000*%
D10*
X0016067Y0027183D02*
X0016067Y0191750D01*
X0016072Y0192140D01*
X0016086Y0192530D01*
X0016109Y0192919D01*
X0016142Y0193308D01*
X0016185Y0193696D01*
X0016236Y0194082D01*
X0016297Y0194468D01*
X0016368Y0194851D01*
X0016447Y0195233D01*
X0016536Y0195613D01*
X0016634Y0195991D01*
X0016741Y0196366D01*
X0016857Y0196738D01*
X0016982Y0197108D01*
X0017116Y0197474D01*
X0017259Y0197837D01*
X0017410Y0198197D01*
X0017570Y0198552D01*
X0017739Y0198904D01*
X0017916Y0199252D01*
X0018101Y0199595D01*
X0018295Y0199933D01*
X0018497Y0200267D01*
X0018707Y0200596D01*
X0018924Y0200920D01*
X0019150Y0201238D01*
X0019383Y0201551D01*
X0019623Y0201858D01*
X0019871Y0202159D01*
X0020127Y0202454D01*
X0020389Y0202743D01*
X0020658Y0203025D01*
X0020934Y0203301D01*
X0021216Y0203570D01*
X0021505Y0203832D01*
X0021800Y0204088D01*
X0022101Y0204336D01*
X0022408Y0204576D01*
X0022721Y0204809D01*
X0023039Y0205035D01*
X0023363Y0205252D01*
X0023692Y0205462D01*
X0024026Y0205664D01*
X0024364Y0205858D01*
X0024707Y0206043D01*
X0025055Y0206220D01*
X0025407Y0206389D01*
X0025762Y0206549D01*
X0026122Y0206700D01*
X0026485Y0206843D01*
X0026851Y0206977D01*
X0027221Y0207102D01*
X0027593Y0207218D01*
X0027968Y0207325D01*
X0028346Y0207423D01*
X0028726Y0207512D01*
X0029108Y0207591D01*
X0029491Y0207662D01*
X0029877Y0207723D01*
X0030263Y0207774D01*
X0030651Y0207817D01*
X0031040Y0207850D01*
X0031429Y0207873D01*
X0031819Y0207887D01*
X0032209Y0207892D01*
X0196776Y0207892D01*
X0197166Y0207887D01*
X0197556Y0207873D01*
X0197945Y0207850D01*
X0198334Y0207817D01*
X0198722Y0207774D01*
X0199108Y0207723D01*
X0199494Y0207662D01*
X0199877Y0207591D01*
X0200259Y0207512D01*
X0200639Y0207423D01*
X0201017Y0207325D01*
X0201392Y0207218D01*
X0201764Y0207102D01*
X0202134Y0206977D01*
X0202500Y0206843D01*
X0202863Y0206700D01*
X0203223Y0206549D01*
X0203578Y0206389D01*
X0203930Y0206220D01*
X0204278Y0206043D01*
X0204621Y0205858D01*
X0204959Y0205664D01*
X0205293Y0205462D01*
X0205622Y0205252D01*
X0205946Y0205035D01*
X0206264Y0204809D01*
X0206577Y0204576D01*
X0206884Y0204336D01*
X0207185Y0204088D01*
X0207480Y0203832D01*
X0207769Y0203570D01*
X0208051Y0203301D01*
X0208327Y0203025D01*
X0208596Y0202743D01*
X0208858Y0202454D01*
X0209114Y0202159D01*
X0209362Y0201858D01*
X0209602Y0201551D01*
X0209835Y0201238D01*
X0210061Y0200920D01*
X0210278Y0200596D01*
X0210488Y0200267D01*
X0210690Y0199933D01*
X0210884Y0199595D01*
X0211069Y0199252D01*
X0211246Y0198904D01*
X0211415Y0198552D01*
X0211575Y0198197D01*
X0211726Y0197837D01*
X0211869Y0197474D01*
X0212003Y0197108D01*
X0212128Y0196738D01*
X0212244Y0196366D01*
X0212351Y0195991D01*
X0212449Y0195613D01*
X0212538Y0195233D01*
X0212617Y0194851D01*
X0212688Y0194468D01*
X0212749Y0194082D01*
X0212800Y0193696D01*
X0212843Y0193308D01*
X0212876Y0192919D01*
X0212899Y0192530D01*
X0212913Y0192140D01*
X0212918Y0191750D01*
X0212917Y0191750D02*
X0212917Y0027183D01*
X0212918Y0027183D02*
X0212913Y0026793D01*
X0212899Y0026403D01*
X0212876Y0026014D01*
X0212843Y0025625D01*
X0212800Y0025237D01*
X0212749Y0024851D01*
X0212688Y0024465D01*
X0212617Y0024082D01*
X0212538Y0023700D01*
X0212449Y0023320D01*
X0212351Y0022942D01*
X0212244Y0022567D01*
X0212128Y0022195D01*
X0212003Y0021825D01*
X0211869Y0021459D01*
X0211726Y0021096D01*
X0211575Y0020736D01*
X0211415Y0020381D01*
X0211246Y0020029D01*
X0211069Y0019681D01*
X0210884Y0019338D01*
X0210690Y0019000D01*
X0210488Y0018666D01*
X0210278Y0018337D01*
X0210061Y0018013D01*
X0209835Y0017695D01*
X0209602Y0017382D01*
X0209362Y0017075D01*
X0209114Y0016774D01*
X0208858Y0016479D01*
X0208596Y0016190D01*
X0208327Y0015908D01*
X0208051Y0015632D01*
X0207769Y0015363D01*
X0207480Y0015101D01*
X0207185Y0014845D01*
X0206884Y0014597D01*
X0206577Y0014357D01*
X0206264Y0014124D01*
X0205946Y0013898D01*
X0205622Y0013681D01*
X0205293Y0013471D01*
X0204959Y0013269D01*
X0204621Y0013075D01*
X0204278Y0012890D01*
X0203930Y0012713D01*
X0203578Y0012544D01*
X0203223Y0012384D01*
X0202863Y0012233D01*
X0202500Y0012090D01*
X0202134Y0011956D01*
X0201764Y0011831D01*
X0201392Y0011715D01*
X0201017Y0011608D01*
X0200639Y0011510D01*
X0200259Y0011421D01*
X0199877Y0011342D01*
X0199494Y0011271D01*
X0199108Y0011210D01*
X0198722Y0011159D01*
X0198334Y0011116D01*
X0197945Y0011083D01*
X0197556Y0011060D01*
X0197166Y0011046D01*
X0196776Y0011041D01*
X0032209Y0011041D01*
X0031819Y0011046D01*
X0031429Y0011060D01*
X0031040Y0011083D01*
X0030651Y0011116D01*
X0030263Y0011159D01*
X0029877Y0011210D01*
X0029491Y0011271D01*
X0029108Y0011342D01*
X0028726Y0011421D01*
X0028346Y0011510D01*
X0027968Y0011608D01*
X0027593Y0011715D01*
X0027221Y0011831D01*
X0026851Y0011956D01*
X0026485Y0012090D01*
X0026122Y0012233D01*
X0025762Y0012384D01*
X0025407Y0012544D01*
X0025055Y0012713D01*
X0024707Y0012890D01*
X0024364Y0013075D01*
X0024026Y0013269D01*
X0023692Y0013471D01*
X0023363Y0013681D01*
X0023039Y0013898D01*
X0022721Y0014124D01*
X0022408Y0014357D01*
X0022101Y0014597D01*
X0021800Y0014845D01*
X0021505Y0015101D01*
X0021216Y0015363D01*
X0020934Y0015632D01*
X0020658Y0015908D01*
X0020389Y0016190D01*
X0020127Y0016479D01*
X0019871Y0016774D01*
X0019623Y0017075D01*
X0019383Y0017382D01*
X0019150Y0017695D01*
X0018924Y0018013D01*
X0018707Y0018337D01*
X0018497Y0018666D01*
X0018295Y0019000D01*
X0018101Y0019338D01*
X0017916Y0019681D01*
X0017739Y0020029D01*
X0017570Y0020381D01*
X0017410Y0020736D01*
X0017259Y0021096D01*
X0017116Y0021459D01*
X0016982Y0021825D01*
X0016857Y0022195D01*
X0016741Y0022567D01*
X0016634Y0022942D01*
X0016536Y0023320D01*
X0016447Y0023700D01*
X0016368Y0024082D01*
X0016297Y0024465D01*
X0016236Y0024851D01*
X0016185Y0025237D01*
X0016142Y0025625D01*
X0016109Y0026014D01*
X0016086Y0026403D01*
X0016072Y0026793D01*
X0016067Y0027183D01*
D11*
X0025910Y0027183D02*
X0025912Y0027341D01*
X0025918Y0027499D01*
X0025928Y0027657D01*
X0025942Y0027815D01*
X0025960Y0027972D01*
X0025981Y0028129D01*
X0026007Y0028285D01*
X0026037Y0028441D01*
X0026070Y0028596D01*
X0026108Y0028749D01*
X0026149Y0028902D01*
X0026194Y0029054D01*
X0026243Y0029205D01*
X0026296Y0029354D01*
X0026352Y0029502D01*
X0026412Y0029648D01*
X0026476Y0029793D01*
X0026544Y0029936D01*
X0026615Y0030078D01*
X0026689Y0030218D01*
X0026767Y0030355D01*
X0026849Y0030491D01*
X0026933Y0030625D01*
X0027022Y0030756D01*
X0027113Y0030885D01*
X0027208Y0031012D01*
X0027305Y0031137D01*
X0027406Y0031259D01*
X0027510Y0031378D01*
X0027617Y0031495D01*
X0027727Y0031609D01*
X0027840Y0031720D01*
X0027955Y0031829D01*
X0028073Y0031934D01*
X0028194Y0032036D01*
X0028317Y0032136D01*
X0028443Y0032232D01*
X0028571Y0032325D01*
X0028701Y0032415D01*
X0028834Y0032501D01*
X0028969Y0032585D01*
X0029105Y0032664D01*
X0029244Y0032741D01*
X0029385Y0032813D01*
X0029527Y0032883D01*
X0029671Y0032948D01*
X0029817Y0033010D01*
X0029964Y0033068D01*
X0030113Y0033123D01*
X0030263Y0033174D01*
X0030414Y0033221D01*
X0030566Y0033264D01*
X0030719Y0033303D01*
X0030874Y0033339D01*
X0031029Y0033370D01*
X0031185Y0033398D01*
X0031341Y0033422D01*
X0031498Y0033442D01*
X0031656Y0033458D01*
X0031813Y0033470D01*
X0031972Y0033478D01*
X0032130Y0033482D01*
X0032288Y0033482D01*
X0032446Y0033478D01*
X0032605Y0033470D01*
X0032762Y0033458D01*
X0032920Y0033442D01*
X0033077Y0033422D01*
X0033233Y0033398D01*
X0033389Y0033370D01*
X0033544Y0033339D01*
X0033699Y0033303D01*
X0033852Y0033264D01*
X0034004Y0033221D01*
X0034155Y0033174D01*
X0034305Y0033123D01*
X0034454Y0033068D01*
X0034601Y0033010D01*
X0034747Y0032948D01*
X0034891Y0032883D01*
X0035033Y0032813D01*
X0035174Y0032741D01*
X0035313Y0032664D01*
X0035449Y0032585D01*
X0035584Y0032501D01*
X0035717Y0032415D01*
X0035847Y0032325D01*
X0035975Y0032232D01*
X0036101Y0032136D01*
X0036224Y0032036D01*
X0036345Y0031934D01*
X0036463Y0031829D01*
X0036578Y0031720D01*
X0036691Y0031609D01*
X0036801Y0031495D01*
X0036908Y0031378D01*
X0037012Y0031259D01*
X0037113Y0031137D01*
X0037210Y0031012D01*
X0037305Y0030885D01*
X0037396Y0030756D01*
X0037485Y0030625D01*
X0037569Y0030491D01*
X0037651Y0030355D01*
X0037729Y0030218D01*
X0037803Y0030078D01*
X0037874Y0029936D01*
X0037942Y0029793D01*
X0038006Y0029648D01*
X0038066Y0029502D01*
X0038122Y0029354D01*
X0038175Y0029205D01*
X0038224Y0029054D01*
X0038269Y0028902D01*
X0038310Y0028749D01*
X0038348Y0028596D01*
X0038381Y0028441D01*
X0038411Y0028285D01*
X0038437Y0028129D01*
X0038458Y0027972D01*
X0038476Y0027815D01*
X0038490Y0027657D01*
X0038500Y0027499D01*
X0038506Y0027341D01*
X0038508Y0027183D01*
X0038506Y0027025D01*
X0038500Y0026867D01*
X0038490Y0026709D01*
X0038476Y0026551D01*
X0038458Y0026394D01*
X0038437Y0026237D01*
X0038411Y0026081D01*
X0038381Y0025925D01*
X0038348Y0025770D01*
X0038310Y0025617D01*
X0038269Y0025464D01*
X0038224Y0025312D01*
X0038175Y0025161D01*
X0038122Y0025012D01*
X0038066Y0024864D01*
X0038006Y0024718D01*
X0037942Y0024573D01*
X0037874Y0024430D01*
X0037803Y0024288D01*
X0037729Y0024148D01*
X0037651Y0024011D01*
X0037569Y0023875D01*
X0037485Y0023741D01*
X0037396Y0023610D01*
X0037305Y0023481D01*
X0037210Y0023354D01*
X0037113Y0023229D01*
X0037012Y0023107D01*
X0036908Y0022988D01*
X0036801Y0022871D01*
X0036691Y0022757D01*
X0036578Y0022646D01*
X0036463Y0022537D01*
X0036345Y0022432D01*
X0036224Y0022330D01*
X0036101Y0022230D01*
X0035975Y0022134D01*
X0035847Y0022041D01*
X0035717Y0021951D01*
X0035584Y0021865D01*
X0035449Y0021781D01*
X0035313Y0021702D01*
X0035174Y0021625D01*
X0035033Y0021553D01*
X0034891Y0021483D01*
X0034747Y0021418D01*
X0034601Y0021356D01*
X0034454Y0021298D01*
X0034305Y0021243D01*
X0034155Y0021192D01*
X0034004Y0021145D01*
X0033852Y0021102D01*
X0033699Y0021063D01*
X0033544Y0021027D01*
X0033389Y0020996D01*
X0033233Y0020968D01*
X0033077Y0020944D01*
X0032920Y0020924D01*
X0032762Y0020908D01*
X0032605Y0020896D01*
X0032446Y0020888D01*
X0032288Y0020884D01*
X0032130Y0020884D01*
X0031972Y0020888D01*
X0031813Y0020896D01*
X0031656Y0020908D01*
X0031498Y0020924D01*
X0031341Y0020944D01*
X0031185Y0020968D01*
X0031029Y0020996D01*
X0030874Y0021027D01*
X0030719Y0021063D01*
X0030566Y0021102D01*
X0030414Y0021145D01*
X0030263Y0021192D01*
X0030113Y0021243D01*
X0029964Y0021298D01*
X0029817Y0021356D01*
X0029671Y0021418D01*
X0029527Y0021483D01*
X0029385Y0021553D01*
X0029244Y0021625D01*
X0029105Y0021702D01*
X0028969Y0021781D01*
X0028834Y0021865D01*
X0028701Y0021951D01*
X0028571Y0022041D01*
X0028443Y0022134D01*
X0028317Y0022230D01*
X0028194Y0022330D01*
X0028073Y0022432D01*
X0027955Y0022537D01*
X0027840Y0022646D01*
X0027727Y0022757D01*
X0027617Y0022871D01*
X0027510Y0022988D01*
X0027406Y0023107D01*
X0027305Y0023229D01*
X0027208Y0023354D01*
X0027113Y0023481D01*
X0027022Y0023610D01*
X0026933Y0023741D01*
X0026849Y0023875D01*
X0026767Y0024011D01*
X0026689Y0024148D01*
X0026615Y0024288D01*
X0026544Y0024430D01*
X0026476Y0024573D01*
X0026412Y0024718D01*
X0026352Y0024864D01*
X0026296Y0025012D01*
X0026243Y0025161D01*
X0026194Y0025312D01*
X0026149Y0025464D01*
X0026108Y0025617D01*
X0026070Y0025770D01*
X0026037Y0025925D01*
X0026007Y0026081D01*
X0025981Y0026237D01*
X0025960Y0026394D01*
X0025942Y0026551D01*
X0025928Y0026709D01*
X0025918Y0026867D01*
X0025912Y0027025D01*
X0025910Y0027183D01*
X0190477Y0027183D02*
X0190479Y0027341D01*
X0190485Y0027499D01*
X0190495Y0027657D01*
X0190509Y0027815D01*
X0190527Y0027972D01*
X0190548Y0028129D01*
X0190574Y0028285D01*
X0190604Y0028441D01*
X0190637Y0028596D01*
X0190675Y0028749D01*
X0190716Y0028902D01*
X0190761Y0029054D01*
X0190810Y0029205D01*
X0190863Y0029354D01*
X0190919Y0029502D01*
X0190979Y0029648D01*
X0191043Y0029793D01*
X0191111Y0029936D01*
X0191182Y0030078D01*
X0191256Y0030218D01*
X0191334Y0030355D01*
X0191416Y0030491D01*
X0191500Y0030625D01*
X0191589Y0030756D01*
X0191680Y0030885D01*
X0191775Y0031012D01*
X0191872Y0031137D01*
X0191973Y0031259D01*
X0192077Y0031378D01*
X0192184Y0031495D01*
X0192294Y0031609D01*
X0192407Y0031720D01*
X0192522Y0031829D01*
X0192640Y0031934D01*
X0192761Y0032036D01*
X0192884Y0032136D01*
X0193010Y0032232D01*
X0193138Y0032325D01*
X0193268Y0032415D01*
X0193401Y0032501D01*
X0193536Y0032585D01*
X0193672Y0032664D01*
X0193811Y0032741D01*
X0193952Y0032813D01*
X0194094Y0032883D01*
X0194238Y0032948D01*
X0194384Y0033010D01*
X0194531Y0033068D01*
X0194680Y0033123D01*
X0194830Y0033174D01*
X0194981Y0033221D01*
X0195133Y0033264D01*
X0195286Y0033303D01*
X0195441Y0033339D01*
X0195596Y0033370D01*
X0195752Y0033398D01*
X0195908Y0033422D01*
X0196065Y0033442D01*
X0196223Y0033458D01*
X0196380Y0033470D01*
X0196539Y0033478D01*
X0196697Y0033482D01*
X0196855Y0033482D01*
X0197013Y0033478D01*
X0197172Y0033470D01*
X0197329Y0033458D01*
X0197487Y0033442D01*
X0197644Y0033422D01*
X0197800Y0033398D01*
X0197956Y0033370D01*
X0198111Y0033339D01*
X0198266Y0033303D01*
X0198419Y0033264D01*
X0198571Y0033221D01*
X0198722Y0033174D01*
X0198872Y0033123D01*
X0199021Y0033068D01*
X0199168Y0033010D01*
X0199314Y0032948D01*
X0199458Y0032883D01*
X0199600Y0032813D01*
X0199741Y0032741D01*
X0199880Y0032664D01*
X0200016Y0032585D01*
X0200151Y0032501D01*
X0200284Y0032415D01*
X0200414Y0032325D01*
X0200542Y0032232D01*
X0200668Y0032136D01*
X0200791Y0032036D01*
X0200912Y0031934D01*
X0201030Y0031829D01*
X0201145Y0031720D01*
X0201258Y0031609D01*
X0201368Y0031495D01*
X0201475Y0031378D01*
X0201579Y0031259D01*
X0201680Y0031137D01*
X0201777Y0031012D01*
X0201872Y0030885D01*
X0201963Y0030756D01*
X0202052Y0030625D01*
X0202136Y0030491D01*
X0202218Y0030355D01*
X0202296Y0030218D01*
X0202370Y0030078D01*
X0202441Y0029936D01*
X0202509Y0029793D01*
X0202573Y0029648D01*
X0202633Y0029502D01*
X0202689Y0029354D01*
X0202742Y0029205D01*
X0202791Y0029054D01*
X0202836Y0028902D01*
X0202877Y0028749D01*
X0202915Y0028596D01*
X0202948Y0028441D01*
X0202978Y0028285D01*
X0203004Y0028129D01*
X0203025Y0027972D01*
X0203043Y0027815D01*
X0203057Y0027657D01*
X0203067Y0027499D01*
X0203073Y0027341D01*
X0203075Y0027183D01*
X0203073Y0027025D01*
X0203067Y0026867D01*
X0203057Y0026709D01*
X0203043Y0026551D01*
X0203025Y0026394D01*
X0203004Y0026237D01*
X0202978Y0026081D01*
X0202948Y0025925D01*
X0202915Y0025770D01*
X0202877Y0025617D01*
X0202836Y0025464D01*
X0202791Y0025312D01*
X0202742Y0025161D01*
X0202689Y0025012D01*
X0202633Y0024864D01*
X0202573Y0024718D01*
X0202509Y0024573D01*
X0202441Y0024430D01*
X0202370Y0024288D01*
X0202296Y0024148D01*
X0202218Y0024011D01*
X0202136Y0023875D01*
X0202052Y0023741D01*
X0201963Y0023610D01*
X0201872Y0023481D01*
X0201777Y0023354D01*
X0201680Y0023229D01*
X0201579Y0023107D01*
X0201475Y0022988D01*
X0201368Y0022871D01*
X0201258Y0022757D01*
X0201145Y0022646D01*
X0201030Y0022537D01*
X0200912Y0022432D01*
X0200791Y0022330D01*
X0200668Y0022230D01*
X0200542Y0022134D01*
X0200414Y0022041D01*
X0200284Y0021951D01*
X0200151Y0021865D01*
X0200016Y0021781D01*
X0199880Y0021702D01*
X0199741Y0021625D01*
X0199600Y0021553D01*
X0199458Y0021483D01*
X0199314Y0021418D01*
X0199168Y0021356D01*
X0199021Y0021298D01*
X0198872Y0021243D01*
X0198722Y0021192D01*
X0198571Y0021145D01*
X0198419Y0021102D01*
X0198266Y0021063D01*
X0198111Y0021027D01*
X0197956Y0020996D01*
X0197800Y0020968D01*
X0197644Y0020944D01*
X0197487Y0020924D01*
X0197329Y0020908D01*
X0197172Y0020896D01*
X0197013Y0020888D01*
X0196855Y0020884D01*
X0196697Y0020884D01*
X0196539Y0020888D01*
X0196380Y0020896D01*
X0196223Y0020908D01*
X0196065Y0020924D01*
X0195908Y0020944D01*
X0195752Y0020968D01*
X0195596Y0020996D01*
X0195441Y0021027D01*
X0195286Y0021063D01*
X0195133Y0021102D01*
X0194981Y0021145D01*
X0194830Y0021192D01*
X0194680Y0021243D01*
X0194531Y0021298D01*
X0194384Y0021356D01*
X0194238Y0021418D01*
X0194094Y0021483D01*
X0193952Y0021553D01*
X0193811Y0021625D01*
X0193672Y0021702D01*
X0193536Y0021781D01*
X0193401Y0021865D01*
X0193268Y0021951D01*
X0193138Y0022041D01*
X0193010Y0022134D01*
X0192884Y0022230D01*
X0192761Y0022330D01*
X0192640Y0022432D01*
X0192522Y0022537D01*
X0192407Y0022646D01*
X0192294Y0022757D01*
X0192184Y0022871D01*
X0192077Y0022988D01*
X0191973Y0023107D01*
X0191872Y0023229D01*
X0191775Y0023354D01*
X0191680Y0023481D01*
X0191589Y0023610D01*
X0191500Y0023741D01*
X0191416Y0023875D01*
X0191334Y0024011D01*
X0191256Y0024148D01*
X0191182Y0024288D01*
X0191111Y0024430D01*
X0191043Y0024573D01*
X0190979Y0024718D01*
X0190919Y0024864D01*
X0190863Y0025012D01*
X0190810Y0025161D01*
X0190761Y0025312D01*
X0190716Y0025464D01*
X0190675Y0025617D01*
X0190637Y0025770D01*
X0190604Y0025925D01*
X0190574Y0026081D01*
X0190548Y0026237D01*
X0190527Y0026394D01*
X0190509Y0026551D01*
X0190495Y0026709D01*
X0190485Y0026867D01*
X0190479Y0027025D01*
X0190477Y0027183D01*
X0190477Y0191750D02*
X0190479Y0191908D01*
X0190485Y0192066D01*
X0190495Y0192224D01*
X0190509Y0192382D01*
X0190527Y0192539D01*
X0190548Y0192696D01*
X0190574Y0192852D01*
X0190604Y0193008D01*
X0190637Y0193163D01*
X0190675Y0193316D01*
X0190716Y0193469D01*
X0190761Y0193621D01*
X0190810Y0193772D01*
X0190863Y0193921D01*
X0190919Y0194069D01*
X0190979Y0194215D01*
X0191043Y0194360D01*
X0191111Y0194503D01*
X0191182Y0194645D01*
X0191256Y0194785D01*
X0191334Y0194922D01*
X0191416Y0195058D01*
X0191500Y0195192D01*
X0191589Y0195323D01*
X0191680Y0195452D01*
X0191775Y0195579D01*
X0191872Y0195704D01*
X0191973Y0195826D01*
X0192077Y0195945D01*
X0192184Y0196062D01*
X0192294Y0196176D01*
X0192407Y0196287D01*
X0192522Y0196396D01*
X0192640Y0196501D01*
X0192761Y0196603D01*
X0192884Y0196703D01*
X0193010Y0196799D01*
X0193138Y0196892D01*
X0193268Y0196982D01*
X0193401Y0197068D01*
X0193536Y0197152D01*
X0193672Y0197231D01*
X0193811Y0197308D01*
X0193952Y0197380D01*
X0194094Y0197450D01*
X0194238Y0197515D01*
X0194384Y0197577D01*
X0194531Y0197635D01*
X0194680Y0197690D01*
X0194830Y0197741D01*
X0194981Y0197788D01*
X0195133Y0197831D01*
X0195286Y0197870D01*
X0195441Y0197906D01*
X0195596Y0197937D01*
X0195752Y0197965D01*
X0195908Y0197989D01*
X0196065Y0198009D01*
X0196223Y0198025D01*
X0196380Y0198037D01*
X0196539Y0198045D01*
X0196697Y0198049D01*
X0196855Y0198049D01*
X0197013Y0198045D01*
X0197172Y0198037D01*
X0197329Y0198025D01*
X0197487Y0198009D01*
X0197644Y0197989D01*
X0197800Y0197965D01*
X0197956Y0197937D01*
X0198111Y0197906D01*
X0198266Y0197870D01*
X0198419Y0197831D01*
X0198571Y0197788D01*
X0198722Y0197741D01*
X0198872Y0197690D01*
X0199021Y0197635D01*
X0199168Y0197577D01*
X0199314Y0197515D01*
X0199458Y0197450D01*
X0199600Y0197380D01*
X0199741Y0197308D01*
X0199880Y0197231D01*
X0200016Y0197152D01*
X0200151Y0197068D01*
X0200284Y0196982D01*
X0200414Y0196892D01*
X0200542Y0196799D01*
X0200668Y0196703D01*
X0200791Y0196603D01*
X0200912Y0196501D01*
X0201030Y0196396D01*
X0201145Y0196287D01*
X0201258Y0196176D01*
X0201368Y0196062D01*
X0201475Y0195945D01*
X0201579Y0195826D01*
X0201680Y0195704D01*
X0201777Y0195579D01*
X0201872Y0195452D01*
X0201963Y0195323D01*
X0202052Y0195192D01*
X0202136Y0195058D01*
X0202218Y0194922D01*
X0202296Y0194785D01*
X0202370Y0194645D01*
X0202441Y0194503D01*
X0202509Y0194360D01*
X0202573Y0194215D01*
X0202633Y0194069D01*
X0202689Y0193921D01*
X0202742Y0193772D01*
X0202791Y0193621D01*
X0202836Y0193469D01*
X0202877Y0193316D01*
X0202915Y0193163D01*
X0202948Y0193008D01*
X0202978Y0192852D01*
X0203004Y0192696D01*
X0203025Y0192539D01*
X0203043Y0192382D01*
X0203057Y0192224D01*
X0203067Y0192066D01*
X0203073Y0191908D01*
X0203075Y0191750D01*
X0203073Y0191592D01*
X0203067Y0191434D01*
X0203057Y0191276D01*
X0203043Y0191118D01*
X0203025Y0190961D01*
X0203004Y0190804D01*
X0202978Y0190648D01*
X0202948Y0190492D01*
X0202915Y0190337D01*
X0202877Y0190184D01*
X0202836Y0190031D01*
X0202791Y0189879D01*
X0202742Y0189728D01*
X0202689Y0189579D01*
X0202633Y0189431D01*
X0202573Y0189285D01*
X0202509Y0189140D01*
X0202441Y0188997D01*
X0202370Y0188855D01*
X0202296Y0188715D01*
X0202218Y0188578D01*
X0202136Y0188442D01*
X0202052Y0188308D01*
X0201963Y0188177D01*
X0201872Y0188048D01*
X0201777Y0187921D01*
X0201680Y0187796D01*
X0201579Y0187674D01*
X0201475Y0187555D01*
X0201368Y0187438D01*
X0201258Y0187324D01*
X0201145Y0187213D01*
X0201030Y0187104D01*
X0200912Y0186999D01*
X0200791Y0186897D01*
X0200668Y0186797D01*
X0200542Y0186701D01*
X0200414Y0186608D01*
X0200284Y0186518D01*
X0200151Y0186432D01*
X0200016Y0186348D01*
X0199880Y0186269D01*
X0199741Y0186192D01*
X0199600Y0186120D01*
X0199458Y0186050D01*
X0199314Y0185985D01*
X0199168Y0185923D01*
X0199021Y0185865D01*
X0198872Y0185810D01*
X0198722Y0185759D01*
X0198571Y0185712D01*
X0198419Y0185669D01*
X0198266Y0185630D01*
X0198111Y0185594D01*
X0197956Y0185563D01*
X0197800Y0185535D01*
X0197644Y0185511D01*
X0197487Y0185491D01*
X0197329Y0185475D01*
X0197172Y0185463D01*
X0197013Y0185455D01*
X0196855Y0185451D01*
X0196697Y0185451D01*
X0196539Y0185455D01*
X0196380Y0185463D01*
X0196223Y0185475D01*
X0196065Y0185491D01*
X0195908Y0185511D01*
X0195752Y0185535D01*
X0195596Y0185563D01*
X0195441Y0185594D01*
X0195286Y0185630D01*
X0195133Y0185669D01*
X0194981Y0185712D01*
X0194830Y0185759D01*
X0194680Y0185810D01*
X0194531Y0185865D01*
X0194384Y0185923D01*
X0194238Y0185985D01*
X0194094Y0186050D01*
X0193952Y0186120D01*
X0193811Y0186192D01*
X0193672Y0186269D01*
X0193536Y0186348D01*
X0193401Y0186432D01*
X0193268Y0186518D01*
X0193138Y0186608D01*
X0193010Y0186701D01*
X0192884Y0186797D01*
X0192761Y0186897D01*
X0192640Y0186999D01*
X0192522Y0187104D01*
X0192407Y0187213D01*
X0192294Y0187324D01*
X0192184Y0187438D01*
X0192077Y0187555D01*
X0191973Y0187674D01*
X0191872Y0187796D01*
X0191775Y0187921D01*
X0191680Y0188048D01*
X0191589Y0188177D01*
X0191500Y0188308D01*
X0191416Y0188442D01*
X0191334Y0188578D01*
X0191256Y0188715D01*
X0191182Y0188855D01*
X0191111Y0188997D01*
X0191043Y0189140D01*
X0190979Y0189285D01*
X0190919Y0189431D01*
X0190863Y0189579D01*
X0190810Y0189728D01*
X0190761Y0189879D01*
X0190716Y0190031D01*
X0190675Y0190184D01*
X0190637Y0190337D01*
X0190604Y0190492D01*
X0190574Y0190648D01*
X0190548Y0190804D01*
X0190527Y0190961D01*
X0190509Y0191118D01*
X0190495Y0191276D01*
X0190485Y0191434D01*
X0190479Y0191592D01*
X0190477Y0191750D01*
X0025910Y0191750D02*
X0025912Y0191908D01*
X0025918Y0192066D01*
X0025928Y0192224D01*
X0025942Y0192382D01*
X0025960Y0192539D01*
X0025981Y0192696D01*
X0026007Y0192852D01*
X0026037Y0193008D01*
X0026070Y0193163D01*
X0026108Y0193316D01*
X0026149Y0193469D01*
X0026194Y0193621D01*
X0026243Y0193772D01*
X0026296Y0193921D01*
X0026352Y0194069D01*
X0026412Y0194215D01*
X0026476Y0194360D01*
X0026544Y0194503D01*
X0026615Y0194645D01*
X0026689Y0194785D01*
X0026767Y0194922D01*
X0026849Y0195058D01*
X0026933Y0195192D01*
X0027022Y0195323D01*
X0027113Y0195452D01*
X0027208Y0195579D01*
X0027305Y0195704D01*
X0027406Y0195826D01*
X0027510Y0195945D01*
X0027617Y0196062D01*
X0027727Y0196176D01*
X0027840Y0196287D01*
X0027955Y0196396D01*
X0028073Y0196501D01*
X0028194Y0196603D01*
X0028317Y0196703D01*
X0028443Y0196799D01*
X0028571Y0196892D01*
X0028701Y0196982D01*
X0028834Y0197068D01*
X0028969Y0197152D01*
X0029105Y0197231D01*
X0029244Y0197308D01*
X0029385Y0197380D01*
X0029527Y0197450D01*
X0029671Y0197515D01*
X0029817Y0197577D01*
X0029964Y0197635D01*
X0030113Y0197690D01*
X0030263Y0197741D01*
X0030414Y0197788D01*
X0030566Y0197831D01*
X0030719Y0197870D01*
X0030874Y0197906D01*
X0031029Y0197937D01*
X0031185Y0197965D01*
X0031341Y0197989D01*
X0031498Y0198009D01*
X0031656Y0198025D01*
X0031813Y0198037D01*
X0031972Y0198045D01*
X0032130Y0198049D01*
X0032288Y0198049D01*
X0032446Y0198045D01*
X0032605Y0198037D01*
X0032762Y0198025D01*
X0032920Y0198009D01*
X0033077Y0197989D01*
X0033233Y0197965D01*
X0033389Y0197937D01*
X0033544Y0197906D01*
X0033699Y0197870D01*
X0033852Y0197831D01*
X0034004Y0197788D01*
X0034155Y0197741D01*
X0034305Y0197690D01*
X0034454Y0197635D01*
X0034601Y0197577D01*
X0034747Y0197515D01*
X0034891Y0197450D01*
X0035033Y0197380D01*
X0035174Y0197308D01*
X0035313Y0197231D01*
X0035449Y0197152D01*
X0035584Y0197068D01*
X0035717Y0196982D01*
X0035847Y0196892D01*
X0035975Y0196799D01*
X0036101Y0196703D01*
X0036224Y0196603D01*
X0036345Y0196501D01*
X0036463Y0196396D01*
X0036578Y0196287D01*
X0036691Y0196176D01*
X0036801Y0196062D01*
X0036908Y0195945D01*
X0037012Y0195826D01*
X0037113Y0195704D01*
X0037210Y0195579D01*
X0037305Y0195452D01*
X0037396Y0195323D01*
X0037485Y0195192D01*
X0037569Y0195058D01*
X0037651Y0194922D01*
X0037729Y0194785D01*
X0037803Y0194645D01*
X0037874Y0194503D01*
X0037942Y0194360D01*
X0038006Y0194215D01*
X0038066Y0194069D01*
X0038122Y0193921D01*
X0038175Y0193772D01*
X0038224Y0193621D01*
X0038269Y0193469D01*
X0038310Y0193316D01*
X0038348Y0193163D01*
X0038381Y0193008D01*
X0038411Y0192852D01*
X0038437Y0192696D01*
X0038458Y0192539D01*
X0038476Y0192382D01*
X0038490Y0192224D01*
X0038500Y0192066D01*
X0038506Y0191908D01*
X0038508Y0191750D01*
X0038506Y0191592D01*
X0038500Y0191434D01*
X0038490Y0191276D01*
X0038476Y0191118D01*
X0038458Y0190961D01*
X0038437Y0190804D01*
X0038411Y0190648D01*
X0038381Y0190492D01*
X0038348Y0190337D01*
X0038310Y0190184D01*
X0038269Y0190031D01*
X0038224Y0189879D01*
X0038175Y0189728D01*
X0038122Y0189579D01*
X0038066Y0189431D01*
X0038006Y0189285D01*
X0037942Y0189140D01*
X0037874Y0188997D01*
X0037803Y0188855D01*
X0037729Y0188715D01*
X0037651Y0188578D01*
X0037569Y0188442D01*
X0037485Y0188308D01*
X0037396Y0188177D01*
X0037305Y0188048D01*
X0037210Y0187921D01*
X0037113Y0187796D01*
X0037012Y0187674D01*
X0036908Y0187555D01*
X0036801Y0187438D01*
X0036691Y0187324D01*
X0036578Y0187213D01*
X0036463Y0187104D01*
X0036345Y0186999D01*
X0036224Y0186897D01*
X0036101Y0186797D01*
X0035975Y0186701D01*
X0035847Y0186608D01*
X0035717Y0186518D01*
X0035584Y0186432D01*
X0035449Y0186348D01*
X0035313Y0186269D01*
X0035174Y0186192D01*
X0035033Y0186120D01*
X0034891Y0186050D01*
X0034747Y0185985D01*
X0034601Y0185923D01*
X0034454Y0185865D01*
X0034305Y0185810D01*
X0034155Y0185759D01*
X0034004Y0185712D01*
X0033852Y0185669D01*
X0033699Y0185630D01*
X0033544Y0185594D01*
X0033389Y0185563D01*
X0033233Y0185535D01*
X0033077Y0185511D01*
X0032920Y0185491D01*
X0032762Y0185475D01*
X0032605Y0185463D01*
X0032446Y0185455D01*
X0032288Y0185451D01*
X0032130Y0185451D01*
X0031972Y0185455D01*
X0031813Y0185463D01*
X0031656Y0185475D01*
X0031498Y0185491D01*
X0031341Y0185511D01*
X0031185Y0185535D01*
X0031029Y0185563D01*
X0030874Y0185594D01*
X0030719Y0185630D01*
X0030566Y0185669D01*
X0030414Y0185712D01*
X0030263Y0185759D01*
X0030113Y0185810D01*
X0029964Y0185865D01*
X0029817Y0185923D01*
X0029671Y0185985D01*
X0029527Y0186050D01*
X0029385Y0186120D01*
X0029244Y0186192D01*
X0029105Y0186269D01*
X0028969Y0186348D01*
X0028834Y0186432D01*
X0028701Y0186518D01*
X0028571Y0186608D01*
X0028443Y0186701D01*
X0028317Y0186797D01*
X0028194Y0186897D01*
X0028073Y0186999D01*
X0027955Y0187104D01*
X0027840Y0187213D01*
X0027727Y0187324D01*
X0027617Y0187438D01*
X0027510Y0187555D01*
X0027406Y0187674D01*
X0027305Y0187796D01*
X0027208Y0187921D01*
X0027113Y0188048D01*
X0027022Y0188177D01*
X0026933Y0188308D01*
X0026849Y0188442D01*
X0026767Y0188578D01*
X0026689Y0188715D01*
X0026615Y0188855D01*
X0026544Y0188997D01*
X0026476Y0189140D01*
X0026412Y0189285D01*
X0026352Y0189431D01*
X0026296Y0189579D01*
X0026243Y0189728D01*
X0026194Y0189879D01*
X0026149Y0190031D01*
X0026108Y0190184D01*
X0026070Y0190337D01*
X0026037Y0190492D01*
X0026007Y0190648D01*
X0025981Y0190804D01*
X0025960Y0190961D01*
X0025942Y0191118D01*
X0025928Y0191276D01*
X0025918Y0191434D01*
X0025912Y0191592D01*
X0025910Y0191750D01*
M02*
