%
M48
M72
T01C0.02756
T02C0.03200
T03C0.03543
T04C0.03937
T05C0.04000
T06C0.04724
T07C0.07874
T08C0.11800
T09C0.12598
%
T01
X88783Y122656
X108469Y122656
X116461Y90569
X116461Y70884
X98547Y70687
X78862Y70687
X189807Y108286
X199807Y108286
T02
X75201Y112065
X85201Y112065
X95201Y112065
X105201Y112065
X105201Y82065
X95201Y82065
X85201Y82065
X75201Y82065
X36972Y94821
X36972Y104821
X151933Y90175
X151933Y80175
X151933Y70175
T03
X70004Y199230
X70004Y183482
X69807Y174467
X69807Y144467
X37051Y158010
X37051Y118010
X130043Y145097
X131539Y120215
X166067Y131868
X166067Y161868
X179965Y175490
X139965Y175490
X130043Y175097
X129846Y183482
X129846Y199230
X167642Y90215
X167642Y60215
X131539Y80215
T04
X90161Y175254
X100004Y175254
X109846Y175254
T05
X90083Y199230
X100083Y199230
X110083Y199230
X152091Y152419
X152091Y142419
X152091Y132419
X124335Y29152
X114335Y29152
T06
X193232Y83876
X193232Y70097
X193626Y142144
X193626Y155923
T07
X82681Y147695
X117327Y147695
T08
X66461Y64585
X84965Y52774
X66461Y40963
T09
X32209Y27183
X196776Y27183
X196776Y191750
X32209Y191750
M30
