G75*
%MOIN*%
%OFA0B0*%
%FSLAX25Y25*%
%IPPOS*%
%LPD*%
%AMOC8*
5,1,8,0,0,1.08239X$1,22.5*
%
%ADD10C,0.01000*%
%ADD11C,0.06500*%
%ADD12C,0.07400*%
%ADD13C,0.05200*%
%ADD14C,0.06000*%
%ADD15C,0.11811*%
%ADD16R,0.06500X0.06500*%
%ADD17C,0.00000*%
%ADD18R,0.08000X0.08000*%
%ADD19C,0.08000*%
%ADD20C,0.17000*%
%ADD21C,0.03200*%
%ADD22C,0.04000*%
D10*
X0020989Y0018574D02*
X0019143Y0021771D01*
X0018188Y0025337D01*
X0018067Y0027183D01*
X0018067Y0191750D01*
X0018188Y0193596D01*
X0019143Y0197162D01*
X0020989Y0200359D01*
X0023600Y0202970D01*
X0026797Y0204815D01*
X0030363Y0205771D01*
X0032209Y0205892D01*
X0196776Y0205892D01*
X0198621Y0205771D01*
X0202187Y0204815D01*
X0205385Y0202970D01*
X0207995Y0200359D01*
X0209841Y0197162D01*
X0210796Y0193596D01*
X0210917Y0191750D01*
X0210917Y0027183D01*
X0210796Y0025337D01*
X0209841Y0021771D01*
X0207995Y0018574D01*
X0205385Y0015964D01*
X0202187Y0014118D01*
X0198621Y0013162D01*
X0196776Y0013041D01*
X0032209Y0013041D01*
X0030363Y0013162D01*
X0026797Y0014118D01*
X0023600Y0015964D01*
X0020989Y0018574D01*
X0020726Y0019030D02*
X0208258Y0019030D01*
X0208834Y0020028D02*
X0199882Y0020028D01*
X0201193Y0020571D02*
X0198327Y0019384D01*
X0195224Y0019384D01*
X0192358Y0020571D01*
X0190164Y0022765D01*
X0188976Y0025632D01*
X0188976Y0028735D01*
X0190164Y0031601D01*
X0192358Y0033795D01*
X0195224Y0034982D01*
X0198327Y0034982D01*
X0201193Y0033795D01*
X0203387Y0031601D01*
X0204575Y0028735D01*
X0204575Y0025632D01*
X0203387Y0022765D01*
X0201193Y0020571D01*
X0201649Y0021027D02*
X0209411Y0021027D01*
X0209909Y0022025D02*
X0202647Y0022025D01*
X0203494Y0023024D02*
X0210176Y0023024D01*
X0210444Y0024022D02*
X0203908Y0024022D01*
X0204322Y0025021D02*
X0210711Y0025021D01*
X0210841Y0026019D02*
X0204575Y0026019D01*
X0204575Y0027018D02*
X0210906Y0027018D01*
X0210917Y0028016D02*
X0204575Y0028016D01*
X0204459Y0029015D02*
X0210917Y0029015D01*
X0210917Y0030013D02*
X0204045Y0030013D01*
X0203632Y0031012D02*
X0210917Y0031012D01*
X0210917Y0032010D02*
X0202978Y0032010D01*
X0201980Y0033009D02*
X0210917Y0033009D01*
X0210917Y0034007D02*
X0200681Y0034007D01*
X0212918Y0027183D02*
X0212913Y0026793D01*
X0212899Y0026403D01*
X0212876Y0026014D01*
X0212843Y0025625D01*
X0212800Y0025237D01*
X0212749Y0024851D01*
X0212688Y0024465D01*
X0212617Y0024082D01*
X0212538Y0023700D01*
X0212449Y0023320D01*
X0212351Y0022942D01*
X0212244Y0022567D01*
X0212128Y0022195D01*
X0212003Y0021825D01*
X0211869Y0021459D01*
X0211726Y0021096D01*
X0211575Y0020736D01*
X0211415Y0020381D01*
X0211246Y0020029D01*
X0211069Y0019681D01*
X0210884Y0019338D01*
X0210690Y0019000D01*
X0210488Y0018666D01*
X0210278Y0018337D01*
X0210061Y0018013D01*
X0209835Y0017695D01*
X0209602Y0017382D01*
X0209362Y0017075D01*
X0209114Y0016774D01*
X0208858Y0016479D01*
X0208596Y0016190D01*
X0208327Y0015908D01*
X0208051Y0015632D01*
X0207769Y0015363D01*
X0207480Y0015101D01*
X0207185Y0014845D01*
X0206884Y0014597D01*
X0206577Y0014357D01*
X0206264Y0014124D01*
X0205946Y0013898D01*
X0205622Y0013681D01*
X0205293Y0013471D01*
X0204959Y0013269D01*
X0204621Y0013075D01*
X0204278Y0012890D01*
X0203930Y0012713D01*
X0203578Y0012544D01*
X0203223Y0012384D01*
X0202863Y0012233D01*
X0202500Y0012090D01*
X0202134Y0011956D01*
X0201764Y0011831D01*
X0201392Y0011715D01*
X0201017Y0011608D01*
X0200639Y0011510D01*
X0200259Y0011421D01*
X0199877Y0011342D01*
X0199494Y0011271D01*
X0199108Y0011210D01*
X0198722Y0011159D01*
X0198334Y0011116D01*
X0197945Y0011083D01*
X0197556Y0011060D01*
X0197166Y0011046D01*
X0196776Y0011041D01*
X0032209Y0011041D01*
X0027099Y0014037D02*
X0201885Y0014037D01*
X0203777Y0015036D02*
X0025208Y0015036D01*
X0026797Y0014118D02*
X0026797Y0014118D01*
X0023529Y0016034D02*
X0205455Y0016034D01*
X0206453Y0017033D02*
X0022531Y0017033D01*
X0021532Y0018031D02*
X0207452Y0018031D01*
X0212917Y0027183D02*
X0212917Y0191750D01*
X0210916Y0191772D02*
X0204575Y0191772D01*
X0204575Y0190773D02*
X0210917Y0190773D01*
X0210917Y0189775D02*
X0204399Y0189775D01*
X0204575Y0190199D02*
X0203387Y0187332D01*
X0201193Y0185138D01*
X0198327Y0183951D01*
X0195224Y0183951D01*
X0192358Y0185138D01*
X0190164Y0187332D01*
X0188976Y0190199D01*
X0188976Y0193301D01*
X0190164Y0196168D01*
X0192358Y0198362D01*
X0195224Y0199549D01*
X0198327Y0199549D01*
X0201193Y0198362D01*
X0203387Y0196168D01*
X0204575Y0193301D01*
X0204575Y0190199D01*
X0203986Y0188776D02*
X0210917Y0188776D01*
X0210917Y0187778D02*
X0203572Y0187778D01*
X0202835Y0186779D02*
X0210917Y0186779D01*
X0210917Y0185781D02*
X0201836Y0185781D01*
X0200334Y0184782D02*
X0210917Y0184782D01*
X0210917Y0183784D02*
X0135046Y0183784D01*
X0135046Y0184517D02*
X0134255Y0186428D01*
X0132792Y0187891D01*
X0130881Y0188682D01*
X0128812Y0188682D01*
X0126901Y0187891D01*
X0125438Y0186428D01*
X0124646Y0184517D01*
X0124646Y0182448D01*
X0125438Y0180537D01*
X0126784Y0179191D01*
X0125947Y0178354D01*
X0114100Y0178354D01*
X0112792Y0179662D01*
X0110881Y0180454D01*
X0108812Y0180454D01*
X0106901Y0179662D01*
X0105438Y0178200D01*
X0104925Y0176961D01*
X0104412Y0178200D01*
X0103104Y0179508D01*
X0103104Y0194898D01*
X0104491Y0196285D01*
X0105083Y0197713D01*
X0105674Y0196285D01*
X0107137Y0194822D01*
X0109048Y0194030D01*
X0111117Y0194030D01*
X0113028Y0194822D01*
X0114337Y0196130D01*
X0125593Y0196130D01*
X0126901Y0194822D01*
X0128812Y0194030D01*
X0130881Y0194030D01*
X0132792Y0194822D01*
X0134255Y0196285D01*
X0135046Y0198196D01*
X0135046Y0200265D01*
X0134255Y0202176D01*
X0132792Y0203639D01*
X0130881Y0204430D01*
X0128812Y0204430D01*
X0126901Y0203639D01*
X0125593Y0202330D01*
X0114337Y0202330D01*
X0113028Y0203639D01*
X0111117Y0204430D01*
X0109048Y0204430D01*
X0107137Y0203639D01*
X0105674Y0202176D01*
X0105083Y0200748D01*
X0104491Y0202176D01*
X0103028Y0203639D01*
X0101117Y0204430D01*
X0099048Y0204430D01*
X0097137Y0203639D01*
X0095674Y0202176D01*
X0095083Y0200748D01*
X0094491Y0202176D01*
X0093028Y0203639D01*
X0091117Y0204430D01*
X0089048Y0204430D01*
X0087137Y0203639D01*
X0085829Y0202330D01*
X0074258Y0202330D01*
X0072949Y0203639D01*
X0071038Y0204430D01*
X0068970Y0204430D01*
X0067058Y0203639D01*
X0065596Y0202176D01*
X0064804Y0200265D01*
X0064804Y0198196D01*
X0065596Y0196285D01*
X0067058Y0194822D01*
X0068970Y0194030D01*
X0071038Y0194030D01*
X0072949Y0194822D01*
X0074258Y0196130D01*
X0085829Y0196130D01*
X0087137Y0194822D01*
X0089048Y0194030D01*
X0091117Y0194030D01*
X0093028Y0194822D01*
X0094491Y0196285D01*
X0095083Y0197713D01*
X0095674Y0196285D01*
X0096904Y0195055D01*
X0096904Y0179508D01*
X0095596Y0178200D01*
X0095083Y0176961D01*
X0094570Y0178200D01*
X0093107Y0179662D01*
X0091196Y0180454D01*
X0089127Y0180454D01*
X0087216Y0179662D01*
X0085907Y0178354D01*
X0073274Y0178354D01*
X0072907Y0178721D01*
X0072907Y0179056D01*
X0072949Y0179074D01*
X0074412Y0180537D01*
X0075204Y0182448D01*
X0075204Y0184517D01*
X0074412Y0186428D01*
X0072949Y0187891D01*
X0071038Y0188682D01*
X0068970Y0188682D01*
X0067058Y0187891D01*
X0065596Y0186428D01*
X0064804Y0184517D01*
X0064804Y0182448D01*
X0065596Y0180537D01*
X0066707Y0179425D01*
X0066707Y0178721D01*
X0065399Y0177412D01*
X0064607Y0175501D01*
X0064607Y0173432D01*
X0065399Y0171521D01*
X0066862Y0170058D01*
X0068773Y0169267D01*
X0070841Y0169267D01*
X0072753Y0170058D01*
X0074215Y0171521D01*
X0074478Y0172154D01*
X0085907Y0172154D01*
X0087216Y0170846D01*
X0089127Y0170054D01*
X0091196Y0170054D01*
X0093107Y0170846D01*
X0094570Y0172308D01*
X0095083Y0173547D01*
X0095596Y0172308D01*
X0096904Y0171000D01*
X0096904Y0165070D01*
X0097376Y0163931D01*
X0100053Y0161254D01*
X0100925Y0160382D01*
X0102064Y0159910D01*
X0134468Y0159910D01*
X0135014Y0159364D01*
X0135014Y0146684D01*
X0134452Y0148042D01*
X0132989Y0149505D01*
X0131078Y0150297D01*
X0129009Y0150297D01*
X0127098Y0149505D01*
X0125635Y0148042D01*
X0124843Y0146131D01*
X0124843Y0144062D01*
X0125365Y0142802D01*
X0124366Y0141707D01*
X0121812Y0141707D01*
X0123605Y0143500D01*
X0124732Y0146222D01*
X0124732Y0149168D01*
X0123605Y0151890D01*
X0121522Y0153973D01*
X0118800Y0155101D01*
X0115854Y0155101D01*
X0113132Y0153973D01*
X0111049Y0151890D01*
X0109921Y0149168D01*
X0109921Y0146222D01*
X0111049Y0143500D01*
X0112842Y0141707D01*
X0087166Y0141707D01*
X0088959Y0143500D01*
X0090087Y0146222D01*
X0090087Y0149168D01*
X0088959Y0151890D01*
X0086876Y0153973D01*
X0084154Y0155101D01*
X0081208Y0155101D01*
X0078486Y0153973D01*
X0076403Y0151890D01*
X0075276Y0149168D01*
X0075276Y0146222D01*
X0076403Y0143500D01*
X0078196Y0141707D01*
X0074997Y0141707D01*
X0074499Y0142205D01*
X0075007Y0143432D01*
X0075007Y0145501D01*
X0074215Y0147412D01*
X0072753Y0148875D01*
X0070841Y0149667D01*
X0068773Y0149667D01*
X0066862Y0148875D01*
X0065399Y0147412D01*
X0064607Y0145501D01*
X0064607Y0143432D01*
X0065399Y0141521D01*
X0066758Y0140162D01*
X0066840Y0139964D01*
X0070580Y0136224D01*
X0071565Y0135240D01*
X0072851Y0134707D01*
X0091701Y0134707D01*
X0091701Y0126456D01*
X0091474Y0126682D01*
X0089728Y0127406D01*
X0087839Y0127406D01*
X0086093Y0126682D01*
X0084757Y0125346D01*
X0084033Y0123600D01*
X0084033Y0121711D01*
X0084757Y0119965D01*
X0085957Y0118765D01*
X0085956Y0118765D01*
X0070579Y0134142D01*
X0069439Y0134614D01*
X0049241Y0134614D01*
X0040033Y0143822D01*
X0040033Y0153638D01*
X0041460Y0155064D01*
X0042251Y0156976D01*
X0042251Y0159044D01*
X0041460Y0160956D01*
X0039997Y0162418D01*
X0038086Y0163210D01*
X0036017Y0163210D01*
X0034106Y0162418D01*
X0032643Y0160956D01*
X0031851Y0159044D01*
X0031851Y0156976D01*
X0032643Y0155064D01*
X0033833Y0153874D01*
X0033833Y0141921D01*
X0034305Y0140782D01*
X0035177Y0139909D01*
X0045329Y0129758D01*
X0046201Y0128886D01*
X0047340Y0128414D01*
X0067539Y0128414D01*
X0081101Y0114852D01*
X0081101Y0108650D01*
X0081725Y0107143D01*
X0082878Y0105989D01*
X0084385Y0105365D01*
X0086016Y0105365D01*
X0087523Y0105989D01*
X0088677Y0107143D01*
X0089301Y0108650D01*
X0089301Y0115481D01*
X0088677Y0116988D01*
X0087702Y0117962D01*
X0087839Y0117906D01*
X0089728Y0117906D01*
X0091474Y0118629D01*
X0091701Y0118855D01*
X0091701Y0116929D01*
X0091101Y0115481D01*
X0091101Y0108650D01*
X0091725Y0107143D01*
X0092101Y0106767D01*
X0092101Y0104452D01*
X0083209Y0095559D01*
X0082337Y0094687D01*
X0081865Y0093548D01*
X0081865Y0087127D01*
X0081725Y0086988D01*
X0081101Y0085481D01*
X0081101Y0078650D01*
X0081725Y0077143D01*
X0082878Y0075989D01*
X0084385Y0075365D01*
X0086016Y0075365D01*
X0087523Y0075989D01*
X0088677Y0077143D01*
X0089301Y0078650D01*
X0089301Y0085481D01*
X0088677Y0086988D01*
X0088065Y0087600D01*
X0088065Y0091647D01*
X0097829Y0101411D01*
X0098301Y0102551D01*
X0098301Y0106767D01*
X0098677Y0107143D01*
X0099301Y0108650D01*
X0099301Y0115481D01*
X0098701Y0116929D01*
X0098701Y0134707D01*
X0125296Y0134707D01*
X0125373Y0134679D01*
X0125989Y0134707D01*
X0126606Y0134707D01*
X0126682Y0134738D01*
X0126764Y0134742D01*
X0127322Y0135004D01*
X0127892Y0135240D01*
X0127950Y0135298D01*
X0128025Y0135333D01*
X0128441Y0135788D01*
X0128877Y0136224D01*
X0128908Y0136300D01*
X0132574Y0140316D01*
X0132917Y0140659D01*
X0132989Y0140688D01*
X0134452Y0142151D01*
X0135014Y0143509D01*
X0135014Y0135160D01*
X0132893Y0133039D01*
X0118206Y0133039D01*
X0117067Y0132567D01*
X0113917Y0129418D01*
X0113045Y0128545D01*
X0112573Y0127406D01*
X0112573Y0125062D01*
X0112531Y0125145D01*
X0112092Y0125750D01*
X0111563Y0126279D01*
X0110958Y0126718D01*
X0110292Y0127058D01*
X0109581Y0127289D01*
X0108842Y0127406D01*
X0108657Y0127406D01*
X0108657Y0122845D01*
X0108280Y0122845D01*
X0108280Y0127406D01*
X0108095Y0127406D01*
X0107356Y0127289D01*
X0106645Y0127058D01*
X0105979Y0126718D01*
X0105374Y0126279D01*
X0104845Y0125750D01*
X0104406Y0125145D01*
X0104067Y0124479D01*
X0103835Y0123768D01*
X0103719Y0123029D01*
X0103719Y0122845D01*
X0108279Y0122845D01*
X0108279Y0122467D01*
X0103719Y0122467D01*
X0103719Y0122282D01*
X0103835Y0121543D01*
X0104067Y0120832D01*
X0104406Y0120166D01*
X0104845Y0119561D01*
X0105374Y0119033D01*
X0105803Y0118721D01*
X0105523Y0118765D01*
X0105501Y0118765D01*
X0105501Y0112365D01*
X0109301Y0112365D01*
X0109301Y0114988D01*
X0109200Y0115625D01*
X0109000Y0116239D01*
X0108707Y0116814D01*
X0108328Y0117336D01*
X0107872Y0117792D01*
X0107610Y0117982D01*
X0108095Y0117906D01*
X0108280Y0117906D01*
X0108280Y0122467D01*
X0108657Y0122467D01*
X0108657Y0117906D01*
X0108842Y0117906D01*
X0109581Y0118023D01*
X0110292Y0118254D01*
X0110958Y0118593D01*
X0111563Y0119033D01*
X0112092Y0119561D01*
X0112531Y0120166D01*
X0112573Y0120249D01*
X0112573Y0101302D01*
X0111240Y0099968D01*
X0100490Y0099968D01*
X0099350Y0099496D01*
X0093051Y0093197D01*
X0092179Y0092325D01*
X0091707Y0091186D01*
X0091707Y0086944D01*
X0091101Y0085481D01*
X0091101Y0078650D01*
X0091725Y0077143D01*
X0092878Y0075989D01*
X0094385Y0075365D01*
X0096016Y0075365D01*
X0097523Y0075989D01*
X0098677Y0077143D01*
X0099301Y0078650D01*
X0099301Y0085481D01*
X0098677Y0086988D01*
X0097907Y0087757D01*
X0097907Y0089285D01*
X0102390Y0093768D01*
X0112942Y0093768D01*
X0112838Y0093663D01*
X0112398Y0093059D01*
X0112059Y0092392D01*
X0111828Y0091681D01*
X0111711Y0090943D01*
X0111711Y0090758D01*
X0116272Y0090758D01*
X0116272Y0095319D01*
X0116087Y0095319D01*
X0115348Y0095202D01*
X0115190Y0095151D01*
X0118301Y0098262D01*
X0118773Y0099401D01*
X0118773Y0125505D01*
X0120107Y0126839D01*
X0134794Y0126839D01*
X0135933Y0127311D01*
X0136805Y0128183D01*
X0140742Y0132120D01*
X0141214Y0133259D01*
X0141214Y0170379D01*
X0142910Y0171082D01*
X0144373Y0172545D01*
X0145165Y0174456D01*
X0145165Y0176525D01*
X0144373Y0178436D01*
X0142910Y0179899D01*
X0140999Y0180690D01*
X0138930Y0180690D01*
X0137019Y0179899D01*
X0135556Y0178436D01*
X0134922Y0176906D01*
X0134452Y0178042D01*
X0133143Y0179350D01*
X0133143Y0179425D01*
X0134255Y0180537D01*
X0135046Y0182448D01*
X0135046Y0184517D01*
X0134936Y0184782D02*
X0193217Y0184782D01*
X0191715Y0185781D02*
X0134523Y0185781D01*
X0133903Y0186779D02*
X0190716Y0186779D01*
X0189979Y0187778D02*
X0132905Y0187778D01*
X0126788Y0187778D02*
X0103104Y0187778D01*
X0103104Y0188776D02*
X0189566Y0188776D01*
X0189152Y0189775D02*
X0103104Y0189775D01*
X0103104Y0190773D02*
X0188976Y0190773D01*
X0188976Y0191772D02*
X0103104Y0191772D01*
X0103104Y0192771D02*
X0188976Y0192771D01*
X0189170Y0193769D02*
X0103104Y0193769D01*
X0103104Y0194768D02*
X0107269Y0194768D01*
X0106193Y0195766D02*
X0103972Y0195766D01*
X0104690Y0196765D02*
X0105476Y0196765D01*
X0105087Y0200759D02*
X0105078Y0200759D01*
X0104665Y0201757D02*
X0105501Y0201757D01*
X0106254Y0202756D02*
X0103911Y0202756D01*
X0102750Y0203754D02*
X0107416Y0203754D01*
X0112750Y0203754D02*
X0127179Y0203754D01*
X0126018Y0202756D02*
X0113911Y0202756D01*
X0113972Y0195766D02*
X0125957Y0195766D01*
X0127033Y0194768D02*
X0112897Y0194768D01*
X0103104Y0186779D02*
X0125790Y0186779D01*
X0125170Y0185781D02*
X0103104Y0185781D01*
X0103104Y0184782D02*
X0124757Y0184782D01*
X0124646Y0183784D02*
X0103104Y0183784D01*
X0103104Y0182785D02*
X0124646Y0182785D01*
X0124920Y0181787D02*
X0103104Y0181787D01*
X0103104Y0180788D02*
X0125334Y0180788D01*
X0126185Y0179790D02*
X0112484Y0179790D01*
X0113663Y0178791D02*
X0126384Y0178791D01*
X0133508Y0179790D02*
X0136910Y0179790D01*
X0135912Y0178791D02*
X0133702Y0178791D01*
X0134555Y0177793D02*
X0135290Y0177793D01*
X0134359Y0180788D02*
X0210917Y0180788D01*
X0210917Y0179790D02*
X0183019Y0179790D01*
X0182910Y0179899D02*
X0180999Y0180690D01*
X0178930Y0180690D01*
X0177019Y0179899D01*
X0175711Y0178590D01*
X0169269Y0178590D01*
X0168130Y0178118D01*
X0164311Y0174299D01*
X0163439Y0173427D01*
X0162967Y0172288D01*
X0162967Y0166122D01*
X0161659Y0164814D01*
X0160867Y0162903D01*
X0160867Y0160834D01*
X0161659Y0158923D01*
X0163121Y0157460D01*
X0165033Y0156668D01*
X0166681Y0156668D01*
X0168969Y0154218D01*
X0168990Y0154167D01*
X0169389Y0153769D01*
X0169773Y0153357D01*
X0169823Y0153334D01*
X0169862Y0153295D01*
X0170383Y0153080D01*
X0170896Y0152846D01*
X0170951Y0152844D01*
X0171001Y0152823D01*
X0171565Y0152823D01*
X0172128Y0152804D01*
X0172180Y0152823D01*
X0188126Y0152823D01*
X0188126Y0151302D01*
X0189005Y0150423D01*
X0198247Y0150423D01*
X0199126Y0151302D01*
X0199126Y0152823D01*
X0199429Y0152823D01*
X0199975Y0152277D01*
X0199975Y0113036D01*
X0195936Y0113036D01*
X0195057Y0112157D01*
X0195057Y0104414D01*
X0195936Y0103536D01*
X0199975Y0103536D01*
X0199975Y0086976D01*
X0198732Y0086976D01*
X0198732Y0088497D01*
X0197854Y0089376D01*
X0188611Y0089376D01*
X0187732Y0088497D01*
X0187732Y0086976D01*
X0174273Y0086976D01*
X0172720Y0088886D01*
X0172842Y0089180D01*
X0172842Y0091249D01*
X0172050Y0093160D01*
X0170587Y0094623D01*
X0168676Y0095415D01*
X0166607Y0095415D01*
X0164696Y0094623D01*
X0163233Y0093160D01*
X0162442Y0091249D01*
X0162442Y0089180D01*
X0163233Y0087269D01*
X0164696Y0085806D01*
X0166607Y0085015D01*
X0167876Y0085015D01*
X0170109Y0082271D01*
X0170171Y0082120D01*
X0170495Y0081796D01*
X0170784Y0081441D01*
X0170928Y0081364D01*
X0171043Y0081248D01*
X0171466Y0081073D01*
X0171869Y0080855D01*
X0172032Y0080839D01*
X0172183Y0080776D01*
X0172640Y0080776D01*
X0173096Y0080729D01*
X0173252Y0080776D01*
X0187732Y0080776D01*
X0187732Y0079255D01*
X0188611Y0078376D01*
X0197854Y0078376D01*
X0198732Y0079255D01*
X0198732Y0080776D01*
X0199975Y0080776D01*
X0199975Y0059963D01*
X0194298Y0054287D01*
X0154273Y0053906D01*
X0153703Y0053917D01*
X0153658Y0053900D01*
X0153610Y0053899D01*
X0153085Y0053676D01*
X0152554Y0053469D01*
X0152519Y0053435D01*
X0152475Y0053416D01*
X0152076Y0053009D01*
X0143166Y0044456D01*
X0117198Y0044456D01*
X0117198Y0054571D01*
X0116726Y0055711D01*
X0108143Y0064294D01*
X0108143Y0067784D01*
X0112843Y0067784D01*
X0113770Y0066857D01*
X0115516Y0066134D01*
X0117405Y0066134D01*
X0119151Y0066857D01*
X0120487Y0068193D01*
X0121211Y0069939D01*
X0121211Y0071829D01*
X0120487Y0073575D01*
X0119151Y0074911D01*
X0117405Y0075634D01*
X0115516Y0075634D01*
X0113770Y0074911D01*
X0112843Y0073984D01*
X0108143Y0073984D01*
X0108143Y0076609D01*
X0108677Y0077143D01*
X0109301Y0078650D01*
X0109301Y0082081D01*
X0109561Y0082708D01*
X0109561Y0083942D01*
X0109301Y0084569D01*
X0109301Y0085481D01*
X0108677Y0086988D01*
X0107523Y0088141D01*
X0106016Y0088765D01*
X0104385Y0088765D01*
X0102878Y0088141D01*
X0101725Y0086988D01*
X0101101Y0085481D01*
X0101101Y0078650D01*
X0101725Y0077143D01*
X0101943Y0076924D01*
X0101943Y0074009D01*
X0101642Y0074310D01*
X0101037Y0074750D01*
X0100371Y0075089D01*
X0099660Y0075320D01*
X0098921Y0075437D01*
X0098736Y0075437D01*
X0098736Y0070876D01*
X0098358Y0070876D01*
X0098358Y0070498D01*
X0093797Y0070498D01*
X0093797Y0070313D01*
X0093914Y0069575D01*
X0094145Y0068864D01*
X0094485Y0068198D01*
X0094924Y0067593D01*
X0095226Y0067291D01*
X0082184Y0067291D01*
X0082889Y0067996D01*
X0083612Y0069742D01*
X0083612Y0071632D01*
X0082889Y0073378D01*
X0081553Y0074714D01*
X0080496Y0075152D01*
X0078735Y0077283D01*
X0079301Y0078650D01*
X0079301Y0085481D01*
X0078677Y0086988D01*
X0077523Y0088141D01*
X0076016Y0088765D01*
X0074385Y0088765D01*
X0072878Y0088141D01*
X0071725Y0086988D01*
X0071101Y0085481D01*
X0071101Y0078650D01*
X0071725Y0077143D01*
X0072014Y0076853D01*
X0071978Y0076470D01*
X0072022Y0076325D01*
X0072022Y0076173D01*
X0072202Y0075739D01*
X0072339Y0075291D01*
X0072436Y0075174D01*
X0072494Y0075033D01*
X0072826Y0074702D01*
X0074529Y0072639D01*
X0074112Y0071632D01*
X0074112Y0071075D01*
X0072125Y0073062D01*
X0069643Y0074090D01*
X0069943Y0108565D01*
X0070343Y0108965D01*
X0071101Y0108965D01*
X0071101Y0108650D01*
X0071725Y0107143D01*
X0072878Y0105989D01*
X0074385Y0105365D01*
X0076016Y0105365D01*
X0077523Y0105989D01*
X0078677Y0107143D01*
X0079301Y0108650D01*
X0079301Y0115481D01*
X0078677Y0116988D01*
X0077523Y0118141D01*
X0076016Y0118765D01*
X0074385Y0118765D01*
X0072878Y0118141D01*
X0071725Y0116988D01*
X0071101Y0115481D01*
X0071101Y0115165D01*
X0068442Y0115165D01*
X0067303Y0114693D01*
X0064672Y0112062D01*
X0064242Y0111639D01*
X0064236Y0111626D01*
X0064226Y0111616D01*
X0063996Y0111059D01*
X0063760Y0110504D01*
X0063760Y0110490D01*
X0063754Y0110477D01*
X0063754Y0109874D01*
X0063444Y0074159D01*
X0060796Y0073062D01*
X0057983Y0070249D01*
X0056461Y0066574D01*
X0056461Y0062596D01*
X0057983Y0058920D01*
X0060796Y0056107D01*
X0064471Y0054585D01*
X0068450Y0054585D01*
X0072125Y0056107D01*
X0074938Y0058920D01*
X0075837Y0061091D01*
X0079140Y0061091D01*
X0076487Y0058438D01*
X0074965Y0054763D01*
X0074965Y0050785D01*
X0076487Y0047109D01*
X0079300Y0044296D01*
X0082975Y0042774D01*
X0086954Y0042774D01*
X0090629Y0044296D01*
X0093442Y0047109D01*
X0094965Y0050785D01*
X0094965Y0054763D01*
X0093442Y0058438D01*
X0090789Y0061091D01*
X0102578Y0061091D01*
X0110998Y0052671D01*
X0110998Y0033169D01*
X0109926Y0032097D01*
X0109135Y0030186D01*
X0109135Y0028117D01*
X0109926Y0026206D01*
X0111389Y0024743D01*
X0113300Y0023952D01*
X0115369Y0023952D01*
X0117280Y0024743D01*
X0118743Y0026206D01*
X0119349Y0027669D01*
X0119516Y0027156D01*
X0119887Y0026426D01*
X0120368Y0025764D01*
X0120947Y0025185D01*
X0121609Y0024704D01*
X0122339Y0024333D01*
X0123117Y0024080D01*
X0123835Y0023966D01*
X0123835Y0028652D01*
X0124835Y0028652D01*
X0124835Y0029652D01*
X0129520Y0029652D01*
X0129407Y0030369D01*
X0129154Y0031148D01*
X0128782Y0031877D01*
X0128301Y0032539D01*
X0127722Y0033118D01*
X0127060Y0033599D01*
X0126331Y0033971D01*
X0125552Y0034224D01*
X0124835Y0034337D01*
X0124835Y0029652D01*
X0123835Y0029652D01*
X0123835Y0034337D01*
X0123117Y0034224D01*
X0122339Y0033971D01*
X0121609Y0033599D01*
X0120947Y0033118D01*
X0120368Y0032539D01*
X0119887Y0031877D01*
X0119516Y0031148D01*
X0119349Y0030635D01*
X0118743Y0032097D01*
X0117280Y0033560D01*
X0117198Y0033594D01*
X0117198Y0038256D01*
X0144382Y0038256D01*
X0144967Y0038244D01*
X0144997Y0038256D01*
X0145030Y0038256D01*
X0145570Y0038480D01*
X0146115Y0038693D01*
X0146139Y0038716D01*
X0146169Y0038728D01*
X0146583Y0039142D01*
X0155515Y0047717D01*
X0195609Y0048099D01*
X0196211Y0048099D01*
X0196225Y0048105D01*
X0196241Y0048105D01*
X0196794Y0048341D01*
X0197350Y0048571D01*
X0197361Y0048582D01*
X0197375Y0048588D01*
X0197797Y0049017D01*
X0204831Y0056051D01*
X0205703Y0056923D01*
X0206175Y0058063D01*
X0206175Y0154178D01*
X0205703Y0155317D01*
X0202469Y0158551D01*
X0201329Y0159023D01*
X0199126Y0159023D01*
X0199126Y0160545D01*
X0198247Y0161423D01*
X0189005Y0161423D01*
X0188126Y0160545D01*
X0188126Y0159023D01*
X0172965Y0159023D01*
X0171267Y0160842D01*
X0171267Y0162903D01*
X0170475Y0164814D01*
X0169167Y0166122D01*
X0169167Y0170387D01*
X0171170Y0172390D01*
X0175711Y0172390D01*
X0177019Y0171082D01*
X0178930Y0170290D01*
X0180999Y0170290D01*
X0182910Y0171082D01*
X0184373Y0172545D01*
X0185165Y0174456D01*
X0185165Y0176525D01*
X0184373Y0178436D01*
X0182910Y0179899D01*
X0184017Y0178791D02*
X0210917Y0178791D01*
X0210917Y0177793D02*
X0184639Y0177793D01*
X0185053Y0176794D02*
X0210917Y0176794D01*
X0210917Y0175796D02*
X0185165Y0175796D01*
X0185165Y0174797D02*
X0210917Y0174797D01*
X0210917Y0173799D02*
X0184892Y0173799D01*
X0184479Y0172800D02*
X0210917Y0172800D01*
X0210917Y0171802D02*
X0183630Y0171802D01*
X0182237Y0170803D02*
X0210917Y0170803D01*
X0210917Y0169805D02*
X0169167Y0169805D01*
X0169167Y0168806D02*
X0210917Y0168806D01*
X0210917Y0167808D02*
X0169167Y0167808D01*
X0169167Y0166809D02*
X0210917Y0166809D01*
X0210917Y0165811D02*
X0169478Y0165811D01*
X0170476Y0164812D02*
X0210917Y0164812D01*
X0210917Y0163814D02*
X0170890Y0163814D01*
X0171267Y0162815D02*
X0210917Y0162815D01*
X0210917Y0161817D02*
X0171267Y0161817D01*
X0171289Y0160818D02*
X0188399Y0160818D01*
X0188126Y0159820D02*
X0172221Y0159820D01*
X0167468Y0155826D02*
X0158048Y0155826D01*
X0158022Y0155852D02*
X0157449Y0156268D01*
X0156818Y0156590D01*
X0156144Y0156809D01*
X0155445Y0156919D01*
X0152591Y0156919D01*
X0152591Y0152919D01*
X0159567Y0152919D01*
X0159480Y0153473D01*
X0159261Y0154147D01*
X0158939Y0154778D01*
X0158523Y0155351D01*
X0158022Y0155852D01*
X0158904Y0154827D02*
X0168400Y0154827D01*
X0169329Y0153829D02*
X0159364Y0153829D01*
X0159567Y0151919D02*
X0152591Y0151919D01*
X0152591Y0152919D01*
X0151591Y0152919D01*
X0151591Y0156919D01*
X0148736Y0156919D01*
X0148037Y0156809D01*
X0147363Y0156590D01*
X0146732Y0156268D01*
X0146159Y0155852D01*
X0145658Y0155351D01*
X0145242Y0154778D01*
X0144920Y0154147D01*
X0144701Y0153473D01*
X0144614Y0152919D01*
X0151590Y0152919D01*
X0151590Y0151919D01*
X0144614Y0151919D01*
X0144701Y0151366D01*
X0144920Y0150692D01*
X0145242Y0150061D01*
X0145658Y0149488D01*
X0146159Y0148987D01*
X0146732Y0148571D01*
X0147363Y0148249D01*
X0148037Y0148030D01*
X0148736Y0147919D01*
X0151591Y0147919D01*
X0151591Y0151919D01*
X0152591Y0151919D01*
X0152591Y0147919D01*
X0155445Y0147919D01*
X0156144Y0148030D01*
X0156818Y0148249D01*
X0157449Y0148571D01*
X0158022Y0148987D01*
X0158523Y0149488D01*
X0158939Y0150061D01*
X0159261Y0150692D01*
X0159480Y0151366D01*
X0159567Y0151919D01*
X0159554Y0151832D02*
X0188126Y0151832D01*
X0188595Y0150833D02*
X0159307Y0150833D01*
X0158775Y0149835D02*
X0199975Y0149835D01*
X0199975Y0150833D02*
X0198657Y0150833D01*
X0199126Y0151832D02*
X0199975Y0151832D01*
X0199975Y0148836D02*
X0157814Y0148836D01*
X0156180Y0146839D02*
X0190589Y0146839D01*
X0190510Y0146806D02*
X0189223Y0145519D01*
X0158355Y0145519D01*
X0157640Y0146234D01*
X0155986Y0146919D01*
X0148195Y0146919D01*
X0146541Y0146234D01*
X0145276Y0144968D01*
X0144591Y0143315D01*
X0144591Y0141524D01*
X0145276Y0139870D01*
X0146541Y0138604D01*
X0148195Y0137919D01*
X0155986Y0137919D01*
X0157640Y0138604D01*
X0158355Y0139319D01*
X0163361Y0139319D01*
X0163361Y0136376D01*
X0163121Y0136277D01*
X0161659Y0134814D01*
X0160867Y0132903D01*
X0160867Y0130834D01*
X0161659Y0128923D01*
X0163121Y0127460D01*
X0165033Y0126668D01*
X0167101Y0126668D01*
X0169012Y0127460D01*
X0170475Y0128923D01*
X0171267Y0130834D01*
X0171267Y0132903D01*
X0170475Y0134814D01*
X0169561Y0135728D01*
X0169561Y0139319D01*
X0188843Y0139319D01*
X0188963Y0139028D01*
X0190510Y0137481D01*
X0192532Y0136644D01*
X0194720Y0136644D01*
X0196741Y0137481D01*
X0198289Y0139028D01*
X0199126Y0141050D01*
X0199126Y0143238D01*
X0198289Y0145259D01*
X0196741Y0146806D01*
X0194720Y0147644D01*
X0192532Y0147644D01*
X0190510Y0146806D01*
X0189544Y0145840D02*
X0158033Y0145840D01*
X0152591Y0148836D02*
X0151591Y0148836D01*
X0151591Y0149835D02*
X0152591Y0149835D01*
X0152591Y0150833D02*
X0151591Y0150833D01*
X0151591Y0151832D02*
X0152591Y0151832D01*
X0152591Y0152830D02*
X0170985Y0152830D01*
X0164656Y0156824D02*
X0156046Y0156824D01*
X0152591Y0156824D02*
X0151591Y0156824D01*
X0151591Y0155826D02*
X0152591Y0155826D01*
X0152591Y0154827D02*
X0151591Y0154827D01*
X0151591Y0153829D02*
X0152591Y0153829D01*
X0151590Y0152830D02*
X0141214Y0152830D01*
X0141214Y0151832D02*
X0144628Y0151832D01*
X0144874Y0150833D02*
X0141214Y0150833D01*
X0141214Y0149835D02*
X0145406Y0149835D01*
X0146367Y0148836D02*
X0141214Y0148836D01*
X0141214Y0147838D02*
X0199975Y0147838D01*
X0199975Y0146839D02*
X0196663Y0146839D01*
X0197707Y0145840D02*
X0199975Y0145840D01*
X0199975Y0144842D02*
X0198462Y0144842D01*
X0198875Y0143843D02*
X0199975Y0143843D01*
X0199975Y0142845D02*
X0199126Y0142845D01*
X0199126Y0141846D02*
X0199975Y0141846D01*
X0199975Y0140848D02*
X0199042Y0140848D01*
X0198629Y0139849D02*
X0199975Y0139849D01*
X0199975Y0138851D02*
X0198111Y0138851D01*
X0197113Y0137852D02*
X0199975Y0137852D01*
X0199975Y0136854D02*
X0195227Y0136854D01*
X0192025Y0136854D02*
X0169561Y0136854D01*
X0169561Y0137852D02*
X0190139Y0137852D01*
X0189141Y0138851D02*
X0169561Y0138851D01*
X0169561Y0135855D02*
X0199975Y0135855D01*
X0199975Y0134857D02*
X0170432Y0134857D01*
X0170871Y0133858D02*
X0199975Y0133858D01*
X0199975Y0132860D02*
X0171267Y0132860D01*
X0171267Y0131861D02*
X0199975Y0131861D01*
X0199975Y0130863D02*
X0171267Y0130863D01*
X0170865Y0129864D02*
X0199975Y0129864D01*
X0199975Y0128866D02*
X0170418Y0128866D01*
X0169420Y0127867D02*
X0199975Y0127867D01*
X0199975Y0126869D02*
X0167585Y0126869D01*
X0164548Y0126869D02*
X0155191Y0126869D01*
X0155191Y0127867D02*
X0162714Y0127867D01*
X0161715Y0128866D02*
X0157901Y0128866D01*
X0157640Y0128604D02*
X0158905Y0129870D01*
X0159591Y0131524D01*
X0159591Y0133315D01*
X0158905Y0134968D01*
X0157640Y0136234D01*
X0155986Y0136919D01*
X0148195Y0136919D01*
X0146541Y0136234D01*
X0145276Y0134968D01*
X0144591Y0133315D01*
X0144591Y0131524D01*
X0145276Y0129870D01*
X0146541Y0128604D01*
X0148195Y0127919D01*
X0148991Y0127919D01*
X0148991Y0125908D01*
X0145885Y0122803D01*
X0136096Y0122803D01*
X0135948Y0123160D01*
X0134485Y0124623D01*
X0132574Y0125415D01*
X0130505Y0125415D01*
X0128594Y0124623D01*
X0127131Y0123160D01*
X0126339Y0121249D01*
X0126339Y0119180D01*
X0127131Y0117269D01*
X0128594Y0115806D01*
X0130505Y0115015D01*
X0132574Y0115015D01*
X0134485Y0115806D01*
X0135281Y0116603D01*
X0147786Y0116603D01*
X0148925Y0117075D01*
X0154719Y0122868D01*
X0155191Y0124008D01*
X0155191Y0127919D01*
X0155986Y0127919D01*
X0157640Y0128604D01*
X0158899Y0129864D02*
X0161269Y0129864D01*
X0160867Y0130863D02*
X0159317Y0130863D01*
X0159591Y0131861D02*
X0160867Y0131861D01*
X0160867Y0132860D02*
X0159591Y0132860D01*
X0159365Y0133858D02*
X0161263Y0133858D01*
X0161702Y0134857D02*
X0158952Y0134857D01*
X0158019Y0135855D02*
X0162700Y0135855D01*
X0163361Y0136854D02*
X0156144Y0136854D01*
X0157886Y0138851D02*
X0163361Y0138851D01*
X0163361Y0137852D02*
X0141214Y0137852D01*
X0141214Y0136854D02*
X0148037Y0136854D01*
X0146163Y0135855D02*
X0141214Y0135855D01*
X0141214Y0134857D02*
X0145229Y0134857D01*
X0144816Y0133858D02*
X0141214Y0133858D01*
X0141049Y0132860D02*
X0144591Y0132860D01*
X0144591Y0131861D02*
X0140483Y0131861D01*
X0139485Y0130863D02*
X0144865Y0130863D01*
X0145282Y0129864D02*
X0138486Y0129864D01*
X0137488Y0128866D02*
X0146280Y0128866D01*
X0148991Y0127867D02*
X0136489Y0127867D01*
X0134865Y0126869D02*
X0148991Y0126869D01*
X0148953Y0125870D02*
X0119138Y0125870D01*
X0118773Y0124872D02*
X0129194Y0124872D01*
X0127844Y0123873D02*
X0118773Y0123873D01*
X0118773Y0122875D02*
X0127013Y0122875D01*
X0126599Y0121876D02*
X0118773Y0121876D01*
X0118773Y0120878D02*
X0126339Y0120878D01*
X0126339Y0119879D02*
X0118773Y0119879D01*
X0118773Y0118881D02*
X0126463Y0118881D01*
X0126877Y0117882D02*
X0118773Y0117882D01*
X0118773Y0116884D02*
X0127516Y0116884D01*
X0128515Y0115885D02*
X0118773Y0115885D01*
X0118773Y0114887D02*
X0199975Y0114887D01*
X0199975Y0115885D02*
X0134564Y0115885D01*
X0136066Y0122875D02*
X0145957Y0122875D01*
X0146956Y0123873D02*
X0135235Y0123873D01*
X0133884Y0124872D02*
X0147954Y0124872D01*
X0152728Y0120878D02*
X0199975Y0120878D01*
X0199975Y0121876D02*
X0153727Y0121876D01*
X0154721Y0122875D02*
X0199975Y0122875D01*
X0199975Y0123873D02*
X0155135Y0123873D01*
X0155191Y0124872D02*
X0199975Y0124872D01*
X0199975Y0125870D02*
X0155191Y0125870D01*
X0151730Y0119879D02*
X0199975Y0119879D01*
X0199975Y0118881D02*
X0150731Y0118881D01*
X0149733Y0117882D02*
X0199975Y0117882D01*
X0199975Y0116884D02*
X0148464Y0116884D01*
X0133712Y0133858D02*
X0098701Y0133858D01*
X0098701Y0132860D02*
X0117773Y0132860D01*
X0116361Y0131861D02*
X0098701Y0131861D01*
X0098701Y0130863D02*
X0115362Y0130863D01*
X0114364Y0129864D02*
X0098701Y0129864D01*
X0098701Y0128866D02*
X0113365Y0128866D01*
X0112764Y0127867D02*
X0098701Y0127867D01*
X0098701Y0126869D02*
X0106275Y0126869D01*
X0104966Y0125870D02*
X0098701Y0125870D01*
X0098701Y0124872D02*
X0104267Y0124872D01*
X0103870Y0123873D02*
X0098701Y0123873D01*
X0098701Y0122875D02*
X0103719Y0122875D01*
X0103783Y0121876D02*
X0098701Y0121876D01*
X0098701Y0120878D02*
X0104052Y0120878D01*
X0104614Y0119879D02*
X0098701Y0119879D01*
X0098701Y0118881D02*
X0105583Y0118881D01*
X0104901Y0118765D02*
X0104878Y0118765D01*
X0104241Y0118664D01*
X0103627Y0118465D01*
X0103052Y0118172D01*
X0102530Y0117792D01*
X0102073Y0117336D01*
X0101694Y0116814D01*
X0101401Y0116239D01*
X0101202Y0115625D01*
X0101101Y0114988D01*
X0101101Y0112365D01*
X0104901Y0112365D01*
X0104901Y0118765D01*
X0104901Y0117882D02*
X0105501Y0117882D01*
X0105501Y0116884D02*
X0104901Y0116884D01*
X0104901Y0115885D02*
X0105501Y0115885D01*
X0105501Y0114887D02*
X0104901Y0114887D01*
X0104901Y0113888D02*
X0105501Y0113888D01*
X0105501Y0112890D02*
X0104901Y0112890D01*
X0104901Y0112365D02*
X0105501Y0112365D01*
X0105501Y0111765D01*
X0109301Y0111765D01*
X0109301Y0109142D01*
X0109200Y0108505D01*
X0109000Y0107891D01*
X0108707Y0107316D01*
X0108328Y0106794D01*
X0107872Y0106338D01*
X0107350Y0105958D01*
X0106775Y0105665D01*
X0106161Y0105466D01*
X0105523Y0105365D01*
X0105501Y0105365D01*
X0105501Y0111765D01*
X0104901Y0111765D01*
X0104901Y0105365D01*
X0104878Y0105365D01*
X0104241Y0105466D01*
X0103627Y0105665D01*
X0103052Y0105958D01*
X0102530Y0106338D01*
X0102073Y0106794D01*
X0101694Y0107316D01*
X0101401Y0107891D01*
X0101202Y0108505D01*
X0101101Y0109142D01*
X0101101Y0111765D01*
X0104901Y0111765D01*
X0104901Y0112365D01*
X0104901Y0111891D02*
X0099301Y0111891D01*
X0099301Y0110893D02*
X0101101Y0110893D01*
X0101101Y0109894D02*
X0099301Y0109894D01*
X0099301Y0108896D02*
X0101140Y0108896D01*
X0101399Y0107897D02*
X0098989Y0107897D01*
X0098433Y0106899D02*
X0101998Y0106899D01*
X0103167Y0105900D02*
X0098301Y0105900D01*
X0098301Y0104902D02*
X0112573Y0104902D01*
X0112573Y0105900D02*
X0107235Y0105900D01*
X0108404Y0106899D02*
X0112573Y0106899D01*
X0112573Y0107897D02*
X0109002Y0107897D01*
X0109262Y0108896D02*
X0112573Y0108896D01*
X0112573Y0109894D02*
X0109301Y0109894D01*
X0109301Y0110893D02*
X0112573Y0110893D01*
X0112573Y0111891D02*
X0105501Y0111891D01*
X0105501Y0110893D02*
X0104901Y0110893D01*
X0104901Y0109894D02*
X0105501Y0109894D01*
X0105501Y0108896D02*
X0104901Y0108896D01*
X0104901Y0107897D02*
X0105501Y0107897D01*
X0105501Y0106899D02*
X0104901Y0106899D01*
X0104901Y0105900D02*
X0105501Y0105900D01*
X0112573Y0103903D02*
X0098301Y0103903D01*
X0098301Y0102905D02*
X0112573Y0102905D01*
X0112573Y0101906D02*
X0098034Y0101906D01*
X0097325Y0100907D02*
X0112179Y0100907D01*
X0116953Y0096913D02*
X0199975Y0096913D01*
X0199975Y0095915D02*
X0115954Y0095915D01*
X0116650Y0095319D02*
X0116650Y0090758D01*
X0121211Y0090758D01*
X0121211Y0090943D01*
X0121094Y0091681D01*
X0120863Y0092392D01*
X0120523Y0093059D01*
X0120084Y0093663D01*
X0119555Y0094192D01*
X0118950Y0094632D01*
X0118284Y0094971D01*
X0117573Y0095202D01*
X0116834Y0095319D01*
X0116650Y0095319D01*
X0116650Y0094916D02*
X0116272Y0094916D01*
X0116272Y0093918D02*
X0116650Y0093918D01*
X0116650Y0092919D02*
X0116272Y0092919D01*
X0116272Y0091921D02*
X0116650Y0091921D01*
X0116650Y0090922D02*
X0116272Y0090922D01*
X0116272Y0090758D02*
X0116650Y0090758D01*
X0116650Y0090380D01*
X0121211Y0090380D01*
X0121211Y0090195D01*
X0121094Y0089457D01*
X0120863Y0088746D01*
X0120523Y0088079D01*
X0120084Y0087475D01*
X0119555Y0086946D01*
X0118950Y0086506D01*
X0118284Y0086167D01*
X0117573Y0085936D01*
X0116834Y0085819D01*
X0116650Y0085819D01*
X0116650Y0090380D01*
X0116272Y0090380D01*
X0116272Y0085819D01*
X0116087Y0085819D01*
X0115348Y0085936D01*
X0114637Y0086167D01*
X0113971Y0086506D01*
X0113366Y0086946D01*
X0112838Y0087475D01*
X0112398Y0088079D01*
X0112059Y0088746D01*
X0111828Y0089457D01*
X0111711Y0090195D01*
X0111711Y0090380D01*
X0116272Y0090380D01*
X0116272Y0090758D01*
X0116272Y0089924D02*
X0116650Y0089924D01*
X0116650Y0088925D02*
X0116272Y0088925D01*
X0116272Y0087927D02*
X0116650Y0087927D01*
X0116650Y0086928D02*
X0116272Y0086928D01*
X0116272Y0085930D02*
X0116650Y0085930D01*
X0117534Y0085930D02*
X0164573Y0085930D01*
X0163574Y0086928D02*
X0157039Y0086928D01*
X0157204Y0087048D02*
X0157660Y0087504D01*
X0158040Y0088026D01*
X0158333Y0088601D01*
X0158532Y0089215D01*
X0158633Y0089853D01*
X0158633Y0089875D01*
X0152233Y0089875D01*
X0152233Y0086075D01*
X0154856Y0086075D01*
X0155493Y0086176D01*
X0156107Y0086376D01*
X0156682Y0086669D01*
X0157204Y0087048D01*
X0157967Y0087927D02*
X0162961Y0087927D01*
X0162547Y0088925D02*
X0158438Y0088925D01*
X0158633Y0090475D02*
X0158633Y0090498D01*
X0158532Y0091135D01*
X0158333Y0091749D01*
X0158040Y0092324D01*
X0157660Y0092846D01*
X0157204Y0093303D01*
X0156682Y0093682D01*
X0156107Y0093975D01*
X0155493Y0094174D01*
X0154856Y0094275D01*
X0152233Y0094275D01*
X0152233Y0090475D01*
X0158633Y0090475D01*
X0158566Y0090922D02*
X0162442Y0090922D01*
X0162442Y0089924D02*
X0152233Y0089924D01*
X0152233Y0089875D02*
X0152233Y0090475D01*
X0151633Y0090475D01*
X0151633Y0089875D01*
X0152233Y0089875D01*
X0151633Y0089875D02*
X0151633Y0086075D01*
X0149010Y0086075D01*
X0148373Y0086176D01*
X0147759Y0086376D01*
X0147184Y0086669D01*
X0146662Y0087048D01*
X0146206Y0087504D01*
X0145826Y0088026D01*
X0145533Y0088601D01*
X0145334Y0089215D01*
X0145233Y0089853D01*
X0145233Y0089875D01*
X0151633Y0089875D01*
X0151633Y0089924D02*
X0121168Y0089924D01*
X0121211Y0090922D02*
X0145300Y0090922D01*
X0145334Y0091135D02*
X0145233Y0090498D01*
X0145233Y0090475D01*
X0151633Y0090475D01*
X0151633Y0094275D01*
X0149010Y0094275D01*
X0148373Y0094174D01*
X0147759Y0093975D01*
X0147184Y0093682D01*
X0146662Y0093303D01*
X0146206Y0092846D01*
X0145826Y0092324D01*
X0145533Y0091749D01*
X0145334Y0091135D01*
X0145621Y0091921D02*
X0121016Y0091921D01*
X0120594Y0092919D02*
X0146279Y0092919D01*
X0147647Y0093918D02*
X0119829Y0093918D01*
X0118391Y0094916D02*
X0165404Y0094916D01*
X0163991Y0093918D02*
X0156219Y0093918D01*
X0157587Y0092919D02*
X0163134Y0092919D01*
X0162720Y0091921D02*
X0158245Y0091921D01*
X0152233Y0091921D02*
X0151633Y0091921D01*
X0151633Y0092919D02*
X0152233Y0092919D01*
X0152233Y0093918D02*
X0151633Y0093918D01*
X0151633Y0090922D02*
X0152233Y0090922D01*
X0152233Y0088925D02*
X0151633Y0088925D01*
X0151633Y0087927D02*
X0152233Y0087927D01*
X0152233Y0086928D02*
X0151633Y0086928D01*
X0148518Y0084275D02*
X0147011Y0083651D01*
X0146674Y0083315D01*
X0135793Y0083315D01*
X0134485Y0084623D01*
X0132574Y0085415D01*
X0130505Y0085415D01*
X0128594Y0084623D01*
X0127131Y0083160D01*
X0126339Y0081249D01*
X0126339Y0079180D01*
X0127131Y0077269D01*
X0128594Y0075806D01*
X0130505Y0075015D01*
X0132574Y0075015D01*
X0134485Y0075806D01*
X0135793Y0077115D01*
X0146595Y0077115D01*
X0147011Y0076700D01*
X0148518Y0076075D01*
X0155349Y0076075D01*
X0156856Y0076700D01*
X0158009Y0077853D01*
X0158633Y0079360D01*
X0158633Y0080991D01*
X0158009Y0082498D01*
X0156856Y0083651D01*
X0155349Y0084275D01*
X0148518Y0084275D01*
X0147691Y0083933D02*
X0135175Y0083933D01*
X0133741Y0084931D02*
X0167944Y0084931D01*
X0168757Y0083933D02*
X0156176Y0083933D01*
X0157572Y0082934D02*
X0169569Y0082934D01*
X0170355Y0081936D02*
X0158242Y0081936D01*
X0158633Y0080937D02*
X0171717Y0080937D01*
X0173500Y0087927D02*
X0187732Y0087927D01*
X0188160Y0088925D02*
X0172736Y0088925D01*
X0172842Y0089924D02*
X0199975Y0089924D01*
X0199975Y0090922D02*
X0172842Y0090922D01*
X0172563Y0091921D02*
X0199975Y0091921D01*
X0199975Y0092919D02*
X0172150Y0092919D01*
X0171292Y0093918D02*
X0199975Y0093918D01*
X0199975Y0094916D02*
X0169879Y0094916D01*
X0158633Y0079939D02*
X0187732Y0079939D01*
X0188047Y0078940D02*
X0158459Y0078940D01*
X0158046Y0077942D02*
X0199975Y0077942D01*
X0199975Y0078940D02*
X0198418Y0078940D01*
X0198732Y0079939D02*
X0199975Y0079939D01*
X0199975Y0076943D02*
X0157099Y0076943D01*
X0156140Y0073948D02*
X0189305Y0073948D01*
X0188633Y0073275D02*
X0190117Y0074759D01*
X0192138Y0075597D01*
X0194326Y0075597D01*
X0196348Y0074759D01*
X0197895Y0073212D01*
X0198732Y0071191D01*
X0198732Y0069003D01*
X0197895Y0066981D01*
X0196348Y0065434D01*
X0194326Y0064597D01*
X0192138Y0064597D01*
X0190117Y0065434D01*
X0188570Y0066981D01*
X0188531Y0067075D01*
X0170742Y0067075D01*
X0170742Y0064469D01*
X0172050Y0063160D01*
X0172842Y0061249D01*
X0172842Y0059180D01*
X0172050Y0057269D01*
X0170587Y0055806D01*
X0168676Y0055015D01*
X0166607Y0055015D01*
X0164696Y0055806D01*
X0163233Y0057269D01*
X0162442Y0059180D01*
X0162442Y0061249D01*
X0163233Y0063160D01*
X0164542Y0064469D01*
X0164542Y0067075D01*
X0157231Y0067075D01*
X0156856Y0066700D01*
X0155349Y0066075D01*
X0148518Y0066075D01*
X0147011Y0066700D01*
X0145857Y0067853D01*
X0145233Y0069360D01*
X0145233Y0070991D01*
X0145857Y0072498D01*
X0147011Y0073651D01*
X0148518Y0074275D01*
X0155349Y0074275D01*
X0156856Y0073651D01*
X0157231Y0073275D01*
X0188633Y0073275D01*
X0190568Y0074946D02*
X0119066Y0074946D01*
X0120114Y0073948D02*
X0147727Y0073948D01*
X0146309Y0072949D02*
X0120747Y0072949D01*
X0121160Y0071951D02*
X0145631Y0071951D01*
X0145233Y0070952D02*
X0121211Y0070952D01*
X0121211Y0069954D02*
X0145233Y0069954D01*
X0145401Y0068955D02*
X0120803Y0068955D01*
X0120251Y0067957D02*
X0145814Y0067957D01*
X0146752Y0066958D02*
X0119252Y0066958D01*
X0113669Y0066958D02*
X0108143Y0066958D01*
X0108143Y0065960D02*
X0164542Y0065960D01*
X0164542Y0066958D02*
X0157114Y0066958D01*
X0163152Y0062964D02*
X0109473Y0062964D01*
X0108475Y0063963D02*
X0164036Y0063963D01*
X0164542Y0064961D02*
X0108143Y0064961D01*
X0110472Y0061966D02*
X0162739Y0061966D01*
X0162442Y0060967D02*
X0111470Y0060967D01*
X0112469Y0059969D02*
X0162442Y0059969D01*
X0162529Y0058970D02*
X0113467Y0058970D01*
X0114466Y0057971D02*
X0162942Y0057971D01*
X0163530Y0056973D02*
X0115464Y0056973D01*
X0116463Y0055974D02*
X0164528Y0055974D01*
X0161825Y0053977D02*
X0117198Y0053977D01*
X0117198Y0052979D02*
X0152044Y0052979D01*
X0151004Y0051980D02*
X0117198Y0051980D01*
X0117198Y0050982D02*
X0149964Y0050982D01*
X0148923Y0049983D02*
X0117198Y0049983D01*
X0117198Y0048985D02*
X0147883Y0048985D01*
X0146843Y0047986D02*
X0117198Y0047986D01*
X0117198Y0046988D02*
X0145803Y0046988D01*
X0144763Y0045989D02*
X0117198Y0045989D01*
X0117198Y0044991D02*
X0143723Y0044991D01*
X0148515Y0040997D02*
X0210917Y0040997D01*
X0210917Y0041995D02*
X0149555Y0041995D01*
X0150595Y0042994D02*
X0210917Y0042994D01*
X0210917Y0043992D02*
X0151635Y0043992D01*
X0152676Y0044991D02*
X0210917Y0044991D01*
X0210917Y0045989D02*
X0153716Y0045989D01*
X0154756Y0046988D02*
X0210917Y0046988D01*
X0210917Y0047986D02*
X0183790Y0047986D01*
X0194987Y0054976D02*
X0117031Y0054976D01*
X0110690Y0052979D02*
X0094965Y0052979D01*
X0094965Y0053977D02*
X0109692Y0053977D01*
X0108693Y0054976D02*
X0094876Y0054976D01*
X0094463Y0055974D02*
X0107695Y0055974D01*
X0106696Y0056973D02*
X0094049Y0056973D01*
X0093636Y0057971D02*
X0105698Y0057971D01*
X0104699Y0058970D02*
X0092910Y0058970D01*
X0091912Y0059969D02*
X0103701Y0059969D01*
X0102702Y0060967D02*
X0090913Y0060967D01*
X0094660Y0067957D02*
X0082849Y0067957D01*
X0083286Y0068955D02*
X0094116Y0068955D01*
X0093854Y0069954D02*
X0083612Y0069954D01*
X0083612Y0070952D02*
X0093797Y0070952D01*
X0093797Y0070876D02*
X0098358Y0070876D01*
X0098358Y0075437D01*
X0098173Y0075437D01*
X0097435Y0075320D01*
X0096724Y0075089D01*
X0096058Y0074750D01*
X0095453Y0074310D01*
X0094924Y0073782D01*
X0094485Y0073177D01*
X0094145Y0072510D01*
X0093914Y0071799D01*
X0093797Y0071061D01*
X0093797Y0070876D01*
X0093963Y0071951D02*
X0083480Y0071951D01*
X0083067Y0072949D02*
X0094369Y0072949D01*
X0095090Y0073948D02*
X0082319Y0073948D01*
X0080992Y0074946D02*
X0096443Y0074946D01*
X0097416Y0075945D02*
X0101943Y0075945D01*
X0101924Y0076943D02*
X0098477Y0076943D01*
X0099008Y0077942D02*
X0101394Y0077942D01*
X0101101Y0078940D02*
X0099301Y0078940D01*
X0099301Y0079939D02*
X0101101Y0079939D01*
X0101101Y0080937D02*
X0099301Y0080937D01*
X0099301Y0081936D02*
X0101101Y0081936D01*
X0101101Y0082934D02*
X0099301Y0082934D01*
X0099301Y0083933D02*
X0101101Y0083933D01*
X0101101Y0084931D02*
X0099301Y0084931D01*
X0099115Y0085930D02*
X0101287Y0085930D01*
X0101700Y0086928D02*
X0098701Y0086928D01*
X0097907Y0087927D02*
X0102664Y0087927D01*
X0099544Y0090922D02*
X0111711Y0090922D01*
X0111754Y0089924D02*
X0098546Y0089924D01*
X0097907Y0088925D02*
X0112000Y0088925D01*
X0112509Y0087927D02*
X0107737Y0087927D01*
X0108701Y0086928D02*
X0113390Y0086928D01*
X0115387Y0085930D02*
X0109115Y0085930D01*
X0109301Y0084931D02*
X0129338Y0084931D01*
X0127904Y0083933D02*
X0109561Y0083933D01*
X0109561Y0082934D02*
X0127037Y0082934D01*
X0126624Y0081936D02*
X0109301Y0081936D01*
X0109301Y0080937D02*
X0126339Y0080937D01*
X0126339Y0079939D02*
X0109301Y0079939D01*
X0109301Y0078940D02*
X0126439Y0078940D01*
X0126852Y0077942D02*
X0109008Y0077942D01*
X0108477Y0076943D02*
X0127457Y0076943D01*
X0128455Y0075945D02*
X0108143Y0075945D01*
X0108143Y0074946D02*
X0113855Y0074946D01*
X0101943Y0074946D02*
X0100651Y0074946D01*
X0098736Y0074946D02*
X0098358Y0074946D01*
X0098358Y0073948D02*
X0098736Y0073948D01*
X0098736Y0072949D02*
X0098358Y0072949D01*
X0098358Y0071951D02*
X0098736Y0071951D01*
X0098736Y0070952D02*
X0098358Y0070952D01*
X0092986Y0075945D02*
X0087416Y0075945D01*
X0088477Y0076943D02*
X0091924Y0076943D01*
X0091394Y0077942D02*
X0089008Y0077942D01*
X0089301Y0078940D02*
X0091101Y0078940D01*
X0091101Y0079939D02*
X0089301Y0079939D01*
X0089301Y0080937D02*
X0091101Y0080937D01*
X0091101Y0081936D02*
X0089301Y0081936D01*
X0089301Y0082934D02*
X0091101Y0082934D01*
X0091101Y0083933D02*
X0089301Y0083933D01*
X0089301Y0084931D02*
X0091101Y0084931D01*
X0091287Y0085930D02*
X0089115Y0085930D01*
X0088701Y0086928D02*
X0091700Y0086928D01*
X0091707Y0087927D02*
X0088065Y0087927D01*
X0088065Y0088925D02*
X0091707Y0088925D01*
X0091707Y0089924D02*
X0088065Y0089924D01*
X0088065Y0090922D02*
X0091707Y0090922D01*
X0092012Y0091921D02*
X0088338Y0091921D01*
X0089337Y0092919D02*
X0092773Y0092919D01*
X0093772Y0093918D02*
X0090335Y0093918D01*
X0091334Y0094916D02*
X0094770Y0094916D01*
X0095769Y0095915D02*
X0092332Y0095915D01*
X0093331Y0096913D02*
X0096767Y0096913D01*
X0097766Y0097912D02*
X0094329Y0097912D01*
X0095328Y0098910D02*
X0098764Y0098910D01*
X0100347Y0099909D02*
X0096326Y0099909D01*
X0091552Y0103903D02*
X0069903Y0103903D01*
X0069894Y0102905D02*
X0090554Y0102905D01*
X0089555Y0101906D02*
X0069885Y0101906D01*
X0069877Y0100907D02*
X0088557Y0100907D01*
X0087558Y0099909D02*
X0069868Y0099909D01*
X0069859Y0098910D02*
X0086560Y0098910D01*
X0085561Y0097912D02*
X0069851Y0097912D01*
X0069842Y0096913D02*
X0084563Y0096913D01*
X0083564Y0095915D02*
X0069833Y0095915D01*
X0069824Y0094916D02*
X0082566Y0094916D01*
X0082018Y0093918D02*
X0069816Y0093918D01*
X0069807Y0092919D02*
X0081865Y0092919D01*
X0081865Y0091921D02*
X0069798Y0091921D01*
X0069790Y0090922D02*
X0081865Y0090922D01*
X0081865Y0089924D02*
X0069781Y0089924D01*
X0069772Y0088925D02*
X0081865Y0088925D01*
X0081865Y0087927D02*
X0077737Y0087927D01*
X0078701Y0086928D02*
X0081700Y0086928D01*
X0081287Y0085930D02*
X0079115Y0085930D01*
X0079301Y0084931D02*
X0081101Y0084931D01*
X0081101Y0083933D02*
X0079301Y0083933D01*
X0079301Y0082934D02*
X0081101Y0082934D01*
X0081101Y0081936D02*
X0079301Y0081936D01*
X0079301Y0080937D02*
X0081101Y0080937D01*
X0081101Y0079939D02*
X0079301Y0079939D01*
X0079301Y0078940D02*
X0081101Y0078940D01*
X0081394Y0077942D02*
X0079008Y0077942D01*
X0079016Y0076943D02*
X0081924Y0076943D01*
X0082986Y0075945D02*
X0079841Y0075945D01*
X0074274Y0072949D02*
X0072238Y0072949D01*
X0073237Y0071951D02*
X0074244Y0071951D01*
X0073449Y0073948D02*
X0069988Y0073948D01*
X0069651Y0074946D02*
X0072581Y0074946D01*
X0072117Y0075945D02*
X0069660Y0075945D01*
X0069668Y0076943D02*
X0071924Y0076943D01*
X0071394Y0077942D02*
X0069677Y0077942D01*
X0069686Y0078940D02*
X0071101Y0078940D01*
X0071101Y0079939D02*
X0069694Y0079939D01*
X0069703Y0080937D02*
X0071101Y0080937D01*
X0071101Y0081936D02*
X0069712Y0081936D01*
X0069720Y0082934D02*
X0071101Y0082934D01*
X0071101Y0083933D02*
X0069729Y0083933D01*
X0069738Y0084931D02*
X0071101Y0084931D01*
X0071287Y0085930D02*
X0069746Y0085930D01*
X0069755Y0086928D02*
X0071700Y0086928D01*
X0072664Y0087927D02*
X0069764Y0087927D01*
X0063563Y0087927D02*
X0018067Y0087927D01*
X0018067Y0088925D02*
X0063572Y0088925D01*
X0063581Y0089924D02*
X0038728Y0089924D01*
X0038969Y0090002D02*
X0039698Y0090374D01*
X0040360Y0090855D01*
X0040939Y0091433D01*
X0041420Y0092096D01*
X0041791Y0092825D01*
X0042044Y0093603D01*
X0042172Y0094412D01*
X0042172Y0094521D01*
X0037273Y0094521D01*
X0037273Y0095121D01*
X0042172Y0095121D01*
X0042172Y0095230D01*
X0042044Y0096039D01*
X0041791Y0096817D01*
X0041420Y0097546D01*
X0040939Y0098209D01*
X0040360Y0098787D01*
X0039698Y0099268D01*
X0038969Y0099640D01*
X0038455Y0099807D01*
X0039918Y0100413D01*
X0041381Y0101875D01*
X0042172Y0103787D01*
X0042172Y0105855D01*
X0041381Y0107767D01*
X0040033Y0109114D01*
X0040033Y0113638D01*
X0041460Y0115064D01*
X0042251Y0116976D01*
X0042251Y0119044D01*
X0041460Y0120956D01*
X0039997Y0122418D01*
X0038086Y0123210D01*
X0036017Y0123210D01*
X0034106Y0122418D01*
X0032643Y0120956D01*
X0031851Y0119044D01*
X0031851Y0116976D01*
X0032643Y0115064D01*
X0033833Y0113874D01*
X0033833Y0109036D01*
X0032564Y0107767D01*
X0031772Y0105855D01*
X0031772Y0103787D01*
X0032564Y0101875D01*
X0034027Y0100413D01*
X0035490Y0099807D01*
X0034976Y0099640D01*
X0034247Y0099268D01*
X0033585Y0098787D01*
X0033006Y0098209D01*
X0032525Y0097546D01*
X0032153Y0096817D01*
X0031900Y0096039D01*
X0031772Y0095230D01*
X0031772Y0095121D01*
X0036672Y0095121D01*
X0036672Y0094521D01*
X0031772Y0094521D01*
X0031772Y0094412D01*
X0031900Y0093603D01*
X0032153Y0092825D01*
X0032525Y0092096D01*
X0033006Y0091433D01*
X0033585Y0090855D01*
X0034247Y0090374D01*
X0034976Y0090002D01*
X0035755Y0089749D01*
X0036563Y0089621D01*
X0036672Y0089621D01*
X0036672Y0094521D01*
X0037272Y0094521D01*
X0037272Y0089621D01*
X0037382Y0089621D01*
X0038190Y0089749D01*
X0038969Y0090002D01*
X0037272Y0089924D02*
X0036672Y0089924D01*
X0036672Y0090922D02*
X0037272Y0090922D01*
X0037272Y0091921D02*
X0036672Y0091921D01*
X0036672Y0092919D02*
X0037272Y0092919D01*
X0037272Y0093918D02*
X0036672Y0093918D01*
X0036672Y0094916D02*
X0018067Y0094916D01*
X0018067Y0093918D02*
X0031851Y0093918D01*
X0032123Y0092919D02*
X0018067Y0092919D01*
X0018067Y0091921D02*
X0032652Y0091921D01*
X0033517Y0090922D02*
X0018067Y0090922D01*
X0018067Y0089924D02*
X0035217Y0089924D01*
X0040428Y0090922D02*
X0063590Y0090922D01*
X0063598Y0091921D02*
X0041293Y0091921D01*
X0041822Y0092919D02*
X0063607Y0092919D01*
X0063616Y0093918D02*
X0042094Y0093918D01*
X0042064Y0095915D02*
X0063633Y0095915D01*
X0063642Y0096913D02*
X0041742Y0096913D01*
X0041154Y0097912D02*
X0063650Y0097912D01*
X0063659Y0098910D02*
X0040191Y0098910D01*
X0038702Y0099909D02*
X0063668Y0099909D01*
X0063676Y0100907D02*
X0040413Y0100907D01*
X0041393Y0101906D02*
X0063685Y0101906D01*
X0063694Y0102905D02*
X0041807Y0102905D01*
X0042172Y0103903D02*
X0063702Y0103903D01*
X0063711Y0104902D02*
X0042172Y0104902D01*
X0042154Y0105900D02*
X0063720Y0105900D01*
X0063728Y0106899D02*
X0041740Y0106899D01*
X0041250Y0107897D02*
X0063737Y0107897D01*
X0063746Y0108896D02*
X0040252Y0108896D01*
X0040033Y0109894D02*
X0063754Y0109894D01*
X0063925Y0110893D02*
X0040033Y0110893D01*
X0040033Y0111891D02*
X0064498Y0111891D01*
X0065500Y0112890D02*
X0040033Y0112890D01*
X0040283Y0113888D02*
X0066498Y0113888D01*
X0067770Y0114887D02*
X0041282Y0114887D01*
X0041799Y0115885D02*
X0071268Y0115885D01*
X0071682Y0116884D02*
X0042213Y0116884D01*
X0042251Y0117882D02*
X0072620Y0117882D01*
X0075075Y0120878D02*
X0041492Y0120878D01*
X0041905Y0119879D02*
X0076073Y0119879D01*
X0077072Y0118881D02*
X0042251Y0118881D01*
X0040539Y0121876D02*
X0074076Y0121876D01*
X0073078Y0122875D02*
X0038895Y0122875D01*
X0035208Y0122875D02*
X0018067Y0122875D01*
X0018067Y0123873D02*
X0072079Y0123873D01*
X0071081Y0124872D02*
X0018067Y0124872D01*
X0018067Y0125870D02*
X0070082Y0125870D01*
X0069084Y0126869D02*
X0018067Y0126869D01*
X0018067Y0127867D02*
X0068085Y0127867D01*
X0072859Y0131861D02*
X0091701Y0131861D01*
X0091701Y0130863D02*
X0073858Y0130863D01*
X0074856Y0129864D02*
X0091701Y0129864D01*
X0091701Y0128866D02*
X0075855Y0128866D01*
X0076853Y0127867D02*
X0091701Y0127867D01*
X0091701Y0126869D02*
X0091024Y0126869D01*
X0086543Y0126869D02*
X0077852Y0126869D01*
X0078851Y0125870D02*
X0085281Y0125870D01*
X0084560Y0124872D02*
X0079849Y0124872D01*
X0080848Y0123873D02*
X0084146Y0123873D01*
X0084033Y0122875D02*
X0081846Y0122875D01*
X0082845Y0121876D02*
X0084033Y0121876D01*
X0083843Y0120878D02*
X0084379Y0120878D01*
X0084842Y0119879D02*
X0084842Y0119879D01*
X0085840Y0118881D02*
X0085841Y0118881D01*
X0087782Y0117882D02*
X0091701Y0117882D01*
X0091682Y0116884D02*
X0088720Y0116884D01*
X0089133Y0115885D02*
X0091268Y0115885D01*
X0091101Y0114887D02*
X0089301Y0114887D01*
X0089301Y0113888D02*
X0091101Y0113888D01*
X0091101Y0112890D02*
X0089301Y0112890D01*
X0089301Y0111891D02*
X0091101Y0111891D01*
X0091101Y0110893D02*
X0089301Y0110893D01*
X0089301Y0109894D02*
X0091101Y0109894D01*
X0091101Y0108896D02*
X0089301Y0108896D01*
X0088989Y0107897D02*
X0091412Y0107897D01*
X0091969Y0106899D02*
X0088433Y0106899D01*
X0087308Y0105900D02*
X0092101Y0105900D01*
X0092101Y0104902D02*
X0069911Y0104902D01*
X0069920Y0105900D02*
X0073094Y0105900D01*
X0071969Y0106899D02*
X0069929Y0106899D01*
X0069937Y0107897D02*
X0071412Y0107897D01*
X0071101Y0108896D02*
X0070274Y0108896D01*
X0077308Y0105900D02*
X0083094Y0105900D01*
X0081969Y0106899D02*
X0078433Y0106899D01*
X0078989Y0107897D02*
X0081412Y0107897D01*
X0081101Y0108896D02*
X0079301Y0108896D01*
X0079301Y0109894D02*
X0081101Y0109894D01*
X0081101Y0110893D02*
X0079301Y0110893D01*
X0079301Y0111891D02*
X0081101Y0111891D01*
X0081101Y0112890D02*
X0079301Y0112890D01*
X0079301Y0113888D02*
X0081101Y0113888D01*
X0081066Y0114887D02*
X0079301Y0114887D01*
X0079133Y0115885D02*
X0080068Y0115885D01*
X0079069Y0116884D02*
X0078720Y0116884D01*
X0078070Y0117882D02*
X0077782Y0117882D01*
X0071861Y0132860D02*
X0091701Y0132860D01*
X0091701Y0133858D02*
X0070862Y0133858D01*
X0072489Y0134857D02*
X0048998Y0134857D01*
X0047999Y0135855D02*
X0070949Y0135855D01*
X0069950Y0136854D02*
X0047001Y0136854D01*
X0046002Y0137852D02*
X0068952Y0137852D01*
X0067953Y0138851D02*
X0045004Y0138851D01*
X0044005Y0139849D02*
X0066955Y0139849D01*
X0066072Y0140848D02*
X0043007Y0140848D01*
X0042008Y0141846D02*
X0065264Y0141846D01*
X0064850Y0142845D02*
X0041010Y0142845D01*
X0040033Y0143843D02*
X0064607Y0143843D01*
X0064607Y0144842D02*
X0040033Y0144842D01*
X0040033Y0145840D02*
X0064748Y0145840D01*
X0065161Y0146839D02*
X0040033Y0146839D01*
X0040033Y0147838D02*
X0065824Y0147838D01*
X0066823Y0148836D02*
X0040033Y0148836D01*
X0040033Y0149835D02*
X0075552Y0149835D01*
X0075276Y0148836D02*
X0072792Y0148836D01*
X0073790Y0147838D02*
X0075276Y0147838D01*
X0075276Y0146839D02*
X0074453Y0146839D01*
X0074866Y0145840D02*
X0075434Y0145840D01*
X0075847Y0144842D02*
X0075007Y0144842D01*
X0075007Y0143843D02*
X0076261Y0143843D01*
X0077058Y0142845D02*
X0074764Y0142845D01*
X0074857Y0141846D02*
X0078057Y0141846D01*
X0075965Y0150833D02*
X0040033Y0150833D01*
X0040033Y0151832D02*
X0076379Y0151832D01*
X0077343Y0152830D02*
X0040033Y0152830D01*
X0040224Y0153829D02*
X0078342Y0153829D01*
X0080548Y0154827D02*
X0041222Y0154827D01*
X0041775Y0155826D02*
X0135014Y0155826D01*
X0135014Y0156824D02*
X0042188Y0156824D01*
X0042251Y0157823D02*
X0135014Y0157823D01*
X0135014Y0158821D02*
X0042251Y0158821D01*
X0041930Y0159820D02*
X0134558Y0159820D01*
X0135014Y0154827D02*
X0119460Y0154827D01*
X0121666Y0153829D02*
X0135014Y0153829D01*
X0135014Y0152830D02*
X0122665Y0152830D01*
X0123629Y0151832D02*
X0135014Y0151832D01*
X0135014Y0150833D02*
X0124043Y0150833D01*
X0124456Y0149835D02*
X0127894Y0149835D01*
X0126429Y0148836D02*
X0124732Y0148836D01*
X0124732Y0147838D02*
X0125550Y0147838D01*
X0125137Y0146839D02*
X0124732Y0146839D01*
X0124843Y0145840D02*
X0124574Y0145840D01*
X0124843Y0144842D02*
X0124161Y0144842D01*
X0123747Y0143843D02*
X0124934Y0143843D01*
X0125348Y0142845D02*
X0122950Y0142845D01*
X0121951Y0141846D02*
X0124493Y0141846D01*
X0129414Y0136854D02*
X0135014Y0136854D01*
X0135014Y0137852D02*
X0130325Y0137852D01*
X0131237Y0138851D02*
X0135014Y0138851D01*
X0135014Y0139849D02*
X0132149Y0139849D01*
X0133149Y0140848D02*
X0135014Y0140848D01*
X0135014Y0141846D02*
X0134147Y0141846D01*
X0134739Y0142845D02*
X0135014Y0142845D01*
X0134950Y0146839D02*
X0135014Y0146839D01*
X0135014Y0147838D02*
X0134536Y0147838D01*
X0135014Y0148836D02*
X0133658Y0148836D01*
X0135014Y0149835D02*
X0132193Y0149835D01*
X0141214Y0146839D02*
X0148001Y0146839D01*
X0146148Y0145840D02*
X0141214Y0145840D01*
X0141214Y0144842D02*
X0145223Y0144842D01*
X0144810Y0143843D02*
X0141214Y0143843D01*
X0141214Y0142845D02*
X0144591Y0142845D01*
X0144591Y0141846D02*
X0141214Y0141846D01*
X0141214Y0140848D02*
X0144871Y0140848D01*
X0145297Y0139849D02*
X0141214Y0139849D01*
X0141214Y0138851D02*
X0146295Y0138851D01*
X0135014Y0135855D02*
X0128508Y0135855D01*
X0127009Y0134857D02*
X0134711Y0134857D01*
X0141214Y0153829D02*
X0144817Y0153829D01*
X0145278Y0154827D02*
X0141214Y0154827D01*
X0141214Y0155826D02*
X0146133Y0155826D01*
X0148135Y0156824D02*
X0141214Y0156824D01*
X0141214Y0157823D02*
X0162759Y0157823D01*
X0161760Y0158821D02*
X0141214Y0158821D01*
X0141214Y0159820D02*
X0161287Y0159820D01*
X0160873Y0160818D02*
X0141214Y0160818D01*
X0141214Y0161817D02*
X0160867Y0161817D01*
X0160867Y0162815D02*
X0141214Y0162815D01*
X0141214Y0163814D02*
X0161244Y0163814D01*
X0161658Y0164812D02*
X0141214Y0164812D01*
X0141214Y0165811D02*
X0162656Y0165811D01*
X0162967Y0166809D02*
X0141214Y0166809D01*
X0141214Y0167808D02*
X0162967Y0167808D01*
X0162967Y0168806D02*
X0141214Y0168806D01*
X0141214Y0169805D02*
X0162967Y0169805D01*
X0162967Y0170803D02*
X0142237Y0170803D01*
X0143630Y0171802D02*
X0162967Y0171802D01*
X0163179Y0172800D02*
X0144479Y0172800D01*
X0144892Y0173799D02*
X0163810Y0173799D01*
X0164809Y0174797D02*
X0145165Y0174797D01*
X0145165Y0175796D02*
X0165807Y0175796D01*
X0166806Y0176794D02*
X0145053Y0176794D01*
X0144639Y0177793D02*
X0167804Y0177793D01*
X0170581Y0171802D02*
X0176299Y0171802D01*
X0177692Y0170803D02*
X0169583Y0170803D01*
X0175912Y0178791D02*
X0144017Y0178791D01*
X0143019Y0179790D02*
X0176910Y0179790D01*
X0189584Y0194768D02*
X0132660Y0194768D01*
X0133736Y0195766D02*
X0189997Y0195766D01*
X0190760Y0196765D02*
X0134453Y0196765D01*
X0134867Y0197763D02*
X0191759Y0197763D01*
X0193322Y0198762D02*
X0135046Y0198762D01*
X0135046Y0199760D02*
X0208341Y0199760D01*
X0208917Y0198762D02*
X0200229Y0198762D01*
X0201792Y0197763D02*
X0209494Y0197763D01*
X0209947Y0196765D02*
X0202791Y0196765D01*
X0203554Y0195766D02*
X0210215Y0195766D01*
X0210482Y0194768D02*
X0203968Y0194768D01*
X0204381Y0193769D02*
X0210750Y0193769D01*
X0210850Y0192771D02*
X0204575Y0192771D01*
X0212918Y0191750D02*
X0212913Y0192140D01*
X0212899Y0192530D01*
X0212876Y0192919D01*
X0212843Y0193308D01*
X0212800Y0193696D01*
X0212749Y0194082D01*
X0212688Y0194468D01*
X0212617Y0194851D01*
X0212538Y0195233D01*
X0212449Y0195613D01*
X0212351Y0195991D01*
X0212244Y0196366D01*
X0212128Y0196738D01*
X0212003Y0197108D01*
X0211869Y0197474D01*
X0211726Y0197837D01*
X0211575Y0198197D01*
X0211415Y0198552D01*
X0211246Y0198904D01*
X0211069Y0199252D01*
X0210884Y0199595D01*
X0210690Y0199933D01*
X0210488Y0200267D01*
X0210278Y0200596D01*
X0210061Y0200920D01*
X0209835Y0201238D01*
X0209602Y0201551D01*
X0209362Y0201858D01*
X0209114Y0202159D01*
X0208858Y0202454D01*
X0208596Y0202743D01*
X0208327Y0203025D01*
X0208051Y0203301D01*
X0207769Y0203570D01*
X0207480Y0203832D01*
X0207185Y0204088D01*
X0206884Y0204336D01*
X0206577Y0204576D01*
X0206264Y0204809D01*
X0205946Y0205035D01*
X0205622Y0205252D01*
X0205293Y0205462D01*
X0204959Y0205664D01*
X0204621Y0205858D01*
X0204278Y0206043D01*
X0203930Y0206220D01*
X0203578Y0206389D01*
X0203223Y0206549D01*
X0202863Y0206700D01*
X0202500Y0206843D01*
X0202134Y0206977D01*
X0201764Y0207102D01*
X0201392Y0207218D01*
X0201017Y0207325D01*
X0200639Y0207423D01*
X0200259Y0207512D01*
X0199877Y0207591D01*
X0199494Y0207662D01*
X0199108Y0207723D01*
X0198722Y0207774D01*
X0198334Y0207817D01*
X0197945Y0207850D01*
X0197556Y0207873D01*
X0197166Y0207887D01*
X0196776Y0207892D01*
X0032209Y0207892D01*
X0030289Y0205751D02*
X0198695Y0205751D01*
X0202296Y0204753D02*
X0026688Y0204753D01*
X0024959Y0203754D02*
X0067337Y0203754D01*
X0066175Y0202756D02*
X0023386Y0202756D01*
X0022387Y0201757D02*
X0065422Y0201757D01*
X0065008Y0200759D02*
X0021389Y0200759D01*
X0020643Y0199760D02*
X0064804Y0199760D01*
X0064804Y0198762D02*
X0035662Y0198762D01*
X0036627Y0198362D02*
X0033760Y0199549D01*
X0030657Y0199549D01*
X0027791Y0198362D01*
X0025597Y0196168D01*
X0024409Y0193301D01*
X0024409Y0190199D01*
X0025597Y0187332D01*
X0027791Y0185138D01*
X0030657Y0183951D01*
X0033760Y0183951D01*
X0036627Y0185138D01*
X0038821Y0187332D01*
X0040008Y0190199D01*
X0040008Y0193301D01*
X0038821Y0196168D01*
X0036627Y0198362D01*
X0037225Y0197763D02*
X0064983Y0197763D01*
X0065397Y0196765D02*
X0038224Y0196765D01*
X0038987Y0195766D02*
X0066114Y0195766D01*
X0067190Y0194768D02*
X0039401Y0194768D01*
X0039814Y0193769D02*
X0096904Y0193769D01*
X0096904Y0192771D02*
X0040008Y0192771D01*
X0040008Y0191772D02*
X0096904Y0191772D01*
X0096904Y0190773D02*
X0040008Y0190773D01*
X0039832Y0189775D02*
X0096904Y0189775D01*
X0096904Y0188776D02*
X0039419Y0188776D01*
X0039005Y0187778D02*
X0066946Y0187778D01*
X0065947Y0186779D02*
X0038268Y0186779D01*
X0037269Y0185781D02*
X0065328Y0185781D01*
X0064914Y0184782D02*
X0035767Y0184782D01*
X0028650Y0184782D02*
X0018067Y0184782D01*
X0018067Y0183784D02*
X0064804Y0183784D01*
X0064804Y0182785D02*
X0018067Y0182785D01*
X0018067Y0181787D02*
X0065078Y0181787D01*
X0065491Y0180788D02*
X0018067Y0180788D01*
X0018067Y0179790D02*
X0066343Y0179790D01*
X0066707Y0178791D02*
X0018067Y0178791D01*
X0018067Y0177793D02*
X0065779Y0177793D01*
X0065143Y0176794D02*
X0018067Y0176794D01*
X0018067Y0175796D02*
X0064729Y0175796D01*
X0064607Y0174797D02*
X0018067Y0174797D01*
X0018067Y0173799D02*
X0064607Y0173799D01*
X0064869Y0172800D02*
X0018067Y0172800D01*
X0018067Y0171802D02*
X0065282Y0171802D01*
X0066117Y0170803D02*
X0018067Y0170803D01*
X0018067Y0169805D02*
X0067474Y0169805D01*
X0072141Y0169805D02*
X0096904Y0169805D01*
X0096904Y0170803D02*
X0093005Y0170803D01*
X0094063Y0171802D02*
X0096102Y0171802D01*
X0095392Y0172800D02*
X0094773Y0172800D01*
X0096904Y0168806D02*
X0018067Y0168806D01*
X0018067Y0167808D02*
X0096904Y0167808D01*
X0096904Y0166809D02*
X0018067Y0166809D01*
X0018067Y0165811D02*
X0096904Y0165811D01*
X0097011Y0164812D02*
X0018067Y0164812D01*
X0018067Y0163814D02*
X0097493Y0163814D01*
X0098492Y0162815D02*
X0039039Y0162815D01*
X0040598Y0161817D02*
X0099490Y0161817D01*
X0100489Y0160818D02*
X0041516Y0160818D01*
X0035064Y0162815D02*
X0018067Y0162815D01*
X0018067Y0161817D02*
X0033504Y0161817D01*
X0032586Y0160818D02*
X0018067Y0160818D01*
X0018067Y0159820D02*
X0032172Y0159820D01*
X0031851Y0158821D02*
X0018067Y0158821D01*
X0018067Y0157823D02*
X0031851Y0157823D01*
X0031914Y0156824D02*
X0018067Y0156824D01*
X0018067Y0155826D02*
X0032328Y0155826D01*
X0032880Y0154827D02*
X0018067Y0154827D01*
X0018067Y0153829D02*
X0033833Y0153829D01*
X0033833Y0152830D02*
X0018067Y0152830D01*
X0018067Y0151832D02*
X0033833Y0151832D01*
X0033833Y0150833D02*
X0018067Y0150833D01*
X0018067Y0149835D02*
X0033833Y0149835D01*
X0033833Y0148836D02*
X0018067Y0148836D01*
X0018067Y0147838D02*
X0033833Y0147838D01*
X0033833Y0146839D02*
X0018067Y0146839D01*
X0018067Y0145840D02*
X0033833Y0145840D01*
X0033833Y0144842D02*
X0018067Y0144842D01*
X0018067Y0143843D02*
X0033833Y0143843D01*
X0033833Y0142845D02*
X0018067Y0142845D01*
X0018067Y0141846D02*
X0033864Y0141846D01*
X0034277Y0140848D02*
X0018067Y0140848D01*
X0018067Y0139849D02*
X0035237Y0139849D01*
X0035177Y0139909D02*
X0035177Y0139909D01*
X0036236Y0138851D02*
X0018067Y0138851D01*
X0018067Y0137852D02*
X0037234Y0137852D01*
X0038233Y0136854D02*
X0018067Y0136854D01*
X0018067Y0135855D02*
X0039231Y0135855D01*
X0040230Y0134857D02*
X0018067Y0134857D01*
X0018067Y0133858D02*
X0041228Y0133858D01*
X0042227Y0132860D02*
X0018067Y0132860D01*
X0018067Y0131861D02*
X0043225Y0131861D01*
X0044224Y0130863D02*
X0018067Y0130863D01*
X0018067Y0129864D02*
X0045222Y0129864D01*
X0045329Y0129758D02*
X0045329Y0129758D01*
X0046249Y0128866D02*
X0018067Y0128866D01*
X0018067Y0121876D02*
X0033564Y0121876D01*
X0032611Y0120878D02*
X0018067Y0120878D01*
X0018067Y0119879D02*
X0032197Y0119879D01*
X0031851Y0118881D02*
X0018067Y0118881D01*
X0018067Y0117882D02*
X0031851Y0117882D01*
X0031889Y0116884D02*
X0018067Y0116884D01*
X0018067Y0115885D02*
X0032303Y0115885D01*
X0032821Y0114887D02*
X0018067Y0114887D01*
X0018067Y0113888D02*
X0033819Y0113888D01*
X0033833Y0112890D02*
X0018067Y0112890D01*
X0018067Y0111891D02*
X0033833Y0111891D01*
X0033833Y0110893D02*
X0018067Y0110893D01*
X0018067Y0109894D02*
X0033833Y0109894D01*
X0033693Y0108896D02*
X0018067Y0108896D01*
X0018067Y0107897D02*
X0032695Y0107897D01*
X0032205Y0106899D02*
X0018067Y0106899D01*
X0018067Y0105900D02*
X0031791Y0105900D01*
X0031772Y0104902D02*
X0018067Y0104902D01*
X0018067Y0103903D02*
X0031772Y0103903D01*
X0032138Y0102905D02*
X0018067Y0102905D01*
X0018067Y0101906D02*
X0032551Y0101906D01*
X0033532Y0100907D02*
X0018067Y0100907D01*
X0018067Y0099909D02*
X0035243Y0099909D01*
X0033754Y0098910D02*
X0018067Y0098910D01*
X0018067Y0097912D02*
X0032791Y0097912D01*
X0032203Y0096913D02*
X0018067Y0096913D01*
X0018067Y0095915D02*
X0031881Y0095915D01*
X0037273Y0094916D02*
X0063624Y0094916D01*
X0063555Y0086928D02*
X0018067Y0086928D01*
X0018067Y0085930D02*
X0063546Y0085930D01*
X0063537Y0084931D02*
X0018067Y0084931D01*
X0018067Y0083933D02*
X0063529Y0083933D01*
X0063520Y0082934D02*
X0018067Y0082934D01*
X0018067Y0081936D02*
X0063511Y0081936D01*
X0063503Y0080937D02*
X0018067Y0080937D01*
X0018067Y0079939D02*
X0063494Y0079939D01*
X0063485Y0078940D02*
X0018067Y0078940D01*
X0018067Y0077942D02*
X0063477Y0077942D01*
X0063468Y0076943D02*
X0018067Y0076943D01*
X0018067Y0075945D02*
X0063459Y0075945D01*
X0063451Y0074946D02*
X0018067Y0074946D01*
X0018067Y0073948D02*
X0062933Y0073948D01*
X0060683Y0072949D02*
X0018067Y0072949D01*
X0018067Y0071951D02*
X0059684Y0071951D01*
X0058686Y0070952D02*
X0018067Y0070952D01*
X0018067Y0069954D02*
X0057861Y0069954D01*
X0057447Y0068955D02*
X0018067Y0068955D01*
X0018067Y0067957D02*
X0057033Y0067957D01*
X0056620Y0066958D02*
X0018067Y0066958D01*
X0018067Y0065960D02*
X0056461Y0065960D01*
X0056461Y0064961D02*
X0018067Y0064961D01*
X0018067Y0063963D02*
X0056461Y0063963D01*
X0056461Y0062964D02*
X0018067Y0062964D01*
X0018067Y0061966D02*
X0056722Y0061966D01*
X0057135Y0060967D02*
X0018067Y0060967D01*
X0018067Y0059969D02*
X0057549Y0059969D01*
X0057962Y0058970D02*
X0018067Y0058970D01*
X0018067Y0057971D02*
X0058932Y0057971D01*
X0059930Y0056973D02*
X0018067Y0056973D01*
X0018067Y0055974D02*
X0061116Y0055974D01*
X0063527Y0054976D02*
X0018067Y0054976D01*
X0018067Y0053977D02*
X0074965Y0053977D01*
X0074965Y0052979D02*
X0018067Y0052979D01*
X0018067Y0051980D02*
X0074965Y0051980D01*
X0074965Y0050982D02*
X0018067Y0050982D01*
X0018067Y0049983D02*
X0062145Y0049983D01*
X0062628Y0050216D02*
X0061616Y0049729D01*
X0060665Y0049131D01*
X0059787Y0048431D01*
X0058992Y0047637D01*
X0058292Y0046759D01*
X0057695Y0045808D01*
X0057207Y0044796D01*
X0056836Y0043735D01*
X0056586Y0042640D01*
X0056461Y0041524D01*
X0056461Y0041463D01*
X0065961Y0041463D01*
X0065961Y0050963D01*
X0065899Y0050963D01*
X0064783Y0050837D01*
X0063688Y0050587D01*
X0062628Y0050216D01*
X0060481Y0048985D02*
X0018067Y0048985D01*
X0018067Y0047986D02*
X0059342Y0047986D01*
X0058475Y0046988D02*
X0018067Y0046988D01*
X0018067Y0045989D02*
X0057809Y0045989D01*
X0057301Y0044991D02*
X0018067Y0044991D01*
X0018067Y0043992D02*
X0056926Y0043992D01*
X0056667Y0042994D02*
X0018067Y0042994D01*
X0018067Y0041995D02*
X0056514Y0041995D01*
X0056461Y0040463D02*
X0056461Y0040401D01*
X0056586Y0039285D01*
X0056836Y0038190D01*
X0057207Y0037130D01*
X0057695Y0036118D01*
X0058292Y0035167D01*
X0058992Y0034289D01*
X0059787Y0033495D01*
X0060665Y0032794D01*
X0061616Y0032197D01*
X0062628Y0031709D01*
X0063688Y0031338D01*
X0064783Y0031088D01*
X0065899Y0030963D01*
X0065961Y0030963D01*
X0065961Y0040463D01*
X0066961Y0040463D01*
X0066961Y0041463D01*
X0076461Y0041463D01*
X0076461Y0041524D01*
X0076335Y0042640D01*
X0076085Y0043735D01*
X0075714Y0044796D01*
X0075227Y0045808D01*
X0074629Y0046759D01*
X0073929Y0047637D01*
X0073135Y0048431D01*
X0072256Y0049131D01*
X0071305Y0049729D01*
X0070293Y0050216D01*
X0069233Y0050587D01*
X0068138Y0050837D01*
X0067022Y0050963D01*
X0066961Y0050963D01*
X0066961Y0041463D01*
X0065961Y0041463D01*
X0065961Y0040463D01*
X0056461Y0040463D01*
X0056506Y0039998D02*
X0018067Y0039998D01*
X0018067Y0039000D02*
X0056651Y0039000D01*
X0056902Y0038001D02*
X0018067Y0038001D01*
X0018067Y0037003D02*
X0057268Y0037003D01*
X0057766Y0036004D02*
X0018067Y0036004D01*
X0018067Y0035006D02*
X0058421Y0035006D01*
X0059274Y0034007D02*
X0036114Y0034007D01*
X0036627Y0033795D02*
X0033760Y0034982D01*
X0030657Y0034982D01*
X0027791Y0033795D01*
X0025597Y0031601D01*
X0024409Y0028735D01*
X0024409Y0025632D01*
X0025597Y0022765D01*
X0027791Y0020571D01*
X0030657Y0019384D01*
X0033760Y0019384D01*
X0036627Y0020571D01*
X0038821Y0022765D01*
X0040008Y0025632D01*
X0040008Y0028735D01*
X0038821Y0031601D01*
X0036627Y0033795D01*
X0037413Y0033009D02*
X0060396Y0033009D01*
X0062003Y0032010D02*
X0038411Y0032010D01*
X0039065Y0031012D02*
X0065464Y0031012D01*
X0065961Y0031012D02*
X0066961Y0031012D01*
X0066961Y0030963D02*
X0067022Y0030963D01*
X0068138Y0031088D01*
X0069233Y0031338D01*
X0070293Y0031709D01*
X0071305Y0032197D01*
X0072256Y0032794D01*
X0073135Y0033495D01*
X0073929Y0034289D01*
X0074629Y0035167D01*
X0075227Y0036118D01*
X0075714Y0037130D01*
X0076085Y0038190D01*
X0076335Y0039285D01*
X0076461Y0040401D01*
X0076461Y0040463D01*
X0066961Y0040463D01*
X0066961Y0030963D01*
X0067457Y0031012D02*
X0109477Y0031012D01*
X0109135Y0030013D02*
X0039478Y0030013D01*
X0039892Y0029015D02*
X0109135Y0029015D01*
X0109177Y0028016D02*
X0040008Y0028016D01*
X0040008Y0027018D02*
X0109590Y0027018D01*
X0110113Y0026019D02*
X0040008Y0026019D01*
X0039755Y0025021D02*
X0111112Y0025021D01*
X0113130Y0024022D02*
X0039341Y0024022D01*
X0038927Y0023024D02*
X0190057Y0023024D01*
X0189643Y0024022D02*
X0125188Y0024022D01*
X0124835Y0024022D02*
X0123835Y0024022D01*
X0123481Y0024022D02*
X0115539Y0024022D01*
X0117557Y0025021D02*
X0121174Y0025021D01*
X0120183Y0026019D02*
X0118556Y0026019D01*
X0119079Y0027018D02*
X0119586Y0027018D01*
X0119471Y0031012D02*
X0119193Y0031012D01*
X0118779Y0032010D02*
X0119984Y0032010D01*
X0120838Y0033009D02*
X0117832Y0033009D01*
X0117198Y0034007D02*
X0122451Y0034007D01*
X0123835Y0034007D02*
X0124835Y0034007D01*
X0124835Y0033009D02*
X0123835Y0033009D01*
X0123835Y0032010D02*
X0124835Y0032010D01*
X0124835Y0031012D02*
X0123835Y0031012D01*
X0123835Y0030013D02*
X0124835Y0030013D01*
X0124835Y0029015D02*
X0189092Y0029015D01*
X0188976Y0028016D02*
X0129420Y0028016D01*
X0129407Y0027934D02*
X0129520Y0028652D01*
X0124835Y0028652D01*
X0124835Y0023966D01*
X0125552Y0024080D01*
X0126331Y0024333D01*
X0127060Y0024704D01*
X0127722Y0025185D01*
X0128301Y0025764D01*
X0128782Y0026426D01*
X0129154Y0027156D01*
X0129407Y0027934D01*
X0129083Y0027018D02*
X0188976Y0027018D01*
X0188976Y0026019D02*
X0128486Y0026019D01*
X0127495Y0025021D02*
X0189230Y0025021D01*
X0190904Y0022025D02*
X0038080Y0022025D01*
X0037082Y0021027D02*
X0191902Y0021027D01*
X0193669Y0020028D02*
X0035315Y0020028D01*
X0029102Y0020028D02*
X0020150Y0020028D01*
X0019573Y0021027D02*
X0027336Y0021027D01*
X0026337Y0022025D02*
X0019075Y0022025D01*
X0018808Y0023024D02*
X0025490Y0023024D01*
X0025076Y0024022D02*
X0018540Y0024022D01*
X0018273Y0025021D02*
X0024663Y0025021D01*
X0024409Y0026019D02*
X0018143Y0026019D01*
X0018078Y0027018D02*
X0024409Y0027018D01*
X0024409Y0028016D02*
X0018067Y0028016D01*
X0018067Y0029015D02*
X0024525Y0029015D01*
X0024939Y0030013D02*
X0018067Y0030013D01*
X0018067Y0031012D02*
X0025353Y0031012D01*
X0026006Y0032010D02*
X0018067Y0032010D01*
X0018067Y0033009D02*
X0027004Y0033009D01*
X0028303Y0034007D02*
X0018067Y0034007D01*
X0016067Y0027183D02*
X0016067Y0191750D01*
X0018068Y0191772D02*
X0024409Y0191772D01*
X0024409Y0190773D02*
X0018067Y0190773D01*
X0018067Y0189775D02*
X0024585Y0189775D01*
X0024999Y0188776D02*
X0018067Y0188776D01*
X0018067Y0187778D02*
X0025412Y0187778D01*
X0026150Y0186779D02*
X0018067Y0186779D01*
X0018067Y0185781D02*
X0027148Y0185781D01*
X0024409Y0192771D02*
X0018134Y0192771D01*
X0018234Y0193769D02*
X0024603Y0193769D01*
X0025017Y0194768D02*
X0018502Y0194768D01*
X0018769Y0195766D02*
X0025430Y0195766D01*
X0026193Y0196765D02*
X0019037Y0196765D01*
X0019490Y0197763D02*
X0027192Y0197763D01*
X0028756Y0198762D02*
X0020067Y0198762D01*
X0016067Y0191750D02*
X0016072Y0192140D01*
X0016086Y0192530D01*
X0016109Y0192919D01*
X0016142Y0193308D01*
X0016185Y0193696D01*
X0016236Y0194082D01*
X0016297Y0194468D01*
X0016368Y0194851D01*
X0016447Y0195233D01*
X0016536Y0195613D01*
X0016634Y0195991D01*
X0016741Y0196366D01*
X0016857Y0196738D01*
X0016982Y0197108D01*
X0017116Y0197474D01*
X0017259Y0197837D01*
X0017410Y0198197D01*
X0017570Y0198552D01*
X0017739Y0198904D01*
X0017916Y0199252D01*
X0018101Y0199595D01*
X0018295Y0199933D01*
X0018497Y0200267D01*
X0018707Y0200596D01*
X0018924Y0200920D01*
X0019150Y0201238D01*
X0019383Y0201551D01*
X0019623Y0201858D01*
X0019871Y0202159D01*
X0020127Y0202454D01*
X0020389Y0202743D01*
X0020658Y0203025D01*
X0020934Y0203301D01*
X0021216Y0203570D01*
X0021505Y0203832D01*
X0021800Y0204088D01*
X0022101Y0204336D01*
X0022408Y0204576D01*
X0022721Y0204809D01*
X0023039Y0205035D01*
X0023363Y0205252D01*
X0023692Y0205462D01*
X0024026Y0205664D01*
X0024364Y0205858D01*
X0024707Y0206043D01*
X0025055Y0206220D01*
X0025407Y0206389D01*
X0025762Y0206549D01*
X0026122Y0206700D01*
X0026485Y0206843D01*
X0026851Y0206977D01*
X0027221Y0207102D01*
X0027593Y0207218D01*
X0027968Y0207325D01*
X0028346Y0207423D01*
X0028726Y0207512D01*
X0029108Y0207591D01*
X0029491Y0207662D01*
X0029877Y0207723D01*
X0030263Y0207774D01*
X0030651Y0207817D01*
X0031040Y0207850D01*
X0031429Y0207873D01*
X0031819Y0207887D01*
X0032209Y0207892D01*
X0072671Y0203754D02*
X0087416Y0203754D01*
X0086254Y0202756D02*
X0073833Y0202756D01*
X0073893Y0195766D02*
X0086193Y0195766D01*
X0087269Y0194768D02*
X0072818Y0194768D01*
X0073062Y0187778D02*
X0096904Y0187778D01*
X0096904Y0186779D02*
X0074061Y0186779D01*
X0074680Y0185781D02*
X0096904Y0185781D01*
X0096904Y0184782D02*
X0075094Y0184782D01*
X0075204Y0183784D02*
X0096904Y0183784D01*
X0096904Y0182785D02*
X0075204Y0182785D01*
X0074930Y0181787D02*
X0096904Y0181787D01*
X0096904Y0180788D02*
X0074516Y0180788D01*
X0073665Y0179790D02*
X0087524Y0179790D01*
X0086345Y0178791D02*
X0072907Y0178791D01*
X0074332Y0171802D02*
X0086260Y0171802D01*
X0087318Y0170803D02*
X0073498Y0170803D01*
X0084814Y0154827D02*
X0115194Y0154827D01*
X0112987Y0153829D02*
X0087020Y0153829D01*
X0088019Y0152830D02*
X0111989Y0152830D01*
X0111025Y0151832D02*
X0088983Y0151832D01*
X0089397Y0150833D02*
X0110611Y0150833D01*
X0110197Y0149835D02*
X0089811Y0149835D01*
X0090087Y0148836D02*
X0109921Y0148836D01*
X0109921Y0147838D02*
X0090087Y0147838D01*
X0090087Y0146839D02*
X0109921Y0146839D01*
X0110079Y0145840D02*
X0089929Y0145840D01*
X0089515Y0144842D02*
X0110493Y0144842D01*
X0110906Y0143843D02*
X0089101Y0143843D01*
X0088304Y0142845D02*
X0111704Y0142845D01*
X0112702Y0141846D02*
X0087305Y0141846D01*
X0108280Y0126869D02*
X0108657Y0126869D01*
X0108657Y0125870D02*
X0108280Y0125870D01*
X0108280Y0124872D02*
X0108657Y0124872D01*
X0108657Y0123873D02*
X0108280Y0123873D01*
X0108280Y0122875D02*
X0108657Y0122875D01*
X0108657Y0121876D02*
X0108280Y0121876D01*
X0108280Y0120878D02*
X0108657Y0120878D01*
X0108657Y0119879D02*
X0108280Y0119879D01*
X0108280Y0118881D02*
X0108657Y0118881D01*
X0107748Y0117882D02*
X0112573Y0117882D01*
X0112573Y0116884D02*
X0108657Y0116884D01*
X0109115Y0115885D02*
X0112573Y0115885D01*
X0112573Y0114887D02*
X0109301Y0114887D01*
X0109301Y0113888D02*
X0112573Y0113888D01*
X0112573Y0112890D02*
X0109301Y0112890D01*
X0111354Y0118881D02*
X0112573Y0118881D01*
X0112573Y0119879D02*
X0112323Y0119879D01*
X0112573Y0125870D02*
X0111971Y0125870D01*
X0112573Y0126869D02*
X0110662Y0126869D01*
X0102653Y0117882D02*
X0098701Y0117882D01*
X0098720Y0116884D02*
X0101745Y0116884D01*
X0101286Y0115885D02*
X0099133Y0115885D01*
X0099301Y0114887D02*
X0101101Y0114887D01*
X0101101Y0113888D02*
X0099301Y0113888D01*
X0099301Y0112890D02*
X0101101Y0112890D01*
X0118773Y0112890D02*
X0188606Y0112890D01*
X0188695Y0112919D02*
X0187984Y0112688D01*
X0187318Y0112348D01*
X0186713Y0111909D01*
X0186184Y0111380D01*
X0185745Y0110775D01*
X0185405Y0110109D01*
X0185174Y0109398D01*
X0185057Y0108659D01*
X0185057Y0108475D01*
X0189618Y0108475D01*
X0189618Y0113036D01*
X0189433Y0113036D01*
X0188695Y0112919D01*
X0189618Y0112890D02*
X0189996Y0112890D01*
X0189996Y0113036D02*
X0190181Y0113036D01*
X0190919Y0112919D01*
X0191630Y0112688D01*
X0192297Y0112348D01*
X0192902Y0111909D01*
X0193430Y0111380D01*
X0193870Y0110775D01*
X0194209Y0110109D01*
X0194440Y0109398D01*
X0194557Y0108659D01*
X0194557Y0108475D01*
X0189996Y0108475D01*
X0189618Y0108475D01*
X0189618Y0108097D01*
X0185057Y0108097D01*
X0185057Y0107912D01*
X0185174Y0107173D01*
X0185405Y0106462D01*
X0185745Y0105796D01*
X0186184Y0105191D01*
X0186713Y0104662D01*
X0187318Y0104223D01*
X0187984Y0103884D01*
X0188695Y0103653D01*
X0189433Y0103536D01*
X0189618Y0103536D01*
X0189618Y0108096D01*
X0189996Y0108096D01*
X0189996Y0103536D01*
X0190181Y0103536D01*
X0190919Y0103653D01*
X0191630Y0103884D01*
X0192297Y0104223D01*
X0192902Y0104662D01*
X0193430Y0105191D01*
X0193870Y0105796D01*
X0194209Y0106462D01*
X0194440Y0107173D01*
X0194557Y0107912D01*
X0194557Y0108097D01*
X0189996Y0108097D01*
X0189996Y0108475D01*
X0189996Y0113036D01*
X0191009Y0112890D02*
X0195790Y0112890D01*
X0195057Y0111891D02*
X0192919Y0111891D01*
X0193784Y0110893D02*
X0195057Y0110893D01*
X0195057Y0109894D02*
X0194279Y0109894D01*
X0194520Y0108896D02*
X0195057Y0108896D01*
X0195057Y0107897D02*
X0194555Y0107897D01*
X0194351Y0106899D02*
X0195057Y0106899D01*
X0195057Y0105900D02*
X0193923Y0105900D01*
X0193141Y0104902D02*
X0195057Y0104902D01*
X0195568Y0103903D02*
X0191669Y0103903D01*
X0189996Y0103903D02*
X0189618Y0103903D01*
X0189618Y0104902D02*
X0189996Y0104902D01*
X0189996Y0105900D02*
X0189618Y0105900D01*
X0189618Y0106899D02*
X0189996Y0106899D01*
X0189996Y0107897D02*
X0189618Y0107897D01*
X0189618Y0108896D02*
X0189996Y0108896D01*
X0189996Y0109894D02*
X0189618Y0109894D01*
X0189618Y0110893D02*
X0189996Y0110893D01*
X0189996Y0111891D02*
X0189618Y0111891D01*
X0186695Y0111891D02*
X0118773Y0111891D01*
X0118773Y0110893D02*
X0185830Y0110893D01*
X0185335Y0109894D02*
X0118773Y0109894D01*
X0118773Y0108896D02*
X0185095Y0108896D01*
X0185059Y0107897D02*
X0118773Y0107897D01*
X0118773Y0106899D02*
X0185263Y0106899D01*
X0185692Y0105900D02*
X0118773Y0105900D01*
X0118773Y0104902D02*
X0186474Y0104902D01*
X0187946Y0103903D02*
X0118773Y0103903D01*
X0118773Y0102905D02*
X0199975Y0102905D01*
X0199975Y0101906D02*
X0118773Y0101906D01*
X0118773Y0100907D02*
X0199975Y0100907D01*
X0199975Y0099909D02*
X0118773Y0099909D01*
X0118570Y0098910D02*
X0199975Y0098910D01*
X0199975Y0097912D02*
X0117951Y0097912D01*
X0112327Y0092919D02*
X0101542Y0092919D01*
X0100543Y0091921D02*
X0111905Y0091921D01*
X0119531Y0086928D02*
X0146827Y0086928D01*
X0145899Y0087927D02*
X0120412Y0087927D01*
X0120921Y0088925D02*
X0145428Y0088925D01*
X0146767Y0076943D02*
X0135622Y0076943D01*
X0134623Y0075945D02*
X0199975Y0075945D01*
X0199975Y0074946D02*
X0195896Y0074946D01*
X0197159Y0073948D02*
X0199975Y0073948D01*
X0199975Y0072949D02*
X0198004Y0072949D01*
X0198417Y0071951D02*
X0199975Y0071951D01*
X0199975Y0070952D02*
X0198732Y0070952D01*
X0198732Y0069954D02*
X0199975Y0069954D01*
X0199975Y0068955D02*
X0198713Y0068955D01*
X0198299Y0067957D02*
X0199975Y0067957D01*
X0199975Y0066958D02*
X0197872Y0066958D01*
X0196873Y0065960D02*
X0199975Y0065960D01*
X0199975Y0064961D02*
X0195206Y0064961D01*
X0191258Y0064961D02*
X0170742Y0064961D01*
X0170742Y0065960D02*
X0189591Y0065960D01*
X0188593Y0066958D02*
X0170742Y0066958D01*
X0171248Y0063963D02*
X0199975Y0063963D01*
X0199975Y0062964D02*
X0172131Y0062964D01*
X0172545Y0061966D02*
X0199975Y0061966D01*
X0199975Y0060967D02*
X0172842Y0060967D01*
X0172842Y0059969D02*
X0199975Y0059969D01*
X0198981Y0058970D02*
X0172755Y0058970D01*
X0172341Y0057971D02*
X0197983Y0057971D01*
X0196984Y0056973D02*
X0171754Y0056973D01*
X0170755Y0055974D02*
X0195986Y0055974D01*
X0200760Y0051980D02*
X0210917Y0051980D01*
X0210917Y0050982D02*
X0199762Y0050982D01*
X0198763Y0049983D02*
X0210917Y0049983D01*
X0210917Y0048985D02*
X0197765Y0048985D01*
X0201759Y0052979D02*
X0210917Y0052979D01*
X0210917Y0053977D02*
X0202757Y0053977D01*
X0203756Y0054976D02*
X0210917Y0054976D01*
X0210917Y0055974D02*
X0204754Y0055974D01*
X0205723Y0056973D02*
X0210917Y0056973D01*
X0210917Y0057971D02*
X0206137Y0057971D01*
X0206175Y0058970D02*
X0210917Y0058970D01*
X0210917Y0059969D02*
X0206175Y0059969D01*
X0206175Y0060967D02*
X0210917Y0060967D01*
X0210917Y0061966D02*
X0206175Y0061966D01*
X0206175Y0062964D02*
X0210917Y0062964D01*
X0210917Y0063963D02*
X0206175Y0063963D01*
X0206175Y0064961D02*
X0210917Y0064961D01*
X0210917Y0065960D02*
X0206175Y0065960D01*
X0206175Y0066958D02*
X0210917Y0066958D01*
X0210917Y0067957D02*
X0206175Y0067957D01*
X0206175Y0068955D02*
X0210917Y0068955D01*
X0210917Y0069954D02*
X0206175Y0069954D01*
X0206175Y0070952D02*
X0210917Y0070952D01*
X0210917Y0071951D02*
X0206175Y0071951D01*
X0206175Y0072949D02*
X0210917Y0072949D01*
X0210917Y0073948D02*
X0206175Y0073948D01*
X0206175Y0074946D02*
X0210917Y0074946D01*
X0210917Y0075945D02*
X0206175Y0075945D01*
X0206175Y0076943D02*
X0210917Y0076943D01*
X0210917Y0077942D02*
X0206175Y0077942D01*
X0206175Y0078940D02*
X0210917Y0078940D01*
X0210917Y0079939D02*
X0206175Y0079939D01*
X0206175Y0080937D02*
X0210917Y0080937D01*
X0210917Y0081936D02*
X0206175Y0081936D01*
X0206175Y0082934D02*
X0210917Y0082934D01*
X0210917Y0083933D02*
X0206175Y0083933D01*
X0206175Y0084931D02*
X0210917Y0084931D01*
X0210917Y0085930D02*
X0206175Y0085930D01*
X0206175Y0086928D02*
X0210917Y0086928D01*
X0210917Y0087927D02*
X0206175Y0087927D01*
X0206175Y0088925D02*
X0210917Y0088925D01*
X0210917Y0089924D02*
X0206175Y0089924D01*
X0206175Y0090922D02*
X0210917Y0090922D01*
X0210917Y0091921D02*
X0206175Y0091921D01*
X0206175Y0092919D02*
X0210917Y0092919D01*
X0210917Y0093918D02*
X0206175Y0093918D01*
X0206175Y0094916D02*
X0210917Y0094916D01*
X0210917Y0095915D02*
X0206175Y0095915D01*
X0206175Y0096913D02*
X0210917Y0096913D01*
X0210917Y0097912D02*
X0206175Y0097912D01*
X0206175Y0098910D02*
X0210917Y0098910D01*
X0210917Y0099909D02*
X0206175Y0099909D01*
X0206175Y0100907D02*
X0210917Y0100907D01*
X0210917Y0101906D02*
X0206175Y0101906D01*
X0206175Y0102905D02*
X0210917Y0102905D01*
X0210917Y0103903D02*
X0206175Y0103903D01*
X0206175Y0104902D02*
X0210917Y0104902D01*
X0210917Y0105900D02*
X0206175Y0105900D01*
X0206175Y0106899D02*
X0210917Y0106899D01*
X0210917Y0107897D02*
X0206175Y0107897D01*
X0206175Y0108896D02*
X0210917Y0108896D01*
X0210917Y0109894D02*
X0206175Y0109894D01*
X0206175Y0110893D02*
X0210917Y0110893D01*
X0210917Y0111891D02*
X0206175Y0111891D01*
X0206175Y0112890D02*
X0210917Y0112890D01*
X0210917Y0113888D02*
X0206175Y0113888D01*
X0206175Y0114887D02*
X0210917Y0114887D01*
X0210917Y0115885D02*
X0206175Y0115885D01*
X0206175Y0116884D02*
X0210917Y0116884D01*
X0210917Y0117882D02*
X0206175Y0117882D01*
X0206175Y0118881D02*
X0210917Y0118881D01*
X0210917Y0119879D02*
X0206175Y0119879D01*
X0206175Y0120878D02*
X0210917Y0120878D01*
X0210917Y0121876D02*
X0206175Y0121876D01*
X0206175Y0122875D02*
X0210917Y0122875D01*
X0210917Y0123873D02*
X0206175Y0123873D01*
X0206175Y0124872D02*
X0210917Y0124872D01*
X0210917Y0125870D02*
X0206175Y0125870D01*
X0206175Y0126869D02*
X0210917Y0126869D01*
X0210917Y0127867D02*
X0206175Y0127867D01*
X0206175Y0128866D02*
X0210917Y0128866D01*
X0210917Y0129864D02*
X0206175Y0129864D01*
X0206175Y0130863D02*
X0210917Y0130863D01*
X0210917Y0131861D02*
X0206175Y0131861D01*
X0206175Y0132860D02*
X0210917Y0132860D01*
X0210917Y0133858D02*
X0206175Y0133858D01*
X0206175Y0134857D02*
X0210917Y0134857D01*
X0210917Y0135855D02*
X0206175Y0135855D01*
X0206175Y0136854D02*
X0210917Y0136854D01*
X0210917Y0137852D02*
X0206175Y0137852D01*
X0206175Y0138851D02*
X0210917Y0138851D01*
X0210917Y0139849D02*
X0206175Y0139849D01*
X0206175Y0140848D02*
X0210917Y0140848D01*
X0210917Y0141846D02*
X0206175Y0141846D01*
X0206175Y0142845D02*
X0210917Y0142845D01*
X0210917Y0143843D02*
X0206175Y0143843D01*
X0206175Y0144842D02*
X0210917Y0144842D01*
X0210917Y0145840D02*
X0206175Y0145840D01*
X0206175Y0146839D02*
X0210917Y0146839D01*
X0210917Y0147838D02*
X0206175Y0147838D01*
X0206175Y0148836D02*
X0210917Y0148836D01*
X0210917Y0149835D02*
X0206175Y0149835D01*
X0206175Y0150833D02*
X0210917Y0150833D01*
X0210917Y0151832D02*
X0206175Y0151832D01*
X0206175Y0152830D02*
X0210917Y0152830D01*
X0210917Y0153829D02*
X0206175Y0153829D01*
X0205906Y0154827D02*
X0210917Y0154827D01*
X0210917Y0155826D02*
X0205194Y0155826D01*
X0204196Y0156824D02*
X0210917Y0156824D01*
X0210917Y0157823D02*
X0203197Y0157823D01*
X0201817Y0158821D02*
X0210917Y0158821D01*
X0210917Y0159820D02*
X0199126Y0159820D01*
X0198852Y0160818D02*
X0210917Y0160818D01*
X0210917Y0181787D02*
X0134773Y0181787D01*
X0135046Y0182785D02*
X0210917Y0182785D01*
X0207595Y0200759D02*
X0134842Y0200759D01*
X0134428Y0201757D02*
X0206597Y0201757D01*
X0205598Y0202756D02*
X0133675Y0202756D01*
X0132513Y0203754D02*
X0204025Y0203754D01*
X0199975Y0113888D02*
X0118773Y0113888D01*
X0079016Y0060967D02*
X0075786Y0060967D01*
X0075372Y0059969D02*
X0078017Y0059969D01*
X0077019Y0058970D02*
X0074959Y0058970D01*
X0073989Y0057971D02*
X0076294Y0057971D01*
X0075880Y0056973D02*
X0072991Y0056973D01*
X0071805Y0055974D02*
X0075466Y0055974D01*
X0075053Y0054976D02*
X0069394Y0054976D01*
X0070777Y0049983D02*
X0075296Y0049983D01*
X0075710Y0048985D02*
X0072440Y0048985D01*
X0073579Y0047986D02*
X0076124Y0047986D01*
X0076608Y0046988D02*
X0074446Y0046988D01*
X0075112Y0045989D02*
X0077607Y0045989D01*
X0078605Y0044991D02*
X0075620Y0044991D01*
X0075995Y0043992D02*
X0080033Y0043992D01*
X0082444Y0042994D02*
X0076254Y0042994D01*
X0076408Y0041995D02*
X0110998Y0041995D01*
X0110998Y0040997D02*
X0066961Y0040997D01*
X0066961Y0041995D02*
X0065961Y0041995D01*
X0065961Y0040997D02*
X0018067Y0040997D01*
X0016067Y0027183D02*
X0016072Y0026793D01*
X0016086Y0026403D01*
X0016109Y0026014D01*
X0016142Y0025625D01*
X0016185Y0025237D01*
X0016236Y0024851D01*
X0016297Y0024465D01*
X0016368Y0024082D01*
X0016447Y0023700D01*
X0016536Y0023320D01*
X0016634Y0022942D01*
X0016741Y0022567D01*
X0016857Y0022195D01*
X0016982Y0021825D01*
X0017116Y0021459D01*
X0017259Y0021096D01*
X0017410Y0020736D01*
X0017570Y0020381D01*
X0017739Y0020029D01*
X0017916Y0019681D01*
X0018101Y0019338D01*
X0018295Y0019000D01*
X0018497Y0018666D01*
X0018707Y0018337D01*
X0018924Y0018013D01*
X0019150Y0017695D01*
X0019383Y0017382D01*
X0019623Y0017075D01*
X0019871Y0016774D01*
X0020127Y0016479D01*
X0020389Y0016190D01*
X0020658Y0015908D01*
X0020934Y0015632D01*
X0021216Y0015363D01*
X0021505Y0015101D01*
X0021800Y0014845D01*
X0022101Y0014597D01*
X0022408Y0014357D01*
X0022721Y0014124D01*
X0023039Y0013898D01*
X0023363Y0013681D01*
X0023692Y0013471D01*
X0024026Y0013269D01*
X0024364Y0013075D01*
X0024707Y0012890D01*
X0025055Y0012713D01*
X0025407Y0012544D01*
X0025762Y0012384D01*
X0026122Y0012233D01*
X0026485Y0012090D01*
X0026851Y0011956D01*
X0027221Y0011831D01*
X0027593Y0011715D01*
X0027968Y0011608D01*
X0028346Y0011510D01*
X0028726Y0011421D01*
X0029108Y0011342D01*
X0029491Y0011271D01*
X0029877Y0011210D01*
X0030263Y0011159D01*
X0030651Y0011116D01*
X0031040Y0011083D01*
X0031429Y0011060D01*
X0031819Y0011046D01*
X0032209Y0011041D01*
X0065961Y0032010D02*
X0066961Y0032010D01*
X0066961Y0033009D02*
X0065961Y0033009D01*
X0065961Y0034007D02*
X0066961Y0034007D01*
X0066961Y0035006D02*
X0065961Y0035006D01*
X0065961Y0036004D02*
X0066961Y0036004D01*
X0066961Y0037003D02*
X0065961Y0037003D01*
X0065961Y0038001D02*
X0066961Y0038001D01*
X0066961Y0039000D02*
X0065961Y0039000D01*
X0065961Y0039998D02*
X0066961Y0039998D01*
X0066961Y0042994D02*
X0065961Y0042994D01*
X0065961Y0043992D02*
X0066961Y0043992D01*
X0066961Y0044991D02*
X0065961Y0044991D01*
X0065961Y0045989D02*
X0066961Y0045989D01*
X0066961Y0046988D02*
X0065961Y0046988D01*
X0065961Y0047986D02*
X0066961Y0047986D01*
X0066961Y0048985D02*
X0065961Y0048985D01*
X0065961Y0049983D02*
X0066961Y0049983D01*
X0076415Y0039998D02*
X0110998Y0039998D01*
X0110998Y0039000D02*
X0076270Y0039000D01*
X0076019Y0038001D02*
X0110998Y0038001D01*
X0110998Y0037003D02*
X0075653Y0037003D01*
X0075155Y0036004D02*
X0110998Y0036004D01*
X0110998Y0035006D02*
X0074501Y0035006D01*
X0073647Y0034007D02*
X0110998Y0034007D01*
X0110838Y0033009D02*
X0072525Y0033009D01*
X0070918Y0032010D02*
X0109890Y0032010D01*
X0117198Y0035006D02*
X0210917Y0035006D01*
X0210917Y0036004D02*
X0117198Y0036004D01*
X0117198Y0037003D02*
X0210917Y0037003D01*
X0210917Y0038001D02*
X0117198Y0038001D01*
X0110998Y0042994D02*
X0087485Y0042994D01*
X0089896Y0043992D02*
X0110998Y0043992D01*
X0110998Y0044991D02*
X0091324Y0044991D01*
X0092322Y0045989D02*
X0110998Y0045989D01*
X0110998Y0046988D02*
X0093321Y0046988D01*
X0093805Y0047986D02*
X0110998Y0047986D01*
X0110998Y0048985D02*
X0094219Y0048985D01*
X0094633Y0049983D02*
X0110998Y0049983D01*
X0110998Y0050982D02*
X0094965Y0050982D01*
X0094965Y0051980D02*
X0110998Y0051980D01*
X0126218Y0034007D02*
X0192870Y0034007D01*
X0191571Y0033009D02*
X0127832Y0033009D01*
X0128685Y0032010D02*
X0190573Y0032010D01*
X0189920Y0031012D02*
X0129198Y0031012D01*
X0129463Y0030013D02*
X0189506Y0030013D01*
X0210917Y0039000D02*
X0146441Y0039000D01*
X0147475Y0039998D02*
X0210917Y0039998D01*
X0199975Y0087927D02*
X0198732Y0087927D01*
X0198304Y0088925D02*
X0199975Y0088925D01*
X0124835Y0028016D02*
X0123835Y0028016D01*
X0123835Y0027018D02*
X0124835Y0027018D01*
X0124835Y0026019D02*
X0123835Y0026019D01*
X0123835Y0025021D02*
X0124835Y0025021D01*
X0105270Y0177793D02*
X0104581Y0177793D01*
X0103821Y0178791D02*
X0106030Y0178791D01*
X0107209Y0179790D02*
X0103104Y0179790D01*
X0096904Y0179790D02*
X0092799Y0179790D01*
X0093978Y0178791D02*
X0096187Y0178791D01*
X0095427Y0177793D02*
X0094738Y0177793D01*
X0092897Y0194768D02*
X0096904Y0194768D01*
X0096193Y0195766D02*
X0093972Y0195766D01*
X0094690Y0196765D02*
X0095476Y0196765D01*
X0095087Y0200759D02*
X0095078Y0200759D01*
X0094665Y0201757D02*
X0095501Y0201757D01*
X0096254Y0202756D02*
X0093911Y0202756D01*
X0092750Y0203754D02*
X0097416Y0203754D01*
D11*
X0088783Y0122656D03*
X0108469Y0122656D03*
X0116461Y0090569D03*
X0116461Y0070884D03*
X0098547Y0070687D03*
X0078862Y0070687D03*
X0189807Y0108286D03*
D12*
X0167642Y0090215D03*
X0167642Y0060215D03*
X0131539Y0080215D03*
X0131539Y0120215D03*
X0130043Y0145097D03*
X0130043Y0175097D03*
X0129846Y0183482D03*
X0139965Y0175490D03*
X0129846Y0199230D03*
X0110083Y0199230D03*
X0100083Y0199230D03*
X0090083Y0199230D03*
X0070004Y0199230D03*
X0070004Y0183482D03*
X0069807Y0174467D03*
X0090161Y0175254D03*
X0100004Y0175254D03*
X0109846Y0175254D03*
X0069807Y0144467D03*
X0037051Y0158010D03*
X0037051Y0118010D03*
X0036972Y0104821D03*
X0036972Y0094821D03*
X0114335Y0029152D03*
X0124335Y0029152D03*
X0166067Y0131868D03*
X0166067Y0161868D03*
X0179965Y0175490D03*
D13*
X0105201Y0114665D02*
X0105201Y0109465D01*
X0095201Y0109465D02*
X0095201Y0114665D01*
X0085201Y0114665D02*
X0085201Y0109465D01*
X0075201Y0109465D02*
X0075201Y0114665D01*
X0075201Y0084665D02*
X0075201Y0079465D01*
X0085201Y0079465D02*
X0085201Y0084665D01*
X0095201Y0084665D02*
X0095201Y0079465D01*
X0105201Y0079465D02*
X0105201Y0084665D01*
X0149333Y0080175D02*
X0154533Y0080175D01*
X0154533Y0070175D02*
X0149333Y0070175D01*
X0149333Y0090175D02*
X0154533Y0090175D01*
D14*
X0155091Y0132419D02*
X0149091Y0132419D01*
X0149091Y0142419D02*
X0155091Y0142419D01*
X0155091Y0152419D02*
X0149091Y0152419D01*
D15*
X0117327Y0147695D03*
X0082681Y0147695D03*
D16*
X0199807Y0108286D03*
D17*
X0190477Y0027183D02*
X0190479Y0027341D01*
X0190485Y0027499D01*
X0190495Y0027657D01*
X0190509Y0027815D01*
X0190527Y0027972D01*
X0190548Y0028129D01*
X0190574Y0028285D01*
X0190604Y0028441D01*
X0190637Y0028596D01*
X0190675Y0028749D01*
X0190716Y0028902D01*
X0190761Y0029054D01*
X0190810Y0029205D01*
X0190863Y0029354D01*
X0190919Y0029502D01*
X0190979Y0029648D01*
X0191043Y0029793D01*
X0191111Y0029936D01*
X0191182Y0030078D01*
X0191256Y0030218D01*
X0191334Y0030355D01*
X0191416Y0030491D01*
X0191500Y0030625D01*
X0191589Y0030756D01*
X0191680Y0030885D01*
X0191775Y0031012D01*
X0191872Y0031137D01*
X0191973Y0031259D01*
X0192077Y0031378D01*
X0192184Y0031495D01*
X0192294Y0031609D01*
X0192407Y0031720D01*
X0192522Y0031829D01*
X0192640Y0031934D01*
X0192761Y0032036D01*
X0192884Y0032136D01*
X0193010Y0032232D01*
X0193138Y0032325D01*
X0193268Y0032415D01*
X0193401Y0032501D01*
X0193536Y0032585D01*
X0193672Y0032664D01*
X0193811Y0032741D01*
X0193952Y0032813D01*
X0194094Y0032883D01*
X0194238Y0032948D01*
X0194384Y0033010D01*
X0194531Y0033068D01*
X0194680Y0033123D01*
X0194830Y0033174D01*
X0194981Y0033221D01*
X0195133Y0033264D01*
X0195286Y0033303D01*
X0195441Y0033339D01*
X0195596Y0033370D01*
X0195752Y0033398D01*
X0195908Y0033422D01*
X0196065Y0033442D01*
X0196223Y0033458D01*
X0196380Y0033470D01*
X0196539Y0033478D01*
X0196697Y0033482D01*
X0196855Y0033482D01*
X0197013Y0033478D01*
X0197172Y0033470D01*
X0197329Y0033458D01*
X0197487Y0033442D01*
X0197644Y0033422D01*
X0197800Y0033398D01*
X0197956Y0033370D01*
X0198111Y0033339D01*
X0198266Y0033303D01*
X0198419Y0033264D01*
X0198571Y0033221D01*
X0198722Y0033174D01*
X0198872Y0033123D01*
X0199021Y0033068D01*
X0199168Y0033010D01*
X0199314Y0032948D01*
X0199458Y0032883D01*
X0199600Y0032813D01*
X0199741Y0032741D01*
X0199880Y0032664D01*
X0200016Y0032585D01*
X0200151Y0032501D01*
X0200284Y0032415D01*
X0200414Y0032325D01*
X0200542Y0032232D01*
X0200668Y0032136D01*
X0200791Y0032036D01*
X0200912Y0031934D01*
X0201030Y0031829D01*
X0201145Y0031720D01*
X0201258Y0031609D01*
X0201368Y0031495D01*
X0201475Y0031378D01*
X0201579Y0031259D01*
X0201680Y0031137D01*
X0201777Y0031012D01*
X0201872Y0030885D01*
X0201963Y0030756D01*
X0202052Y0030625D01*
X0202136Y0030491D01*
X0202218Y0030355D01*
X0202296Y0030218D01*
X0202370Y0030078D01*
X0202441Y0029936D01*
X0202509Y0029793D01*
X0202573Y0029648D01*
X0202633Y0029502D01*
X0202689Y0029354D01*
X0202742Y0029205D01*
X0202791Y0029054D01*
X0202836Y0028902D01*
X0202877Y0028749D01*
X0202915Y0028596D01*
X0202948Y0028441D01*
X0202978Y0028285D01*
X0203004Y0028129D01*
X0203025Y0027972D01*
X0203043Y0027815D01*
X0203057Y0027657D01*
X0203067Y0027499D01*
X0203073Y0027341D01*
X0203075Y0027183D01*
X0203073Y0027025D01*
X0203067Y0026867D01*
X0203057Y0026709D01*
X0203043Y0026551D01*
X0203025Y0026394D01*
X0203004Y0026237D01*
X0202978Y0026081D01*
X0202948Y0025925D01*
X0202915Y0025770D01*
X0202877Y0025617D01*
X0202836Y0025464D01*
X0202791Y0025312D01*
X0202742Y0025161D01*
X0202689Y0025012D01*
X0202633Y0024864D01*
X0202573Y0024718D01*
X0202509Y0024573D01*
X0202441Y0024430D01*
X0202370Y0024288D01*
X0202296Y0024148D01*
X0202218Y0024011D01*
X0202136Y0023875D01*
X0202052Y0023741D01*
X0201963Y0023610D01*
X0201872Y0023481D01*
X0201777Y0023354D01*
X0201680Y0023229D01*
X0201579Y0023107D01*
X0201475Y0022988D01*
X0201368Y0022871D01*
X0201258Y0022757D01*
X0201145Y0022646D01*
X0201030Y0022537D01*
X0200912Y0022432D01*
X0200791Y0022330D01*
X0200668Y0022230D01*
X0200542Y0022134D01*
X0200414Y0022041D01*
X0200284Y0021951D01*
X0200151Y0021865D01*
X0200016Y0021781D01*
X0199880Y0021702D01*
X0199741Y0021625D01*
X0199600Y0021553D01*
X0199458Y0021483D01*
X0199314Y0021418D01*
X0199168Y0021356D01*
X0199021Y0021298D01*
X0198872Y0021243D01*
X0198722Y0021192D01*
X0198571Y0021145D01*
X0198419Y0021102D01*
X0198266Y0021063D01*
X0198111Y0021027D01*
X0197956Y0020996D01*
X0197800Y0020968D01*
X0197644Y0020944D01*
X0197487Y0020924D01*
X0197329Y0020908D01*
X0197172Y0020896D01*
X0197013Y0020888D01*
X0196855Y0020884D01*
X0196697Y0020884D01*
X0196539Y0020888D01*
X0196380Y0020896D01*
X0196223Y0020908D01*
X0196065Y0020924D01*
X0195908Y0020944D01*
X0195752Y0020968D01*
X0195596Y0020996D01*
X0195441Y0021027D01*
X0195286Y0021063D01*
X0195133Y0021102D01*
X0194981Y0021145D01*
X0194830Y0021192D01*
X0194680Y0021243D01*
X0194531Y0021298D01*
X0194384Y0021356D01*
X0194238Y0021418D01*
X0194094Y0021483D01*
X0193952Y0021553D01*
X0193811Y0021625D01*
X0193672Y0021702D01*
X0193536Y0021781D01*
X0193401Y0021865D01*
X0193268Y0021951D01*
X0193138Y0022041D01*
X0193010Y0022134D01*
X0192884Y0022230D01*
X0192761Y0022330D01*
X0192640Y0022432D01*
X0192522Y0022537D01*
X0192407Y0022646D01*
X0192294Y0022757D01*
X0192184Y0022871D01*
X0192077Y0022988D01*
X0191973Y0023107D01*
X0191872Y0023229D01*
X0191775Y0023354D01*
X0191680Y0023481D01*
X0191589Y0023610D01*
X0191500Y0023741D01*
X0191416Y0023875D01*
X0191334Y0024011D01*
X0191256Y0024148D01*
X0191182Y0024288D01*
X0191111Y0024430D01*
X0191043Y0024573D01*
X0190979Y0024718D01*
X0190919Y0024864D01*
X0190863Y0025012D01*
X0190810Y0025161D01*
X0190761Y0025312D01*
X0190716Y0025464D01*
X0190675Y0025617D01*
X0190637Y0025770D01*
X0190604Y0025925D01*
X0190574Y0026081D01*
X0190548Y0026237D01*
X0190527Y0026394D01*
X0190509Y0026551D01*
X0190495Y0026709D01*
X0190485Y0026867D01*
X0190479Y0027025D01*
X0190477Y0027183D01*
X0025910Y0027183D02*
X0025912Y0027341D01*
X0025918Y0027499D01*
X0025928Y0027657D01*
X0025942Y0027815D01*
X0025960Y0027972D01*
X0025981Y0028129D01*
X0026007Y0028285D01*
X0026037Y0028441D01*
X0026070Y0028596D01*
X0026108Y0028749D01*
X0026149Y0028902D01*
X0026194Y0029054D01*
X0026243Y0029205D01*
X0026296Y0029354D01*
X0026352Y0029502D01*
X0026412Y0029648D01*
X0026476Y0029793D01*
X0026544Y0029936D01*
X0026615Y0030078D01*
X0026689Y0030218D01*
X0026767Y0030355D01*
X0026849Y0030491D01*
X0026933Y0030625D01*
X0027022Y0030756D01*
X0027113Y0030885D01*
X0027208Y0031012D01*
X0027305Y0031137D01*
X0027406Y0031259D01*
X0027510Y0031378D01*
X0027617Y0031495D01*
X0027727Y0031609D01*
X0027840Y0031720D01*
X0027955Y0031829D01*
X0028073Y0031934D01*
X0028194Y0032036D01*
X0028317Y0032136D01*
X0028443Y0032232D01*
X0028571Y0032325D01*
X0028701Y0032415D01*
X0028834Y0032501D01*
X0028969Y0032585D01*
X0029105Y0032664D01*
X0029244Y0032741D01*
X0029385Y0032813D01*
X0029527Y0032883D01*
X0029671Y0032948D01*
X0029817Y0033010D01*
X0029964Y0033068D01*
X0030113Y0033123D01*
X0030263Y0033174D01*
X0030414Y0033221D01*
X0030566Y0033264D01*
X0030719Y0033303D01*
X0030874Y0033339D01*
X0031029Y0033370D01*
X0031185Y0033398D01*
X0031341Y0033422D01*
X0031498Y0033442D01*
X0031656Y0033458D01*
X0031813Y0033470D01*
X0031972Y0033478D01*
X0032130Y0033482D01*
X0032288Y0033482D01*
X0032446Y0033478D01*
X0032605Y0033470D01*
X0032762Y0033458D01*
X0032920Y0033442D01*
X0033077Y0033422D01*
X0033233Y0033398D01*
X0033389Y0033370D01*
X0033544Y0033339D01*
X0033699Y0033303D01*
X0033852Y0033264D01*
X0034004Y0033221D01*
X0034155Y0033174D01*
X0034305Y0033123D01*
X0034454Y0033068D01*
X0034601Y0033010D01*
X0034747Y0032948D01*
X0034891Y0032883D01*
X0035033Y0032813D01*
X0035174Y0032741D01*
X0035313Y0032664D01*
X0035449Y0032585D01*
X0035584Y0032501D01*
X0035717Y0032415D01*
X0035847Y0032325D01*
X0035975Y0032232D01*
X0036101Y0032136D01*
X0036224Y0032036D01*
X0036345Y0031934D01*
X0036463Y0031829D01*
X0036578Y0031720D01*
X0036691Y0031609D01*
X0036801Y0031495D01*
X0036908Y0031378D01*
X0037012Y0031259D01*
X0037113Y0031137D01*
X0037210Y0031012D01*
X0037305Y0030885D01*
X0037396Y0030756D01*
X0037485Y0030625D01*
X0037569Y0030491D01*
X0037651Y0030355D01*
X0037729Y0030218D01*
X0037803Y0030078D01*
X0037874Y0029936D01*
X0037942Y0029793D01*
X0038006Y0029648D01*
X0038066Y0029502D01*
X0038122Y0029354D01*
X0038175Y0029205D01*
X0038224Y0029054D01*
X0038269Y0028902D01*
X0038310Y0028749D01*
X0038348Y0028596D01*
X0038381Y0028441D01*
X0038411Y0028285D01*
X0038437Y0028129D01*
X0038458Y0027972D01*
X0038476Y0027815D01*
X0038490Y0027657D01*
X0038500Y0027499D01*
X0038506Y0027341D01*
X0038508Y0027183D01*
X0038506Y0027025D01*
X0038500Y0026867D01*
X0038490Y0026709D01*
X0038476Y0026551D01*
X0038458Y0026394D01*
X0038437Y0026237D01*
X0038411Y0026081D01*
X0038381Y0025925D01*
X0038348Y0025770D01*
X0038310Y0025617D01*
X0038269Y0025464D01*
X0038224Y0025312D01*
X0038175Y0025161D01*
X0038122Y0025012D01*
X0038066Y0024864D01*
X0038006Y0024718D01*
X0037942Y0024573D01*
X0037874Y0024430D01*
X0037803Y0024288D01*
X0037729Y0024148D01*
X0037651Y0024011D01*
X0037569Y0023875D01*
X0037485Y0023741D01*
X0037396Y0023610D01*
X0037305Y0023481D01*
X0037210Y0023354D01*
X0037113Y0023229D01*
X0037012Y0023107D01*
X0036908Y0022988D01*
X0036801Y0022871D01*
X0036691Y0022757D01*
X0036578Y0022646D01*
X0036463Y0022537D01*
X0036345Y0022432D01*
X0036224Y0022330D01*
X0036101Y0022230D01*
X0035975Y0022134D01*
X0035847Y0022041D01*
X0035717Y0021951D01*
X0035584Y0021865D01*
X0035449Y0021781D01*
X0035313Y0021702D01*
X0035174Y0021625D01*
X0035033Y0021553D01*
X0034891Y0021483D01*
X0034747Y0021418D01*
X0034601Y0021356D01*
X0034454Y0021298D01*
X0034305Y0021243D01*
X0034155Y0021192D01*
X0034004Y0021145D01*
X0033852Y0021102D01*
X0033699Y0021063D01*
X0033544Y0021027D01*
X0033389Y0020996D01*
X0033233Y0020968D01*
X0033077Y0020944D01*
X0032920Y0020924D01*
X0032762Y0020908D01*
X0032605Y0020896D01*
X0032446Y0020888D01*
X0032288Y0020884D01*
X0032130Y0020884D01*
X0031972Y0020888D01*
X0031813Y0020896D01*
X0031656Y0020908D01*
X0031498Y0020924D01*
X0031341Y0020944D01*
X0031185Y0020968D01*
X0031029Y0020996D01*
X0030874Y0021027D01*
X0030719Y0021063D01*
X0030566Y0021102D01*
X0030414Y0021145D01*
X0030263Y0021192D01*
X0030113Y0021243D01*
X0029964Y0021298D01*
X0029817Y0021356D01*
X0029671Y0021418D01*
X0029527Y0021483D01*
X0029385Y0021553D01*
X0029244Y0021625D01*
X0029105Y0021702D01*
X0028969Y0021781D01*
X0028834Y0021865D01*
X0028701Y0021951D01*
X0028571Y0022041D01*
X0028443Y0022134D01*
X0028317Y0022230D01*
X0028194Y0022330D01*
X0028073Y0022432D01*
X0027955Y0022537D01*
X0027840Y0022646D01*
X0027727Y0022757D01*
X0027617Y0022871D01*
X0027510Y0022988D01*
X0027406Y0023107D01*
X0027305Y0023229D01*
X0027208Y0023354D01*
X0027113Y0023481D01*
X0027022Y0023610D01*
X0026933Y0023741D01*
X0026849Y0023875D01*
X0026767Y0024011D01*
X0026689Y0024148D01*
X0026615Y0024288D01*
X0026544Y0024430D01*
X0026476Y0024573D01*
X0026412Y0024718D01*
X0026352Y0024864D01*
X0026296Y0025012D01*
X0026243Y0025161D01*
X0026194Y0025312D01*
X0026149Y0025464D01*
X0026108Y0025617D01*
X0026070Y0025770D01*
X0026037Y0025925D01*
X0026007Y0026081D01*
X0025981Y0026237D01*
X0025960Y0026394D01*
X0025942Y0026551D01*
X0025928Y0026709D01*
X0025918Y0026867D01*
X0025912Y0027025D01*
X0025910Y0027183D01*
X0025910Y0191750D02*
X0025912Y0191908D01*
X0025918Y0192066D01*
X0025928Y0192224D01*
X0025942Y0192382D01*
X0025960Y0192539D01*
X0025981Y0192696D01*
X0026007Y0192852D01*
X0026037Y0193008D01*
X0026070Y0193163D01*
X0026108Y0193316D01*
X0026149Y0193469D01*
X0026194Y0193621D01*
X0026243Y0193772D01*
X0026296Y0193921D01*
X0026352Y0194069D01*
X0026412Y0194215D01*
X0026476Y0194360D01*
X0026544Y0194503D01*
X0026615Y0194645D01*
X0026689Y0194785D01*
X0026767Y0194922D01*
X0026849Y0195058D01*
X0026933Y0195192D01*
X0027022Y0195323D01*
X0027113Y0195452D01*
X0027208Y0195579D01*
X0027305Y0195704D01*
X0027406Y0195826D01*
X0027510Y0195945D01*
X0027617Y0196062D01*
X0027727Y0196176D01*
X0027840Y0196287D01*
X0027955Y0196396D01*
X0028073Y0196501D01*
X0028194Y0196603D01*
X0028317Y0196703D01*
X0028443Y0196799D01*
X0028571Y0196892D01*
X0028701Y0196982D01*
X0028834Y0197068D01*
X0028969Y0197152D01*
X0029105Y0197231D01*
X0029244Y0197308D01*
X0029385Y0197380D01*
X0029527Y0197450D01*
X0029671Y0197515D01*
X0029817Y0197577D01*
X0029964Y0197635D01*
X0030113Y0197690D01*
X0030263Y0197741D01*
X0030414Y0197788D01*
X0030566Y0197831D01*
X0030719Y0197870D01*
X0030874Y0197906D01*
X0031029Y0197937D01*
X0031185Y0197965D01*
X0031341Y0197989D01*
X0031498Y0198009D01*
X0031656Y0198025D01*
X0031813Y0198037D01*
X0031972Y0198045D01*
X0032130Y0198049D01*
X0032288Y0198049D01*
X0032446Y0198045D01*
X0032605Y0198037D01*
X0032762Y0198025D01*
X0032920Y0198009D01*
X0033077Y0197989D01*
X0033233Y0197965D01*
X0033389Y0197937D01*
X0033544Y0197906D01*
X0033699Y0197870D01*
X0033852Y0197831D01*
X0034004Y0197788D01*
X0034155Y0197741D01*
X0034305Y0197690D01*
X0034454Y0197635D01*
X0034601Y0197577D01*
X0034747Y0197515D01*
X0034891Y0197450D01*
X0035033Y0197380D01*
X0035174Y0197308D01*
X0035313Y0197231D01*
X0035449Y0197152D01*
X0035584Y0197068D01*
X0035717Y0196982D01*
X0035847Y0196892D01*
X0035975Y0196799D01*
X0036101Y0196703D01*
X0036224Y0196603D01*
X0036345Y0196501D01*
X0036463Y0196396D01*
X0036578Y0196287D01*
X0036691Y0196176D01*
X0036801Y0196062D01*
X0036908Y0195945D01*
X0037012Y0195826D01*
X0037113Y0195704D01*
X0037210Y0195579D01*
X0037305Y0195452D01*
X0037396Y0195323D01*
X0037485Y0195192D01*
X0037569Y0195058D01*
X0037651Y0194922D01*
X0037729Y0194785D01*
X0037803Y0194645D01*
X0037874Y0194503D01*
X0037942Y0194360D01*
X0038006Y0194215D01*
X0038066Y0194069D01*
X0038122Y0193921D01*
X0038175Y0193772D01*
X0038224Y0193621D01*
X0038269Y0193469D01*
X0038310Y0193316D01*
X0038348Y0193163D01*
X0038381Y0193008D01*
X0038411Y0192852D01*
X0038437Y0192696D01*
X0038458Y0192539D01*
X0038476Y0192382D01*
X0038490Y0192224D01*
X0038500Y0192066D01*
X0038506Y0191908D01*
X0038508Y0191750D01*
X0038506Y0191592D01*
X0038500Y0191434D01*
X0038490Y0191276D01*
X0038476Y0191118D01*
X0038458Y0190961D01*
X0038437Y0190804D01*
X0038411Y0190648D01*
X0038381Y0190492D01*
X0038348Y0190337D01*
X0038310Y0190184D01*
X0038269Y0190031D01*
X0038224Y0189879D01*
X0038175Y0189728D01*
X0038122Y0189579D01*
X0038066Y0189431D01*
X0038006Y0189285D01*
X0037942Y0189140D01*
X0037874Y0188997D01*
X0037803Y0188855D01*
X0037729Y0188715D01*
X0037651Y0188578D01*
X0037569Y0188442D01*
X0037485Y0188308D01*
X0037396Y0188177D01*
X0037305Y0188048D01*
X0037210Y0187921D01*
X0037113Y0187796D01*
X0037012Y0187674D01*
X0036908Y0187555D01*
X0036801Y0187438D01*
X0036691Y0187324D01*
X0036578Y0187213D01*
X0036463Y0187104D01*
X0036345Y0186999D01*
X0036224Y0186897D01*
X0036101Y0186797D01*
X0035975Y0186701D01*
X0035847Y0186608D01*
X0035717Y0186518D01*
X0035584Y0186432D01*
X0035449Y0186348D01*
X0035313Y0186269D01*
X0035174Y0186192D01*
X0035033Y0186120D01*
X0034891Y0186050D01*
X0034747Y0185985D01*
X0034601Y0185923D01*
X0034454Y0185865D01*
X0034305Y0185810D01*
X0034155Y0185759D01*
X0034004Y0185712D01*
X0033852Y0185669D01*
X0033699Y0185630D01*
X0033544Y0185594D01*
X0033389Y0185563D01*
X0033233Y0185535D01*
X0033077Y0185511D01*
X0032920Y0185491D01*
X0032762Y0185475D01*
X0032605Y0185463D01*
X0032446Y0185455D01*
X0032288Y0185451D01*
X0032130Y0185451D01*
X0031972Y0185455D01*
X0031813Y0185463D01*
X0031656Y0185475D01*
X0031498Y0185491D01*
X0031341Y0185511D01*
X0031185Y0185535D01*
X0031029Y0185563D01*
X0030874Y0185594D01*
X0030719Y0185630D01*
X0030566Y0185669D01*
X0030414Y0185712D01*
X0030263Y0185759D01*
X0030113Y0185810D01*
X0029964Y0185865D01*
X0029817Y0185923D01*
X0029671Y0185985D01*
X0029527Y0186050D01*
X0029385Y0186120D01*
X0029244Y0186192D01*
X0029105Y0186269D01*
X0028969Y0186348D01*
X0028834Y0186432D01*
X0028701Y0186518D01*
X0028571Y0186608D01*
X0028443Y0186701D01*
X0028317Y0186797D01*
X0028194Y0186897D01*
X0028073Y0186999D01*
X0027955Y0187104D01*
X0027840Y0187213D01*
X0027727Y0187324D01*
X0027617Y0187438D01*
X0027510Y0187555D01*
X0027406Y0187674D01*
X0027305Y0187796D01*
X0027208Y0187921D01*
X0027113Y0188048D01*
X0027022Y0188177D01*
X0026933Y0188308D01*
X0026849Y0188442D01*
X0026767Y0188578D01*
X0026689Y0188715D01*
X0026615Y0188855D01*
X0026544Y0188997D01*
X0026476Y0189140D01*
X0026412Y0189285D01*
X0026352Y0189431D01*
X0026296Y0189579D01*
X0026243Y0189728D01*
X0026194Y0189879D01*
X0026149Y0190031D01*
X0026108Y0190184D01*
X0026070Y0190337D01*
X0026037Y0190492D01*
X0026007Y0190648D01*
X0025981Y0190804D01*
X0025960Y0190961D01*
X0025942Y0191118D01*
X0025928Y0191276D01*
X0025918Y0191434D01*
X0025912Y0191592D01*
X0025910Y0191750D01*
X0190477Y0191750D02*
X0190479Y0191908D01*
X0190485Y0192066D01*
X0190495Y0192224D01*
X0190509Y0192382D01*
X0190527Y0192539D01*
X0190548Y0192696D01*
X0190574Y0192852D01*
X0190604Y0193008D01*
X0190637Y0193163D01*
X0190675Y0193316D01*
X0190716Y0193469D01*
X0190761Y0193621D01*
X0190810Y0193772D01*
X0190863Y0193921D01*
X0190919Y0194069D01*
X0190979Y0194215D01*
X0191043Y0194360D01*
X0191111Y0194503D01*
X0191182Y0194645D01*
X0191256Y0194785D01*
X0191334Y0194922D01*
X0191416Y0195058D01*
X0191500Y0195192D01*
X0191589Y0195323D01*
X0191680Y0195452D01*
X0191775Y0195579D01*
X0191872Y0195704D01*
X0191973Y0195826D01*
X0192077Y0195945D01*
X0192184Y0196062D01*
X0192294Y0196176D01*
X0192407Y0196287D01*
X0192522Y0196396D01*
X0192640Y0196501D01*
X0192761Y0196603D01*
X0192884Y0196703D01*
X0193010Y0196799D01*
X0193138Y0196892D01*
X0193268Y0196982D01*
X0193401Y0197068D01*
X0193536Y0197152D01*
X0193672Y0197231D01*
X0193811Y0197308D01*
X0193952Y0197380D01*
X0194094Y0197450D01*
X0194238Y0197515D01*
X0194384Y0197577D01*
X0194531Y0197635D01*
X0194680Y0197690D01*
X0194830Y0197741D01*
X0194981Y0197788D01*
X0195133Y0197831D01*
X0195286Y0197870D01*
X0195441Y0197906D01*
X0195596Y0197937D01*
X0195752Y0197965D01*
X0195908Y0197989D01*
X0196065Y0198009D01*
X0196223Y0198025D01*
X0196380Y0198037D01*
X0196539Y0198045D01*
X0196697Y0198049D01*
X0196855Y0198049D01*
X0197013Y0198045D01*
X0197172Y0198037D01*
X0197329Y0198025D01*
X0197487Y0198009D01*
X0197644Y0197989D01*
X0197800Y0197965D01*
X0197956Y0197937D01*
X0198111Y0197906D01*
X0198266Y0197870D01*
X0198419Y0197831D01*
X0198571Y0197788D01*
X0198722Y0197741D01*
X0198872Y0197690D01*
X0199021Y0197635D01*
X0199168Y0197577D01*
X0199314Y0197515D01*
X0199458Y0197450D01*
X0199600Y0197380D01*
X0199741Y0197308D01*
X0199880Y0197231D01*
X0200016Y0197152D01*
X0200151Y0197068D01*
X0200284Y0196982D01*
X0200414Y0196892D01*
X0200542Y0196799D01*
X0200668Y0196703D01*
X0200791Y0196603D01*
X0200912Y0196501D01*
X0201030Y0196396D01*
X0201145Y0196287D01*
X0201258Y0196176D01*
X0201368Y0196062D01*
X0201475Y0195945D01*
X0201579Y0195826D01*
X0201680Y0195704D01*
X0201777Y0195579D01*
X0201872Y0195452D01*
X0201963Y0195323D01*
X0202052Y0195192D01*
X0202136Y0195058D01*
X0202218Y0194922D01*
X0202296Y0194785D01*
X0202370Y0194645D01*
X0202441Y0194503D01*
X0202509Y0194360D01*
X0202573Y0194215D01*
X0202633Y0194069D01*
X0202689Y0193921D01*
X0202742Y0193772D01*
X0202791Y0193621D01*
X0202836Y0193469D01*
X0202877Y0193316D01*
X0202915Y0193163D01*
X0202948Y0193008D01*
X0202978Y0192852D01*
X0203004Y0192696D01*
X0203025Y0192539D01*
X0203043Y0192382D01*
X0203057Y0192224D01*
X0203067Y0192066D01*
X0203073Y0191908D01*
X0203075Y0191750D01*
X0203073Y0191592D01*
X0203067Y0191434D01*
X0203057Y0191276D01*
X0203043Y0191118D01*
X0203025Y0190961D01*
X0203004Y0190804D01*
X0202978Y0190648D01*
X0202948Y0190492D01*
X0202915Y0190337D01*
X0202877Y0190184D01*
X0202836Y0190031D01*
X0202791Y0189879D01*
X0202742Y0189728D01*
X0202689Y0189579D01*
X0202633Y0189431D01*
X0202573Y0189285D01*
X0202509Y0189140D01*
X0202441Y0188997D01*
X0202370Y0188855D01*
X0202296Y0188715D01*
X0202218Y0188578D01*
X0202136Y0188442D01*
X0202052Y0188308D01*
X0201963Y0188177D01*
X0201872Y0188048D01*
X0201777Y0187921D01*
X0201680Y0187796D01*
X0201579Y0187674D01*
X0201475Y0187555D01*
X0201368Y0187438D01*
X0201258Y0187324D01*
X0201145Y0187213D01*
X0201030Y0187104D01*
X0200912Y0186999D01*
X0200791Y0186897D01*
X0200668Y0186797D01*
X0200542Y0186701D01*
X0200414Y0186608D01*
X0200284Y0186518D01*
X0200151Y0186432D01*
X0200016Y0186348D01*
X0199880Y0186269D01*
X0199741Y0186192D01*
X0199600Y0186120D01*
X0199458Y0186050D01*
X0199314Y0185985D01*
X0199168Y0185923D01*
X0199021Y0185865D01*
X0198872Y0185810D01*
X0198722Y0185759D01*
X0198571Y0185712D01*
X0198419Y0185669D01*
X0198266Y0185630D01*
X0198111Y0185594D01*
X0197956Y0185563D01*
X0197800Y0185535D01*
X0197644Y0185511D01*
X0197487Y0185491D01*
X0197329Y0185475D01*
X0197172Y0185463D01*
X0197013Y0185455D01*
X0196855Y0185451D01*
X0196697Y0185451D01*
X0196539Y0185455D01*
X0196380Y0185463D01*
X0196223Y0185475D01*
X0196065Y0185491D01*
X0195908Y0185511D01*
X0195752Y0185535D01*
X0195596Y0185563D01*
X0195441Y0185594D01*
X0195286Y0185630D01*
X0195133Y0185669D01*
X0194981Y0185712D01*
X0194830Y0185759D01*
X0194680Y0185810D01*
X0194531Y0185865D01*
X0194384Y0185923D01*
X0194238Y0185985D01*
X0194094Y0186050D01*
X0193952Y0186120D01*
X0193811Y0186192D01*
X0193672Y0186269D01*
X0193536Y0186348D01*
X0193401Y0186432D01*
X0193268Y0186518D01*
X0193138Y0186608D01*
X0193010Y0186701D01*
X0192884Y0186797D01*
X0192761Y0186897D01*
X0192640Y0186999D01*
X0192522Y0187104D01*
X0192407Y0187213D01*
X0192294Y0187324D01*
X0192184Y0187438D01*
X0192077Y0187555D01*
X0191973Y0187674D01*
X0191872Y0187796D01*
X0191775Y0187921D01*
X0191680Y0188048D01*
X0191589Y0188177D01*
X0191500Y0188308D01*
X0191416Y0188442D01*
X0191334Y0188578D01*
X0191256Y0188715D01*
X0191182Y0188855D01*
X0191111Y0188997D01*
X0191043Y0189140D01*
X0190979Y0189285D01*
X0190919Y0189431D01*
X0190863Y0189579D01*
X0190810Y0189728D01*
X0190761Y0189879D01*
X0190716Y0190031D01*
X0190675Y0190184D01*
X0190637Y0190337D01*
X0190604Y0190492D01*
X0190574Y0190648D01*
X0190548Y0190804D01*
X0190527Y0190961D01*
X0190509Y0191118D01*
X0190495Y0191276D01*
X0190485Y0191434D01*
X0190479Y0191592D01*
X0190477Y0191750D01*
D18*
X0193626Y0155923D03*
X0193232Y0083876D03*
D19*
X0193232Y0070097D03*
X0193626Y0142144D03*
D20*
X0084965Y0052774D03*
X0066461Y0064585D03*
X0066461Y0040963D03*
D21*
X0067248Y0064191D02*
X0066461Y0064585D01*
X0066854Y0109860D01*
X0069059Y0112065D01*
X0075201Y0112065D01*
X0085201Y0112065D02*
X0085358Y0112223D01*
X0085358Y0114978D01*
X0068823Y0131514D01*
X0047957Y0131514D01*
X0036933Y0142538D01*
X0036933Y0157892D01*
X0037051Y0158010D01*
X0069807Y0174467D02*
X0069807Y0183286D01*
X0070004Y0183482D01*
X0070594Y0175254D02*
X0069807Y0174467D01*
X0070594Y0175254D02*
X0090161Y0175254D01*
X0100004Y0175254D02*
X0100004Y0165687D01*
X0102681Y0163010D01*
X0135752Y0163010D01*
X0138114Y0160648D01*
X0138114Y0133876D01*
X0134177Y0129939D01*
X0118823Y0129939D01*
X0115673Y0126789D01*
X0115673Y0100018D01*
X0112524Y0096868D01*
X0101106Y0096868D01*
X0094807Y0090569D01*
X0094807Y0082459D01*
X0095201Y0082065D01*
X0104886Y0080805D02*
X0105280Y0084112D01*
X0106461Y0083325D02*
X0105201Y0082065D01*
X0104886Y0080805D01*
X0105043Y0080727D02*
X0105043Y0070884D01*
X0116461Y0070884D01*
X0105043Y0070884D02*
X0105043Y0064191D01*
X0067248Y0064191D01*
X0078862Y0070687D02*
X0078862Y0072262D01*
X0075122Y0076789D01*
X0075122Y0081986D01*
X0075201Y0082065D01*
X0084965Y0082301D02*
X0085201Y0082065D01*
X0084965Y0082301D02*
X0084965Y0092931D01*
X0095201Y0103167D01*
X0095201Y0112065D01*
X0095083Y0112065D01*
X0105043Y0081120D02*
X0105043Y0080727D01*
X0105043Y0064191D02*
X0105043Y0063010D01*
X0114098Y0053955D01*
X0114098Y0041356D01*
X0144413Y0041356D01*
X0154256Y0050805D01*
X0195594Y0051199D01*
X0203075Y0058679D01*
X0203075Y0084270D01*
X0202681Y0083876D01*
X0193232Y0083876D01*
X0172799Y0083876D01*
X0167642Y0090215D01*
X0151933Y0080175D02*
X0151894Y0080215D01*
X0131539Y0080215D01*
X0151933Y0070175D02*
X0167642Y0070175D01*
X0167642Y0060215D01*
X0167642Y0070175D02*
X0193232Y0070175D01*
X0193232Y0070097D01*
X0203075Y0084270D02*
X0203075Y0107104D01*
X0201894Y0108286D01*
X0199807Y0108286D01*
X0203075Y0107104D02*
X0203075Y0153561D01*
X0200713Y0155923D01*
X0193626Y0155923D01*
X0171618Y0155923D01*
X0166067Y0161868D01*
X0166067Y0171671D01*
X0169886Y0175490D01*
X0179965Y0175490D01*
X0193350Y0142419D02*
X0166461Y0142419D01*
X0166461Y0132262D01*
X0166459Y0132223D01*
X0166453Y0132185D01*
X0166444Y0132148D01*
X0166431Y0132111D01*
X0166414Y0132076D01*
X0166395Y0132043D01*
X0166372Y0132012D01*
X0166346Y0131983D01*
X0166317Y0131957D01*
X0166286Y0131934D01*
X0166253Y0131915D01*
X0166218Y0131898D01*
X0166181Y0131885D01*
X0166144Y0131876D01*
X0166106Y0131870D01*
X0166067Y0131868D01*
X0166461Y0142419D02*
X0152091Y0142419D01*
X0152091Y0132419D02*
X0152091Y0124624D01*
X0147169Y0119703D01*
X0132051Y0119703D01*
X0131539Y0120215D01*
X0138114Y0161435D02*
X0138114Y0164585D01*
X0136539Y0163010D01*
X0135752Y0163010D01*
X0138114Y0164585D02*
X0138114Y0173640D01*
X0139965Y0175490D01*
X0130043Y0175097D02*
X0130043Y0184467D01*
X0129846Y0183482D01*
X0129886Y0175254D02*
X0130043Y0175097D01*
X0129886Y0175254D02*
X0109846Y0175254D01*
X0100004Y0175254D02*
X0100004Y0199152D01*
X0100083Y0199230D01*
X0110083Y0199230D02*
X0129846Y0199230D01*
X0090083Y0199230D02*
X0070004Y0199230D01*
X0037445Y0119978D02*
X0036933Y0116553D01*
X0036933Y0104860D01*
X0036972Y0104821D01*
X0037051Y0118010D02*
X0037445Y0119978D01*
X0114098Y0041356D02*
X0114098Y0029388D01*
X0114335Y0029152D01*
X0193626Y0142144D02*
X0193624Y0142175D01*
X0193619Y0142205D01*
X0193611Y0142235D01*
X0193599Y0142264D01*
X0193584Y0142291D01*
X0193566Y0142316D01*
X0193545Y0142339D01*
X0193522Y0142360D01*
X0193497Y0142378D01*
X0193470Y0142393D01*
X0193441Y0142405D01*
X0193411Y0142413D01*
X0193381Y0142418D01*
X0193350Y0142420D01*
D22*
X0130043Y0142734D02*
X0125909Y0138207D01*
X0095201Y0138207D01*
X0095201Y0122538D01*
X0088902Y0122538D01*
X0088783Y0122656D01*
X0095201Y0122538D02*
X0095201Y0112065D01*
X0095201Y0138207D02*
X0073547Y0138207D01*
X0069807Y0141947D01*
X0069807Y0144467D01*
X0130043Y0145097D02*
X0130043Y0142734D01*
X0104965Y0080805D02*
X0105043Y0080727D01*
X0104965Y0080805D02*
X0104886Y0080805D01*
M02*
